<svg width="1153" height="290" viewBox="0 0 1153 290" fill="none" xmlns="http://www.w3.org/2000/svg">
<rect y="61" width="128" height="160" fill="#030811"/>
<path d="M1.125 253H6.26562C8.64062 253 10.0781 251.797 10.0781 249.766C10.0781 248.359 9.39062 247.406 8.125 247.047C9.15625 246.594 9.75 245.703 9.75 244.469C9.75 242.625 8.40625 241.5 6.0625 241.5H1.125V253ZM3.42188 251.219V248.078H5.96875C7.23438 248.078 7.8125 248.562 7.8125 249.641C7.8125 250.688 7.21875 251.219 5.95312 251.219H3.42188ZM3.42188 246.281V243.281H5.65625C6.89062 243.281 7.48438 243.766 7.48438 244.766C7.48438 245.766 6.875 246.281 5.65625 246.281H3.42188ZM11.9219 253H14.2969V240.734H11.9219V253ZM19.5625 253.172C20.75 253.172 21.6562 252.656 22.25 251.766V253H24.5469V244.375H22.1875V249.25C22.1875 250.516 21.4062 251.312 20.2656 251.312C19.3125 251.312 18.8125 250.828 18.8125 249.562V244.375H16.4531V249.625C16.4531 252.047 17.4688 253.172 19.5625 253.172ZM31.1406 253.172C32.4531 253.172 33.7969 252.766 34.5938 252.062L33.9062 250.5C33.1875 251.109 32.1875 251.375 31.2344 251.375C29.5938 251.375 28.75 250.688 28.6094 249.188H34.7031V248.578C34.7031 245.891 33.1875 244.203 30.7031 244.203C28.0938 244.203 26.2969 246.047 26.2969 248.703C26.2969 251.531 28.1719 253.172 31.1406 253.172ZM28.6094 247.938C28.7656 246.547 29.5312 245.844 30.7656 245.844C31.9375 245.844 32.6094 246.516 32.6875 247.938H28.6094ZM36.2812 249.172H41.0469V247.359H36.2812V249.172ZM46.6094 241.359C44.3438 241.359 42.7188 243 42.7188 245.234C42.7188 247.391 44.1875 248.938 46.2188 248.938C47.4219 248.938 48.4531 248.359 48.9375 247.438C48.8594 249.953 47.9531 251.297 46.3438 251.297C45.5156 251.297 44.5469 250.969 43.5 250.141L42.7344 251.844C43.6719 252.703 45.0781 253.141 46.4688 253.141C49.4375 253.141 51.25 250.875 51.25 247.047C51.25 243.406 49.5781 241.359 46.6094 241.359ZM44.9531 245.141C44.9531 243.953 45.6719 243.203 46.75 243.203C47.8594 243.203 48.5938 243.969 48.5938 245.141C48.5938 246.312 47.8438 247.062 46.75 247.062C45.6719 247.062 44.9531 246.312 44.9531 245.141ZM56.7969 253.141C59.5625 253.141 61.0625 251.062 61.0625 247.234C61.0625 243.484 59.5625 241.391 56.7969 241.391C54.0781 241.391 52.5469 243.484 52.5469 247.234C52.5469 251.062 54.0781 253.141 56.7969 253.141ZM54.8438 247.234C54.8438 244.438 55.4531 243.203 56.7969 243.203C58.1562 243.203 58.7656 244.422 58.7656 247.234C58.7656 250.078 58.1562 251.328 56.7969 251.328C55.4531 251.328 54.8438 250.078 54.8438 247.234ZM66.5938 253.141C69.3594 253.141 70.8594 251.062 70.8594 247.234C70.8594 243.484 69.3594 241.391 66.5938 241.391C63.875 241.391 62.3438 243.484 62.3438 247.234C62.3438 251.062 63.875 253.141 66.5938 253.141ZM64.6406 247.234C64.6406 244.438 65.25 243.203 66.5938 243.203C67.9531 243.203 68.5625 244.422 68.5625 247.234C68.5625 250.078 67.9531 251.328 66.5938 251.328C65.25 251.328 64.6406 250.078 64.6406 247.234Z" fill="#030811"/>
<path d="M1.375 288H2.4375L2.96875 285.047H5.42188L4.875 288H5.9375L6.48438 285.047H8.5625V284.062H6.65625L7.35938 280.312H8.875V279.312H7.54688L8.0625 276.5H7L6.48438 279.312H4.03125L4.54688 276.5H3.5L2.98438 279.312H0.890625V280.312H2.79688L2.09375 284.062H0.578125V285.047H1.92188L1.375 288ZM3.15625 284.062L3.84375 280.312H6.29688L5.60938 284.062H3.15625ZM14.3438 288.125C16.9844 288.125 18.3906 286.078 18.3906 282.234C18.3906 278.406 16.9844 276.375 14.3438 276.375C11.7188 276.375 10.2969 278.422 10.2969 282.25C10.2969 286.094 11.7188 288.125 14.3438 288.125ZM11.7188 282.234C11.7188 279.016 12.5625 277.562 14.3438 277.562C16.1562 277.562 16.9688 279 16.9688 282.234C16.9688 285.484 16.1406 286.953 14.3438 286.953C12.5625 286.953 11.7188 285.469 11.7188 282.234ZM24.0156 288.109C26.3438 288.109 27.8281 286.891 27.8281 284.891C27.8281 283.469 27.0938 282.469 25.7344 282.094C26.8594 281.656 27.5469 280.641 27.5625 279.328C27.5938 277.516 26.2344 276.375 24.125 276.375C22.6875 276.375 21.25 276.906 20.3281 277.781L20.8281 278.859C21.8906 277.984 22.9688 277.547 24.0781 277.547C25.4219 277.547 26.1875 278.219 26.1875 279.422C26.1875 280.828 25.2656 281.594 23.5938 281.594H22.5156V282.734H23.8438C25.5938 282.734 26.4375 283.453 26.4375 284.812C26.4375 286.219 25.5938 286.938 23.9844 286.938C22.7969 286.938 21.7031 286.5 20.6562 285.625L20.1406 286.703C21.1094 287.594 22.5312 288.109 24.0156 288.109ZM33.9375 288.125C36.5781 288.125 37.9844 286.078 37.9844 282.234C37.9844 278.406 36.5781 276.375 33.9375 276.375C31.3125 276.375 29.8906 278.422 29.8906 282.25C29.8906 286.094 31.3125 288.125 33.9375 288.125ZM31.3125 282.234C31.3125 279.016 32.1562 277.562 33.9375 277.562C35.75 277.562 36.5625 279 36.5625 282.234C36.5625 285.484 35.7344 286.953 33.9375 286.953C32.1562 286.953 31.3125 285.469 31.3125 282.234ZM43.7344 288.109C46.3906 288.109 47.8906 286.922 47.8906 284.953C47.8906 283.531 47.0938 282.5 45.75 282.109C46.875 281.703 47.5938 280.703 47.5938 279.438C47.5938 277.547 46.2031 276.375 43.7344 276.375C41.2812 276.375 39.875 277.547 39.875 279.438C39.875 280.703 40.5938 281.672 41.75 282.094C40.4062 282.484 39.5938 283.531 39.5938 284.953C39.5938 286.922 41.0938 288.109 43.7344 288.109ZM40.9844 284.859C40.9844 283.5 41.8594 282.734 43.7344 282.734C45.625 282.734 46.5 283.5 46.5 284.859C46.5 286.234 45.625 286.938 43.7344 286.938C41.8594 286.938 40.9844 286.234 40.9844 284.859ZM41.25 279.547C41.25 278.266 42.0781 277.531 43.7344 277.531C45.3906 277.531 46.2188 278.266 46.2188 279.547C46.2188 280.844 45.3906 281.594 43.7344 281.594C42.0938 281.594 41.25 280.844 41.25 279.547ZM50.75 288H57.2188V286.812H54.6719V276.5H53.6719L50.6094 278.438L51.2656 279.484L53.2656 278.234V286.812H50.75V288ZM60.5469 288H67.0156V286.812H64.4688V276.5H63.4688L60.4062 278.438L61.0625 279.484L63.0625 278.234V286.812H60.5469V288Z" fill="#030811"/>
<rect x="128" y="61" width="128" height="160" fill="#0E2044"/>
<path d="M129.125 253H134.266C136.641 253 138.078 251.797 138.078 249.766C138.078 248.359 137.391 247.406 136.125 247.047C137.156 246.594 137.75 245.703 137.75 244.469C137.75 242.625 136.406 241.5 134.062 241.5H129.125V253ZM131.422 251.219V248.078H133.969C135.234 248.078 135.812 248.562 135.812 249.641C135.812 250.688 135.219 251.219 133.953 251.219H131.422ZM131.422 246.281V243.281H133.656C134.891 243.281 135.484 243.766 135.484 244.766C135.484 245.766 134.875 246.281 133.656 246.281H131.422ZM139.922 253H142.297V240.734H139.922V253ZM147.562 253.172C148.75 253.172 149.656 252.656 150.25 251.766V253H152.547V244.375H150.188V249.25C150.188 250.516 149.406 251.312 148.266 251.312C147.312 251.312 146.812 250.828 146.812 249.562V244.375H144.453V249.625C144.453 252.047 145.469 253.172 147.562 253.172ZM159.141 253.172C160.453 253.172 161.797 252.766 162.594 252.062L161.906 250.5C161.188 251.109 160.188 251.375 159.234 251.375C157.594 251.375 156.75 250.688 156.609 249.188H162.703V248.578C162.703 245.891 161.188 244.203 158.703 244.203C156.094 244.203 154.297 246.047 154.297 248.703C154.297 251.531 156.172 253.172 159.141 253.172ZM156.609 247.938C156.766 246.547 157.531 245.844 158.766 245.844C159.938 245.844 160.609 246.516 160.688 247.938H156.609ZM164.281 249.172H169.047V247.359H164.281V249.172ZM175 253.125C177.734 253.125 179.375 251.906 179.375 249.875C179.375 248.469 178.625 247.453 177.297 247.078C178.391 246.703 179.078 245.75 179.078 244.469C179.078 242.531 177.531 241.359 175 241.359C172.469 241.359 170.922 242.531 170.922 244.469C170.922 245.703 171.578 246.656 172.703 247.078C171.391 247.438 170.641 248.469 170.641 249.875C170.641 251.906 172.281 253.125 175 253.125ZM172.844 249.688C172.844 248.625 173.547 248.109 175 248.109C176.469 248.109 177.172 248.625 177.172 249.688C177.172 250.75 176.469 251.312 175 251.312C173.547 251.312 172.844 250.75 172.844 249.688ZM173.109 244.703C173.109 243.688 173.75 243.172 175 243.172C176.25 243.172 176.859 243.688 176.859 244.703C176.859 245.75 176.25 246.266 175 246.266C173.781 246.266 173.109 245.75 173.109 244.703ZM184.797 253.141C187.562 253.141 189.062 251.062 189.062 247.234C189.062 243.484 187.562 241.391 184.797 241.391C182.078 241.391 180.547 243.484 180.547 247.234C180.547 251.062 182.078 253.141 184.797 253.141ZM182.844 247.234C182.844 244.438 183.453 243.203 184.797 243.203C186.156 243.203 186.766 244.422 186.766 247.234C186.766 250.078 186.156 251.328 184.797 251.328C183.453 251.328 182.844 250.078 182.844 247.234ZM194.594 253.141C197.359 253.141 198.859 251.062 198.859 247.234C198.859 243.484 197.359 241.391 194.594 241.391C191.875 241.391 190.344 243.484 190.344 247.234C190.344 251.062 191.875 253.141 194.594 253.141ZM192.641 247.234C192.641 244.438 193.25 243.203 194.594 243.203C195.953 243.203 196.562 244.422 196.562 247.234C196.562 250.078 195.953 251.328 194.594 251.328C193.25 251.328 192.641 250.078 192.641 247.234Z" fill="#030811"/>
<path d="M129.375 288H130.438L130.969 285.047H133.422L132.875 288H133.938L134.484 285.047H136.562V284.062H134.656L135.359 280.312H136.875V279.312H135.547L136.062 276.5H135L134.484 279.312H132.031L132.547 276.5H131.5L130.984 279.312H128.891V280.312H130.797L130.094 284.062H128.578V285.047H129.922L129.375 288ZM131.156 284.062L131.844 280.312H134.297L133.609 284.062H131.156ZM142.344 288.125C144.984 288.125 146.391 286.078 146.391 282.234C146.391 278.406 144.984 276.375 142.344 276.375C139.719 276.375 138.297 278.422 138.297 282.25C138.297 286.094 139.719 288.125 142.344 288.125ZM139.719 282.234C139.719 279.016 140.562 277.562 142.344 277.562C144.156 277.562 144.969 279 144.969 282.234C144.969 285.484 144.141 286.953 142.344 286.953C140.562 286.953 139.719 285.469 139.719 282.234ZM148.594 288H155.828V286.828H149.969V282.75H155.469V281.578H149.969V277.672H155.828V276.5H148.594V288ZM158.016 288H165.438V286.812H159.828L163.031 283.328C164.406 281.844 164.953 280.719 164.953 279.391C164.953 277.516 163.625 276.375 161.484 276.375C160.125 276.375 158.625 276.938 157.719 277.781L158.219 278.859C159.297 277.984 160.359 277.547 161.469 277.547C162.797 277.547 163.562 278.219 163.562 279.469C163.562 280.422 163.078 281.344 162.031 282.516L158.016 286.938V288ZM171.328 288.125C173.969 288.125 175.375 286.078 175.375 282.234C175.375 278.406 173.969 276.375 171.328 276.375C168.703 276.375 167.281 278.422 167.281 282.25C167.281 286.094 168.703 288.125 171.328 288.125ZM168.703 282.234C168.703 279.016 169.547 277.562 171.328 277.562C173.141 277.562 173.953 279 173.953 282.234C173.953 285.484 173.125 286.953 171.328 286.953C169.547 286.953 168.703 285.469 168.703 282.234ZM182.344 288H183.719V285.516H185.453V284.406H183.719V276.5H182.578L177.047 284.469V285.516H182.344V288ZM178.484 284.406L182.344 278.797V284.406H178.484ZM192.141 288H193.516V285.516H195.25V284.406H193.516V276.5H192.375L186.844 284.469V285.516H192.141V288ZM188.281 284.406L192.141 278.797V284.406H188.281Z" fill="#030811"/>
<rect x="256" y="61" width="128" height="160" fill="#152F65"/>
<path d="M257.125 253H262.266C264.641 253 266.078 251.797 266.078 249.766C266.078 248.359 265.391 247.406 264.125 247.047C265.156 246.594 265.75 245.703 265.75 244.469C265.75 242.625 264.406 241.5 262.062 241.5H257.125V253ZM259.422 251.219V248.078H261.969C263.234 248.078 263.812 248.562 263.812 249.641C263.812 250.688 263.219 251.219 261.953 251.219H259.422ZM259.422 246.281V243.281H261.656C262.891 243.281 263.484 243.766 263.484 244.766C263.484 245.766 262.875 246.281 261.656 246.281H259.422ZM267.922 253H270.297V240.734H267.922V253ZM275.562 253.172C276.75 253.172 277.656 252.656 278.25 251.766V253H280.547V244.375H278.188V249.25C278.188 250.516 277.406 251.312 276.266 251.312C275.312 251.312 274.812 250.828 274.812 249.562V244.375H272.453V249.625C272.453 252.047 273.469 253.172 275.562 253.172ZM287.141 253.172C288.453 253.172 289.797 252.766 290.594 252.062L289.906 250.5C289.188 251.109 288.188 251.375 287.234 251.375C285.594 251.375 284.75 250.688 284.609 249.188H290.703V248.578C290.703 245.891 289.188 244.203 286.703 244.203C284.094 244.203 282.297 246.047 282.297 248.703C282.297 251.531 284.172 253.172 287.141 253.172ZM284.609 247.938C284.766 246.547 285.531 245.844 286.766 245.844C287.938 245.844 288.609 246.516 288.688 247.938H284.609ZM292.281 249.172H297.047V247.359H292.281V249.172ZM301.938 253L307.094 243.266V241.5H298.922V243.406H304.562L299.422 253H301.938ZM312.797 253.141C315.562 253.141 317.062 251.062 317.062 247.234C317.062 243.484 315.562 241.391 312.797 241.391C310.078 241.391 308.547 243.484 308.547 247.234C308.547 251.062 310.078 253.141 312.797 253.141ZM310.844 247.234C310.844 244.438 311.453 243.203 312.797 243.203C314.156 243.203 314.766 244.422 314.766 247.234C314.766 250.078 314.156 251.328 312.797 251.328C311.453 251.328 310.844 250.078 310.844 247.234ZM322.594 253.141C325.359 253.141 326.859 251.062 326.859 247.234C326.859 243.484 325.359 241.391 322.594 241.391C319.875 241.391 318.344 243.484 318.344 247.234C318.344 251.062 319.875 253.141 322.594 253.141ZM320.641 247.234C320.641 244.438 321.25 243.203 322.594 243.203C323.953 243.203 324.562 244.422 324.562 247.234C324.562 250.078 323.953 251.328 322.594 251.328C321.25 251.328 320.641 250.078 320.641 247.234Z" fill="#030811"/>
<path d="M257.375 288H258.438L258.969 285.047H261.422L260.875 288H261.938L262.484 285.047H264.562V284.062H262.656L263.359 280.312H264.875V279.312H263.547L264.062 276.5H263L262.484 279.312H260.031L260.547 276.5H259.5L258.984 279.312H256.891V280.312H258.797L258.094 284.062H256.578V285.047H257.922L257.375 288ZM259.156 284.062L259.844 280.312H262.297L261.609 284.062H259.156ZM267.562 288H274.031V286.812H271.484V276.5H270.484L267.422 278.438L268.078 279.484L270.078 278.234V286.812H267.562V288ZM280.312 288.109C282.719 288.109 284.234 286.609 284.234 284.391C284.234 282.234 282.859 280.766 280.656 280.766C279.719 280.766 278.906 280.906 278.297 281.141L278.594 277.656H283.781V276.5H277.375L276.844 282.5H277.797C278.438 282.125 279.328 281.922 280.406 281.922C281.906 281.922 282.844 282.938 282.844 284.438C282.844 285.984 281.922 286.938 280.312 286.938C279.172 286.938 278.094 286.484 277.047 285.625L276.531 286.703C277.469 287.578 278.922 288.109 280.312 288.109ZM286.422 288H293.844V286.812H288.234L291.438 283.328C292.812 281.844 293.359 280.719 293.359 279.391C293.359 277.516 292.031 276.375 289.891 276.375C288.531 276.375 287.031 276.938 286.125 277.781L286.625 278.859C287.703 277.984 288.766 277.547 289.875 277.547C291.203 277.547 291.969 278.219 291.969 279.469C291.969 280.422 291.484 281.344 290.438 282.516L286.422 286.938V288ZM296.188 288H297.594V282.781H302.969V281.625H297.594V277.672H303.281V276.5H296.188V288ZM308.969 288.125C311.125 288.125 312.688 286.562 312.688 284.391C312.688 282.234 311.219 280.766 309.109 280.766C307.688 280.766 306.516 281.516 306.016 282.719V282.5C306.016 279.328 307.125 277.547 309.109 277.547C310.094 277.547 311.062 277.938 312.141 278.859L312.672 277.781C311.703 276.859 310.406 276.375 309.062 276.375C306.266 276.375 304.594 278.641 304.594 282.531C304.594 286.125 306.156 288.125 308.969 288.125ZM306.391 284.438C306.391 282.953 307.406 281.922 308.875 281.922C310.344 281.922 311.297 282.922 311.297 284.438C311.297 285.969 310.359 286.953 308.891 286.953C307.391 286.953 306.391 285.953 306.391 284.438ZM318.547 288.109C320.953 288.109 322.469 286.609 322.469 284.391C322.469 282.234 321.094 280.766 318.891 280.766C317.953 280.766 317.141 280.906 316.531 281.141L316.828 277.656H322.016V276.5H315.609L315.078 282.5H316.031C316.672 282.125 317.562 281.922 318.641 281.922C320.141 281.922 321.078 282.938 321.078 284.438C321.078 285.984 320.156 286.938 318.547 286.938C317.406 286.938 316.328 286.484 315.281 285.625L314.766 286.703C315.703 287.578 317.156 288.109 318.547 288.109Z" fill="#030811"/>
<rect x="384" y="61" width="128" height="160" fill="#1C3F87"/>
<path d="M385.125 253H390.266C392.641 253 394.078 251.797 394.078 249.766C394.078 248.359 393.391 247.406 392.125 247.047C393.156 246.594 393.75 245.703 393.75 244.469C393.75 242.625 392.406 241.5 390.062 241.5H385.125V253ZM387.422 251.219V248.078H389.969C391.234 248.078 391.812 248.562 391.812 249.641C391.812 250.688 391.219 251.219 389.953 251.219H387.422ZM387.422 246.281V243.281H389.656C390.891 243.281 391.484 243.766 391.484 244.766C391.484 245.766 390.875 246.281 389.656 246.281H387.422ZM395.922 253H398.297V240.734H395.922V253ZM403.562 253.172C404.75 253.172 405.656 252.656 406.25 251.766V253H408.547V244.375H406.188V249.25C406.188 250.516 405.406 251.312 404.266 251.312C403.312 251.312 402.812 250.828 402.812 249.562V244.375H400.453V249.625C400.453 252.047 401.469 253.172 403.562 253.172ZM415.141 253.172C416.453 253.172 417.797 252.766 418.594 252.062L417.906 250.5C417.188 251.109 416.188 251.375 415.234 251.375C413.594 251.375 412.75 250.688 412.609 249.188H418.703V248.578C418.703 245.891 417.188 244.203 414.703 244.203C412.094 244.203 410.297 246.047 410.297 248.703C410.297 251.531 412.172 253.172 415.141 253.172ZM412.609 247.938C412.766 246.547 413.531 245.844 414.766 245.844C415.938 245.844 416.609 246.516 416.688 247.938H412.609ZM420.281 249.172H425.047V247.359H420.281V249.172ZM431.391 253.141C433.641 253.141 435.297 251.5 435.297 249.266C435.297 247.109 433.844 245.562 431.812 245.562C430.609 245.562 429.578 246.125 429.094 247.031C429.172 244.531 430.047 243.203 431.641 243.203C432.484 243.203 433.453 243.531 434.516 244.359L435.297 242.656C434.328 241.797 432.938 241.359 431.547 241.359C428.578 241.359 426.766 243.625 426.766 247.438C426.766 251.094 428.438 253.141 431.391 253.141ZM429.422 249.359C429.422 248.188 430.156 247.391 431.25 247.391C432.344 247.391 433.062 248.188 433.062 249.359C433.062 250.547 432.359 251.297 431.234 251.297C430.172 251.297 429.422 250.531 429.422 249.359ZM440.797 253.141C443.562 253.141 445.062 251.062 445.062 247.234C445.062 243.484 443.562 241.391 440.797 241.391C438.078 241.391 436.547 243.484 436.547 247.234C436.547 251.062 438.078 253.141 440.797 253.141ZM438.844 247.234C438.844 244.438 439.453 243.203 440.797 243.203C442.156 243.203 442.766 244.422 442.766 247.234C442.766 250.078 442.156 251.328 440.797 251.328C439.453 251.328 438.844 250.078 438.844 247.234ZM450.594 253.141C453.359 253.141 454.859 251.062 454.859 247.234C454.859 243.484 453.359 241.391 450.594 241.391C447.875 241.391 446.344 243.484 446.344 247.234C446.344 251.062 447.875 253.141 450.594 253.141ZM448.641 247.234C448.641 244.438 449.25 243.203 450.594 243.203C451.953 243.203 452.562 244.422 452.562 247.234C452.562 250.078 451.953 251.328 450.594 251.328C449.25 251.328 448.641 250.078 448.641 247.234Z" fill="#030811"/>
<path d="M385.375 288H386.438L386.969 285.047H389.422L388.875 288H389.938L390.484 285.047H392.562V284.062H390.656L391.359 280.312H392.875V279.312H391.547L392.062 276.5H391L390.484 279.312H388.031L388.547 276.5H387.5L386.984 279.312H384.891V280.312H386.797L386.094 284.062H384.578V285.047H385.922L385.375 288ZM387.156 284.062L387.844 280.312H390.297L389.609 284.062H387.156ZM395.562 288H402.031V286.812H399.484V276.5H398.484L395.422 278.438L396.078 279.484L398.078 278.234V286.812H395.562V288ZM409.266 277.594C410.547 277.594 411.5 278.016 412.453 278.891L412.953 277.766C412.094 276.844 410.766 276.344 409.266 276.344C406.141 276.344 404.203 278.594 404.203 282.234C404.203 285.891 406.156 288.156 409.266 288.156C410.766 288.156 412.094 287.641 412.953 286.734L412.453 285.594C411.5 286.469 410.531 286.906 409.266 286.906C406.969 286.906 405.688 285.219 405.688 282.234C405.688 279.266 406.969 277.594 409.266 277.594ZM418.422 288.109C420.75 288.109 422.234 286.891 422.234 284.891C422.234 283.469 421.5 282.469 420.141 282.094C421.266 281.656 421.953 280.641 421.969 279.328C422 277.516 420.641 276.375 418.531 276.375C417.094 276.375 415.656 276.906 414.734 277.781L415.234 278.859C416.297 277.984 417.375 277.547 418.484 277.547C419.828 277.547 420.594 278.219 420.594 279.422C420.594 280.828 419.672 281.594 418 281.594H416.922V282.734H418.25C420 282.734 420.844 283.453 420.844 284.812C420.844 286.219 420 286.938 418.391 286.938C417.203 286.938 416.109 286.5 415.062 285.625L414.547 286.703C415.516 287.594 416.938 288.109 418.422 288.109ZM424.797 288H426.203V282.781H431.578V281.625H426.203V277.672H431.891V276.5H424.797V288ZM437.203 288.109C439.859 288.109 441.359 286.922 441.359 284.953C441.359 283.531 440.562 282.5 439.219 282.109C440.344 281.703 441.062 280.703 441.062 279.438C441.062 277.547 439.672 276.375 437.203 276.375C434.75 276.375 433.344 277.547 433.344 279.438C433.344 280.703 434.062 281.672 435.219 282.094C433.875 282.484 433.062 283.531 433.062 284.953C433.062 286.922 434.562 288.109 437.203 288.109ZM434.453 284.859C434.453 283.5 435.328 282.734 437.203 282.734C439.094 282.734 439.969 283.5 439.969 284.859C439.969 286.234 439.094 286.938 437.203 286.938C435.328 286.938 434.453 286.234 434.453 284.859ZM434.719 279.547C434.719 278.266 435.547 277.531 437.203 277.531C438.859 277.531 439.688 278.266 439.688 279.547C439.688 280.844 438.859 281.594 437.203 281.594C435.562 281.594 434.719 280.844 434.719 279.547ZM445.453 288L450.812 277.562V276.5H443.203V277.672H449.266L443.938 288H445.453Z" fill="#030811"/>
<g clip-path="url(#clip0_26_4275)">
<path d="M524 23C518.48 23 514 27.48 514 33C514 38.52 518.48 43 524 43C529.52 43 534 38.52 534 33C534 27.48 529.52 23 524 23ZM522 38L517 33L518.41 31.59L522 35.17L529.59 27.58L531 29L522 38Z" fill="#1C3F87"/>
</g>
<rect x="512" y="61" width="128" height="160" fill="#234FA9"/>
<path d="M513.125 253H518.266C520.641 253 522.078 251.797 522.078 249.766C522.078 248.359 521.391 247.406 520.125 247.047C521.156 246.594 521.75 245.703 521.75 244.469C521.75 242.625 520.406 241.5 518.062 241.5H513.125V253ZM515.422 251.219V248.078H517.969C519.234 248.078 519.812 248.562 519.812 249.641C519.812 250.688 519.219 251.219 517.953 251.219H515.422ZM515.422 246.281V243.281H517.656C518.891 243.281 519.484 243.766 519.484 244.766C519.484 245.766 518.875 246.281 517.656 246.281H515.422ZM523.922 253H526.297V240.734H523.922V253ZM531.562 253.172C532.75 253.172 533.656 252.656 534.25 251.766V253H536.547V244.375H534.188V249.25C534.188 250.516 533.406 251.312 532.266 251.312C531.312 251.312 530.812 250.828 530.812 249.562V244.375H528.453V249.625C528.453 252.047 529.469 253.172 531.562 253.172ZM543.141 253.172C544.453 253.172 545.797 252.766 546.594 252.062L545.906 250.5C545.188 251.109 544.188 251.375 543.234 251.375C541.594 251.375 540.75 250.688 540.609 249.188H546.703V248.578C546.703 245.891 545.188 244.203 542.703 244.203C540.094 244.203 538.297 246.047 538.297 248.703C538.297 251.531 540.172 253.172 543.141 253.172ZM540.609 247.938C540.766 246.547 541.531 245.844 542.766 245.844C543.938 245.844 544.609 246.516 544.688 247.938H540.609ZM548.281 249.172H553.047V247.359H548.281V249.172ZM558.953 253.125C561.609 253.125 563.312 251.594 563.312 249.266C563.312 247.078 561.844 245.609 559.672 245.609C558.953 245.609 558.344 245.672 557.828 245.812L558.047 243.312H562.766V241.5H556L555.438 247.797H556.828C557.406 247.547 558.25 247.391 559.031 247.391C560.297 247.391 561.078 248.156 561.078 249.359C561.078 250.594 560.359 251.266 558.969 251.266C557.891 251.266 556.859 250.891 555.812 250.125L555.047 251.828C555.953 252.641 557.5 253.125 558.953 253.125ZM568.797 253.141C571.562 253.141 573.062 251.062 573.062 247.234C573.062 243.484 571.562 241.391 568.797 241.391C566.078 241.391 564.547 243.484 564.547 247.234C564.547 251.062 566.078 253.141 568.797 253.141ZM566.844 247.234C566.844 244.438 567.453 243.203 568.797 243.203C570.156 243.203 570.766 244.422 570.766 247.234C570.766 250.078 570.156 251.328 568.797 251.328C567.453 251.328 566.844 250.078 566.844 247.234ZM578.594 253.141C581.359 253.141 582.859 251.062 582.859 247.234C582.859 243.484 581.359 241.391 578.594 241.391C575.875 241.391 574.344 243.484 574.344 247.234C574.344 251.062 575.875 253.141 578.594 253.141ZM576.641 247.234C576.641 244.438 577.25 243.203 578.594 243.203C579.953 243.203 580.562 244.422 580.562 247.234C580.562 250.078 579.953 251.328 578.594 251.328C577.25 251.328 576.641 250.078 576.641 247.234Z" fill="#030811"/>
<path d="M513.375 288H514.438L514.969 285.047H517.422L516.875 288H517.938L518.484 285.047H520.562V284.062H518.656L519.359 280.312H520.875V279.312H519.547L520.062 276.5H519L518.484 279.312H516.031L516.547 276.5H515.5L514.984 279.312H512.891V280.312H514.797L514.094 284.062H512.578V285.047H513.922L513.375 288ZM515.156 284.062L515.844 280.312H518.297L517.609 284.062H515.156ZM522.828 288H530.25V286.812H524.641L527.844 283.328C529.219 281.844 529.766 280.719 529.766 279.391C529.766 277.516 528.438 276.375 526.297 276.375C524.938 276.375 523.438 276.938 522.531 277.781L523.031 278.859C524.109 277.984 525.172 277.547 526.281 277.547C527.609 277.547 528.375 278.219 528.375 279.469C528.375 280.422 527.891 281.344 526.844 282.516L522.828 286.938V288ZM536.016 288.109C538.344 288.109 539.828 286.891 539.828 284.891C539.828 283.469 539.094 282.469 537.734 282.094C538.859 281.656 539.547 280.641 539.562 279.328C539.594 277.516 538.234 276.375 536.125 276.375C534.688 276.375 533.25 276.906 532.328 277.781L532.828 278.859C533.891 277.984 534.969 277.547 536.078 277.547C537.422 277.547 538.188 278.219 538.188 279.422C538.188 280.828 537.266 281.594 535.594 281.594H534.516V282.734H535.844C537.594 282.734 538.438 283.453 538.438 284.812C538.438 286.219 537.594 286.938 535.984 286.938C534.797 286.938 533.703 286.5 532.656 285.625L532.141 286.703C533.109 287.594 534.531 288.109 536.016 288.109ZM547.156 288H548.531V285.516H550.266V284.406H548.531V276.5H547.391L541.859 284.469V285.516H547.156V288ZM543.297 284.406L547.156 278.797V284.406H543.297ZM552.188 288H553.594V282.781H558.969V281.625H553.594V277.672H559.281V276.5H552.188V288ZM559.969 288H561.422L562.531 285.078H567.828L568.953 288H570.422L565.797 276.5H564.594L559.969 288ZM562.984 283.922L565.172 278.125H565.203L567.406 283.922H562.984ZM575.219 276.375C573.047 276.375 571.5 277.938 571.5 280.094C571.5 282.266 572.969 283.734 575.094 283.734C576.516 283.734 577.703 282.984 578.188 281.766V282C578.188 285.172 577.062 286.953 575.078 286.953C574.094 286.953 573.125 286.562 572.047 285.641L571.516 286.719C572.5 287.625 573.781 288.125 575.125 288.125C577.922 288.125 579.578 285.844 579.578 281.969C579.578 278.375 578.031 276.375 575.219 276.375ZM572.906 280.062C572.906 278.531 573.844 277.547 575.297 277.547C576.797 277.547 577.797 278.547 577.797 280.062C577.797 281.547 576.797 282.547 575.297 282.547C573.859 282.547 572.906 281.578 572.906 280.062Z" fill="#030811"/>
<rect x="640" y="61" width="128" height="160" fill="#4F72BA"/>
<path d="M641.125 253H646.266C648.641 253 650.078 251.797 650.078 249.766C650.078 248.359 649.391 247.406 648.125 247.047C649.156 246.594 649.75 245.703 649.75 244.469C649.75 242.625 648.406 241.5 646.062 241.5H641.125V253ZM643.422 251.219V248.078H645.969C647.234 248.078 647.812 248.562 647.812 249.641C647.812 250.688 647.219 251.219 645.953 251.219H643.422ZM643.422 246.281V243.281H645.656C646.891 243.281 647.484 243.766 647.484 244.766C647.484 245.766 646.875 246.281 645.656 246.281H643.422ZM651.922 253H654.297V240.734H651.922V253ZM659.562 253.172C660.75 253.172 661.656 252.656 662.25 251.766V253H664.547V244.375H662.188V249.25C662.188 250.516 661.406 251.312 660.266 251.312C659.312 251.312 658.812 250.828 658.812 249.562V244.375H656.453V249.625C656.453 252.047 657.469 253.172 659.562 253.172ZM671.141 253.172C672.453 253.172 673.797 252.766 674.594 252.062L673.906 250.5C673.188 251.109 672.188 251.375 671.234 251.375C669.594 251.375 668.75 250.688 668.609 249.188H674.703V248.578C674.703 245.891 673.188 244.203 670.703 244.203C668.094 244.203 666.297 246.047 666.297 248.703C666.297 251.531 668.172 253.172 671.141 253.172ZM668.609 247.938C668.766 246.547 669.531 245.844 670.766 245.844C671.938 245.844 672.609 246.516 672.688 247.938H668.609ZM676.281 249.172H681.047V247.359H676.281V249.172ZM687.625 253H689.922V250.812H691.5V249.031H689.922V241.5H688.031L682.75 249.109V250.812H687.625V253ZM684.906 249.031L687.625 245.094V249.031H684.906ZM696.797 253.141C699.562 253.141 701.062 251.062 701.062 247.234C701.062 243.484 699.562 241.391 696.797 241.391C694.078 241.391 692.547 243.484 692.547 247.234C692.547 251.062 694.078 253.141 696.797 253.141ZM694.844 247.234C694.844 244.438 695.453 243.203 696.797 243.203C698.156 243.203 698.766 244.422 698.766 247.234C698.766 250.078 698.156 251.328 696.797 251.328C695.453 251.328 694.844 250.078 694.844 247.234ZM706.594 253.141C709.359 253.141 710.859 251.062 710.859 247.234C710.859 243.484 709.359 241.391 706.594 241.391C703.875 241.391 702.344 243.484 702.344 247.234C702.344 251.062 703.875 253.141 706.594 253.141ZM704.641 247.234C704.641 244.438 705.25 243.203 706.594 243.203C707.953 243.203 708.562 244.422 708.562 247.234C708.562 250.078 707.953 251.328 706.594 251.328C705.25 251.328 704.641 250.078 704.641 247.234Z" fill="#030811"/>
<path d="M641.375 288H642.438L642.969 285.047H645.422L644.875 288H645.938L646.484 285.047H648.562V284.062H646.656L647.359 280.312H648.875V279.312H647.547L648.062 276.5H647L646.484 279.312H644.031L644.547 276.5H643.5L642.984 279.312H640.891V280.312H642.797L642.094 284.062H640.578V285.047H641.922L641.375 288ZM643.156 284.062L643.844 280.312H646.297L645.609 284.062H643.156ZM655.562 288H656.938V285.516H658.672V284.406H656.938V276.5H655.797L650.266 284.469V285.516H655.562V288ZM651.703 284.406L655.562 278.797V284.406H651.703ZM660.594 288H662V282.781H667.375V281.625H662V277.672H667.688V276.5H660.594V288ZM671.453 288L676.812 277.562V276.5H669.203V277.672H675.266L669.938 288H671.453ZM679.281 288H686.703V286.812H681.094L684.297 283.328C685.672 281.844 686.219 280.719 686.219 279.391C686.219 277.516 684.891 276.375 682.75 276.375C681.391 276.375 679.891 276.938 678.984 277.781L679.484 278.859C680.562 277.984 681.625 277.547 682.734 277.547C684.062 277.547 684.828 278.219 684.828 279.469C684.828 280.422 684.344 281.344 683.297 282.516L679.281 286.938V288ZM689.047 288H693.656C695.984 288 697.328 286.859 697.328 284.844C697.328 283.391 696.578 282.422 695.312 282.094C696.391 281.672 697.031 280.75 697.031 279.484C697.031 277.594 695.719 276.5 693.438 276.5H689.047V288ZM690.422 286.859V282.734H693.531C695.172 282.734 695.953 283.391 695.953 284.797C695.953 286.203 695.156 286.859 693.516 286.859H690.422ZM690.422 281.609V277.641H693.234C694.828 277.641 695.641 278.297 695.641 279.609C695.641 280.906 694.812 281.609 693.234 281.609H690.422ZM698.562 288H700.016L701.125 285.078H706.422L707.547 288H709.016L704.391 276.5H703.188L698.562 288ZM701.578 283.922L703.766 278.125H703.797L706 283.922H701.578Z" fill="#030811"/>
<rect x="768" y="61" width="128" height="160" fill="#7B95CB"/>
<path d="M769.125 253H774.266C776.641 253 778.078 251.797 778.078 249.766C778.078 248.359 777.391 247.406 776.125 247.047C777.156 246.594 777.75 245.703 777.75 244.469C777.75 242.625 776.406 241.5 774.062 241.5H769.125V253ZM771.422 251.219V248.078H773.969C775.234 248.078 775.812 248.562 775.812 249.641C775.812 250.688 775.219 251.219 773.953 251.219H771.422ZM771.422 246.281V243.281H773.656C774.891 243.281 775.484 243.766 775.484 244.766C775.484 245.766 774.875 246.281 773.656 246.281H771.422ZM779.922 253H782.297V240.734H779.922V253ZM787.562 253.172C788.75 253.172 789.656 252.656 790.25 251.766V253H792.547V244.375H790.188V249.25C790.188 250.516 789.406 251.312 788.266 251.312C787.312 251.312 786.812 250.828 786.812 249.562V244.375H784.453V249.625C784.453 252.047 785.469 253.172 787.562 253.172ZM799.141 253.172C800.453 253.172 801.797 252.766 802.594 252.062L801.906 250.5C801.188 251.109 800.188 251.375 799.234 251.375C797.594 251.375 796.75 250.688 796.609 249.188H802.703V248.578C802.703 245.891 801.188 244.203 798.703 244.203C796.094 244.203 794.297 246.047 794.297 248.703C794.297 251.531 796.172 253.172 799.141 253.172ZM796.609 247.938C796.766 246.547 797.531 245.844 798.766 245.844C799.938 245.844 800.609 246.516 800.688 247.938H796.609ZM804.281 249.172H809.047V247.359H804.281V249.172ZM814.734 253.125C817.312 253.125 818.969 251.891 818.969 249.875C818.969 248.469 818.203 247.469 816.844 247.094C818 246.672 818.672 245.734 818.672 244.422C818.672 242.578 817.172 241.359 814.844 241.359C813.344 241.359 811.812 241.828 810.891 242.656L811.609 244.359C812.656 243.625 813.734 243.203 814.688 243.203C815.812 243.203 816.422 243.766 816.422 244.719C816.422 245.75 815.75 246.266 814.359 246.266H813.031V248.094H814.625C816.078 248.094 816.703 248.578 816.703 249.656C816.703 250.766 816.062 251.266 814.641 251.266C813.578 251.266 812.484 250.875 811.453 250.125L810.719 251.828C811.625 252.672 813.172 253.125 814.734 253.125ZM824.797 253.141C827.562 253.141 829.062 251.062 829.062 247.234C829.062 243.484 827.562 241.391 824.797 241.391C822.078 241.391 820.547 243.484 820.547 247.234C820.547 251.062 822.078 253.141 824.797 253.141ZM822.844 247.234C822.844 244.438 823.453 243.203 824.797 243.203C826.156 243.203 826.766 244.422 826.766 247.234C826.766 250.078 826.156 251.328 824.797 251.328C823.453 251.328 822.844 250.078 822.844 247.234ZM834.594 253.141C837.359 253.141 838.859 251.062 838.859 247.234C838.859 243.484 837.359 241.391 834.594 241.391C831.875 241.391 830.344 243.484 830.344 247.234C830.344 251.062 831.875 253.141 834.594 253.141ZM832.641 247.234C832.641 244.438 833.25 243.203 834.594 243.203C835.953 243.203 836.562 244.422 836.562 247.234C836.562 250.078 835.953 251.328 834.594 251.328C833.25 251.328 832.641 250.078 832.641 247.234Z" fill="#030811"/>
<path d="M769.375 288H770.438L770.969 285.047H773.422L772.875 288H773.938L774.484 285.047H776.562V284.062H774.656L775.359 280.312H776.875V279.312H775.547L776.062 276.5H775L774.484 279.312H772.031L772.547 276.5H771.5L770.984 279.312H768.891V280.312H770.797L770.094 284.062H768.578V285.047H769.922L769.375 288ZM771.156 284.062L771.844 280.312H774.297L773.609 284.062H771.156ZM780.797 288L786.156 277.562V276.5H778.547V277.672H784.609L779.281 288H780.797ZM788.594 288H793.203C795.531 288 796.875 286.859 796.875 284.844C796.875 283.391 796.125 282.422 794.859 282.094C795.938 281.672 796.578 280.75 796.578 279.484C796.578 277.594 795.266 276.5 792.984 276.5H788.594V288ZM789.969 286.859V282.734H793.078C794.719 282.734 795.5 283.391 795.5 284.797C795.5 286.203 794.703 286.859 793.062 286.859H789.969ZM789.969 281.609V277.641H792.781C794.375 277.641 795.188 278.297 795.188 279.609C795.188 280.906 794.359 281.609 792.781 281.609H789.969ZM802.375 276.375C800.203 276.375 798.656 277.938 798.656 280.094C798.656 282.266 800.125 283.734 802.25 283.734C803.672 283.734 804.859 282.984 805.344 281.766V282C805.344 285.172 804.219 286.953 802.234 286.953C801.25 286.953 800.281 286.562 799.203 285.641L798.672 286.719C799.656 287.625 800.938 288.125 802.281 288.125C805.078 288.125 806.734 285.844 806.734 281.969C806.734 278.375 805.188 276.375 802.375 276.375ZM800.062 280.062C800.062 278.531 801 277.547 802.453 277.547C803.953 277.547 804.953 278.547 804.953 280.062C804.953 281.547 803.953 282.547 802.453 282.547C801.016 282.547 800.062 281.578 800.062 280.062ZM812.703 288.109C815.109 288.109 816.625 286.609 816.625 284.391C816.625 282.234 815.25 280.766 813.047 280.766C812.109 280.766 811.297 280.906 810.688 281.141L810.984 277.656H816.172V276.5H809.766L809.234 282.5H810.188C810.828 282.125 811.719 281.922 812.797 281.922C814.297 281.922 815.234 282.938 815.234 284.438C815.234 285.984 814.312 286.938 812.703 286.938C811.562 286.938 810.484 286.484 809.438 285.625L808.922 286.703C809.859 287.578 811.312 288.109 812.703 288.109ZM823.453 277.594C824.734 277.594 825.688 278.016 826.641 278.891L827.141 277.766C826.281 276.844 824.953 276.344 823.453 276.344C820.328 276.344 818.391 278.594 818.391 282.234C818.391 285.891 820.344 288.156 823.453 288.156C824.953 288.156 826.281 287.641 827.141 286.734L826.641 285.594C825.688 286.469 824.719 286.906 823.453 286.906C821.156 286.906 819.875 285.219 819.875 282.234C819.875 279.266 821.156 277.594 823.453 277.594ZM829.188 288H833.797C836.125 288 837.469 286.859 837.469 284.844C837.469 283.391 836.719 282.422 835.453 282.094C836.531 281.672 837.172 280.75 837.172 279.484C837.172 277.594 835.859 276.5 833.578 276.5H829.188V288ZM830.562 286.859V282.734H833.672C835.312 282.734 836.094 283.391 836.094 284.797C836.094 286.203 835.297 286.859 833.656 286.859H830.562ZM830.562 281.609V277.641H833.375C834.969 277.641 835.781 278.297 835.781 279.609C835.781 280.906 834.953 281.609 833.375 281.609H830.562Z" fill="#030811"/>
<rect x="896" y="61" width="128" height="160" fill="#A7B9DD"/>
<path d="M897.125 253H902.266C904.641 253 906.078 251.797 906.078 249.766C906.078 248.359 905.391 247.406 904.125 247.047C905.156 246.594 905.75 245.703 905.75 244.469C905.75 242.625 904.406 241.5 902.062 241.5H897.125V253ZM899.422 251.219V248.078H901.969C903.234 248.078 903.812 248.562 903.812 249.641C903.812 250.688 903.219 251.219 901.953 251.219H899.422ZM899.422 246.281V243.281H901.656C902.891 243.281 903.484 243.766 903.484 244.766C903.484 245.766 902.875 246.281 901.656 246.281H899.422ZM907.922 253H910.297V240.734H907.922V253ZM915.562 253.172C916.75 253.172 917.656 252.656 918.25 251.766V253H920.547V244.375H918.188V249.25C918.188 250.516 917.406 251.312 916.266 251.312C915.312 251.312 914.812 250.828 914.812 249.562V244.375H912.453V249.625C912.453 252.047 913.469 253.172 915.562 253.172ZM927.141 253.172C928.453 253.172 929.797 252.766 930.594 252.062L929.906 250.5C929.188 251.109 928.188 251.375 927.234 251.375C925.594 251.375 924.75 250.688 924.609 249.188H930.703V248.578C930.703 245.891 929.188 244.203 926.703 244.203C924.094 244.203 922.297 246.047 922.297 248.703C922.297 251.531 924.172 253.172 927.141 253.172ZM924.609 247.938C924.766 246.547 925.531 245.844 926.766 245.844C927.938 245.844 928.609 246.516 928.688 247.938H924.609ZM932.281 249.172H937.047V247.359H932.281V249.172ZM939.25 253H947.078V251.078H942.172L944.844 248.25C946.172 246.922 946.672 245.859 946.672 244.484C946.672 242.594 945.172 241.359 942.828 241.359C941.359 241.359 939.797 241.859 938.891 242.656L939.609 244.359C940.688 243.625 941.75 243.203 942.703 243.203C943.781 243.203 944.375 243.688 944.375 244.672C944.375 245.438 943.953 246.234 943.094 247.125L939.25 251.266V253ZM952.812 253.141C955.578 253.141 957.078 251.062 957.078 247.234C957.078 243.484 955.578 241.391 952.812 241.391C950.094 241.391 948.562 243.484 948.562 247.234C948.562 251.062 950.094 253.141 952.812 253.141ZM950.859 247.234C950.859 244.438 951.469 243.203 952.812 243.203C954.172 243.203 954.781 244.422 954.781 247.234C954.781 250.078 954.172 251.328 952.812 251.328C951.469 251.328 950.859 250.078 950.859 247.234ZM962.609 253.141C965.375 253.141 966.875 251.062 966.875 247.234C966.875 243.484 965.375 241.391 962.609 241.391C959.891 241.391 958.359 243.484 958.359 247.234C958.359 251.062 959.891 253.141 962.609 253.141ZM960.656 247.234C960.656 244.438 961.266 243.203 962.609 243.203C963.969 243.203 964.578 244.422 964.578 247.234C964.578 250.078 963.969 251.328 962.609 251.328C961.266 251.328 960.656 250.078 960.656 247.234Z" fill="#030811"/>
<path d="M897.375 288H898.438L898.969 285.047H901.422L900.875 288H901.938L902.484 285.047H904.562V284.062H902.656L903.359 280.312H904.875V279.312H903.547L904.062 276.5H903L902.484 279.312H900.031L900.547 276.5H899.5L898.984 279.312H896.891V280.312H898.797L898.094 284.062H896.578V285.047H897.922L897.375 288ZM899.156 284.062L899.844 280.312H902.297L901.609 284.062H899.156ZM905.719 288H907.172L908.281 285.078H913.578L914.703 288H916.172L911.547 276.5H910.344L905.719 288ZM908.734 283.922L910.922 278.125H910.953L913.156 283.922H908.734ZM919.781 288L925.141 277.562V276.5H917.531V277.672H923.594L918.266 288H919.781ZM927.578 288H932.188C934.516 288 935.859 286.859 935.859 284.844C935.859 283.391 935.109 282.422 933.844 282.094C934.922 281.672 935.562 280.75 935.562 279.484C935.562 277.594 934.25 276.5 931.969 276.5H927.578V288ZM928.953 286.859V282.734H932.062C933.703 282.734 934.484 283.391 934.484 284.797C934.484 286.203 933.688 286.859 932.047 286.859H928.953ZM928.953 281.609V277.641H931.766C933.359 277.641 934.172 278.297 934.172 279.609C934.172 280.906 933.344 281.609 931.766 281.609H928.953ZM941.359 276.375C939.188 276.375 937.641 277.938 937.641 280.094C937.641 282.266 939.109 283.734 941.234 283.734C942.656 283.734 943.844 282.984 944.328 281.766V282C944.328 285.172 943.203 286.953 941.219 286.953C940.234 286.953 939.266 286.562 938.188 285.641L937.656 286.719C938.641 287.625 939.922 288.125 941.266 288.125C944.062 288.125 945.719 285.844 945.719 281.969C945.719 278.375 944.172 276.375 941.359 276.375ZM939.047 280.062C939.047 278.531 939.984 277.547 941.438 277.547C942.938 277.547 943.938 278.547 943.938 280.062C943.938 281.547 942.938 282.547 941.438 282.547C940 282.547 939.047 281.578 939.047 280.062ZM947.906 288H951.547C954.969 288 956.844 285.984 956.844 282.234C956.844 278.5 954.969 276.5 951.547 276.5H947.906V288ZM949.328 286.766V277.719H951.438C954.094 277.719 955.344 279.172 955.344 282.234C955.344 285.312 954.094 286.766 951.438 286.766H949.328ZM959.031 288H962.672C966.094 288 967.969 285.984 967.969 282.234C967.969 278.5 966.094 276.5 962.672 276.5H959.031V288ZM960.453 286.766V277.719H962.562C965.219 277.719 966.469 279.172 966.469 282.234C966.469 285.312 965.219 286.766 962.562 286.766H960.453Z" fill="#030811"/>
<rect x="1024" y="61" width="128" height="160" fill="#E9EDF6"/>
<path d="M1025.12 253H1030.27C1032.64 253 1034.08 251.797 1034.08 249.766C1034.08 248.359 1033.39 247.406 1032.12 247.047C1033.16 246.594 1033.75 245.703 1033.75 244.469C1033.75 242.625 1032.41 241.5 1030.06 241.5H1025.12V253ZM1027.42 251.219V248.078H1029.97C1031.23 248.078 1031.81 248.562 1031.81 249.641C1031.81 250.688 1031.22 251.219 1029.95 251.219H1027.42ZM1027.42 246.281V243.281H1029.66C1030.89 243.281 1031.48 243.766 1031.48 244.766C1031.48 245.766 1030.88 246.281 1029.66 246.281H1027.42ZM1035.92 253H1038.3V240.734H1035.92V253ZM1043.56 253.172C1044.75 253.172 1045.66 252.656 1046.25 251.766V253H1048.55V244.375H1046.19V249.25C1046.19 250.516 1045.41 251.312 1044.27 251.312C1043.31 251.312 1042.81 250.828 1042.81 249.562V244.375H1040.45V249.625C1040.45 252.047 1041.47 253.172 1043.56 253.172ZM1055.14 253.172C1056.45 253.172 1057.8 252.766 1058.59 252.062L1057.91 250.5C1057.19 251.109 1056.19 251.375 1055.23 251.375C1053.59 251.375 1052.75 250.688 1052.61 249.188H1058.7V248.578C1058.7 245.891 1057.19 244.203 1054.7 244.203C1052.09 244.203 1050.3 246.047 1050.3 248.703C1050.3 251.531 1052.17 253.172 1055.14 253.172ZM1052.61 247.938C1052.77 246.547 1053.53 245.844 1054.77 245.844C1055.94 245.844 1056.61 246.516 1056.69 247.938H1052.61ZM1060.28 249.172H1065.05V247.359H1060.28V249.172ZM1067.88 253H1075.22V251.078H1072.73V241.5H1071.06L1067.52 243.594L1068.39 245.312L1070.38 244.156V251.078H1067.88V253ZM1080.8 253.141C1083.56 253.141 1085.06 251.062 1085.06 247.234C1085.06 243.484 1083.56 241.391 1080.8 241.391C1078.08 241.391 1076.55 243.484 1076.55 247.234C1076.55 251.062 1078.08 253.141 1080.8 253.141ZM1078.84 247.234C1078.84 244.438 1079.45 243.203 1080.8 243.203C1082.16 243.203 1082.77 244.422 1082.77 247.234C1082.77 250.078 1082.16 251.328 1080.8 251.328C1079.45 251.328 1078.84 250.078 1078.84 247.234ZM1090.59 253.141C1093.36 253.141 1094.86 251.062 1094.86 247.234C1094.86 243.484 1093.36 241.391 1090.59 241.391C1087.88 241.391 1086.34 243.484 1086.34 247.234C1086.34 251.062 1087.88 253.141 1090.59 253.141ZM1088.64 247.234C1088.64 244.438 1089.25 243.203 1090.59 243.203C1091.95 243.203 1092.56 244.422 1092.56 247.234C1092.56 250.078 1091.95 251.328 1090.59 251.328C1089.25 251.328 1088.64 250.078 1088.64 247.234Z" fill="#030811"/>
<path d="M1025.38 288H1026.44L1026.97 285.047H1029.42L1028.88 288H1029.94L1030.48 285.047H1032.56V284.062H1030.66L1031.36 280.312H1032.88V279.312H1031.55L1032.06 276.5H1031L1030.48 279.312H1028.03L1028.55 276.5H1027.5L1026.98 279.312H1024.89V280.312H1026.8L1026.09 284.062H1024.58V285.047H1025.92L1025.38 288ZM1027.16 284.062L1027.84 280.312H1030.3L1029.61 284.062H1027.16ZM1034.8 288H1042.03V286.828H1036.17V282.75H1041.67V281.578H1036.17V277.672H1042.03V276.5H1034.8V288ZM1047.38 276.375C1045.2 276.375 1043.66 277.938 1043.66 280.094C1043.66 282.266 1045.12 283.734 1047.25 283.734C1048.67 283.734 1049.86 282.984 1050.34 281.766V282C1050.34 285.172 1049.22 286.953 1047.23 286.953C1046.25 286.953 1045.28 286.562 1044.2 285.641L1043.67 286.719C1044.66 287.625 1045.94 288.125 1047.28 288.125C1050.08 288.125 1051.73 285.844 1051.73 281.969C1051.73 278.375 1050.19 276.375 1047.38 276.375ZM1045.06 280.062C1045.06 278.531 1046 277.547 1047.45 277.547C1048.95 277.547 1049.95 278.547 1049.95 280.062C1049.95 281.547 1048.95 282.547 1047.45 282.547C1046.02 282.547 1045.06 281.578 1045.06 280.062ZM1053.98 288H1061.22V286.828H1055.36V282.75H1060.86V281.578H1055.36V277.672H1061.22V276.5H1053.98V288ZM1063.31 288H1066.95C1070.38 288 1072.25 285.984 1072.25 282.234C1072.25 278.5 1070.38 276.5 1066.95 276.5H1063.31V288ZM1064.73 286.766V277.719H1066.84C1069.5 277.719 1070.75 279.172 1070.75 282.234C1070.75 285.312 1069.5 286.766 1066.84 286.766H1064.73ZM1074.5 288H1075.91V282.781H1081.28V281.625H1075.91V277.672H1081.59V276.5H1074.5V288ZM1087.28 288.125C1089.44 288.125 1091 286.562 1091 284.391C1091 282.234 1089.53 280.766 1087.42 280.766C1086 280.766 1084.83 281.516 1084.33 282.719V282.5C1084.33 279.328 1085.44 277.547 1087.42 277.547C1088.41 277.547 1089.38 277.938 1090.45 278.859L1090.98 277.781C1090.02 276.859 1088.72 276.375 1087.38 276.375C1084.58 276.375 1082.91 278.641 1082.91 282.531C1082.91 286.125 1084.47 288.125 1087.28 288.125ZM1084.7 284.438C1084.7 282.953 1085.72 281.922 1087.19 281.922C1088.66 281.922 1089.61 282.922 1089.61 284.438C1089.61 285.969 1088.67 286.953 1087.2 286.953C1085.7 286.953 1084.7 285.953 1084.7 284.438Z" fill="#030811"/>
<path d="M768 51V30H1152V51" stroke="black"/>
<path d="M770.516 6.82812L771.625 4.6875L772.719 6.82812L773.625 6.29688L772.375 4.3125L774.703 4.42188V3.375L772.391 3.46875L773.625 1.48438L772.719 0.96875L771.625 3.10938L770.516 0.96875L769.625 1.48438L770.875 3.46875L768.547 3.375V4.42188L770.891 4.3125L769.625 6.29688L770.516 6.82812ZM787.906 0.09375H786.688V8.82812H787.906V0.09375ZM775.953 5.57812L776.094 6.57812C776.953 6.57812 778.031 6.5625 779.172 6.51562V8.79688H780.391V6.4375C781.453 6.35938 782.516 6.23438 783.484 6.04688L783.391 5.17188C781.047 5.54688 777.906 5.57812 775.953 5.57812ZM776.688 2.67188C776.688 3.95312 777.922 4.76562 779.766 4.76562C781.594 4.76562 782.828 3.95312 782.828 2.67188C782.828 1.39062 781.594 0.578125 779.766 0.578125C777.922 0.578125 776.688 1.39062 776.688 2.67188ZM777.844 2.67188C777.844 1.9375 778.594 1.48438 779.766 1.48438C780.922 1.48438 781.672 1.9375 781.672 2.67188C781.672 3.40625 780.922 3.85938 779.766 3.85938C778.594 3.85938 777.844 3.40625 777.844 2.67188ZM778.438 14.0156H787.906V9.34375H786.656V10.6719H779.688V9.34375H778.438V14.0156ZM779.688 13.0156V11.6562H786.656V13.0156H779.688ZM781.672 7.98438H784.156V8.79688H785.359V0.34375H784.156V7.09375H781.672V7.98438ZM802 0.09375H800.75V3.51562H797.938V4.5625H800.75V7.76562H802V0.09375ZM790.469 6.98438L791.109 8C792.781 7.375 794.078 6.07812 794.688 4.45312C795.281 5.90625 796.5 7.09375 798.078 7.67188L798.719 6.67188C796.688 5.95312 795.297 4.1875 795.297 2.35938V1.96875H798.406V0.9375H790.859V1.96875H794.016V2.35938C794.016 4.375 792.547 6.23438 790.469 6.98438ZM793 14.0156H802V8.4375H800.75V10.1875H794.25V8.4375H793V14.0156ZM794.25 12.9844V11.2031H800.75V12.9844H794.25ZM815.922 0.921875H806.422V1.96875H814.672V2.01562C814.672 3.23438 814.672 4.64062 814.297 6.57812H804.781V7.625H817.578V6.57812H815.562C815.922 4.65625 815.922 3.21875 815.922 2.01562V0.921875ZM806.469 13.8906H816.344V12.8438H807.734V9.21875H806.469V13.8906ZM823.984 2.29688V0.890625H822.734V2.34375C822.734 4.51562 821.312 6.40625 819.156 7.17188L819.828 8.20312C821.516 7.5625 822.797 6.26562 823.406 4.59375C824.016 6.0625 825.219 7.20312 826.75 7.78125L827.438 6.78125C825.391 6.07812 823.984 4.3125 823.984 2.29688ZM821.422 11.5312C821.422 13.2188 823.219 14.1719 826.125 14.1719C829.031 14.1719 830.828 13.2188 830.828 11.5312C830.828 9.84375 829.031 8.85938 826.125 8.85938C823.219 8.85938 821.422 9.84375 821.422 11.5312ZM822.688 11.5312C822.688 10.4844 823.984 9.875 826.125 9.875C828.266 9.875 829.562 10.4844 829.562 11.5312C829.562 12.5625 828.266 13.1719 826.125 13.1719C823.984 13.1719 822.688 12.5625 822.688 11.5312ZM826.406 4.14062H829.5V8.45312H830.766V0.09375H829.5V3.09375H826.406V4.14062ZM844.406 1.46875H837.922V10.6562H844.406V1.46875ZM839.156 9.625V2.5H843.172V9.625H839.156ZM847.391 14.2188H848.656V0.078125H847.391V14.2188ZM858.344 0.90625H852.125V6.67188H853.219C856.109 6.67188 857.812 6.57812 859.828 6.17188L859.672 5.15625C857.766 5.54688 856.109 5.64062 853.375 5.64062V1.92188H858.344V0.90625ZM853.484 8.9375H861.188V10.4062H853.531V14.0156H862.953V12.9844H854.766V11.3906H862.438V7.92188H853.484V8.9375ZM861.172 7.1875H862.438V4.125H864.531V3.0625H862.438V0.078125H861.172V7.1875Z" fill="#222222"/>
<defs>
<clipPath id="clip0_26_4275">
<rect width="24" height="24" fill="white" transform="translate(512 21)"/>
</clipPath>
</defs>
</svg>
