<svg width="1074" height="199" viewBox="0 0 1074 199" fill="none" xmlns="http://www.w3.org/2000/svg">
<rect y="130" width="1074" height="69" rx="8" fill="#234FA9"/>
<rect x="492.5" y="37.5" width="89" height="137" rx="7.5" stroke="#BEBEBE"/>
<rect x="605" y="37" width="90" height="138" rx="8" fill="white" fill-opacity="0.2"/>
<rect x="40" y="37" width="90" height="138" rx="8" fill="black" fill-opacity="0.9"/>
<rect x="718" y="37" width="90" height="138" rx="8" fill="white" fill-opacity="0.4"/>
<rect x="153" y="37" width="90" height="138" rx="8" fill="black" fill-opacity="0.6"/>
<rect x="831" y="37" width="90" height="138" rx="8" fill="white" fill-opacity="0.6"/>
<rect x="266" y="37" width="90" height="138" rx="8" fill="black" fill-opacity="0.4"/>
<rect x="944" y="37" width="90" height="138" rx="8" fill="white" fill-opacity="0.9"/>
<rect x="379" y="37" width="90" height="138" rx="8" fill="black" fill-opacity="0.2"/>
<path d="M25.9668 10H29.8223C31.6035 10 32.6816 9.09766 32.6816 7.57422C32.6816 6.51953 32.166 5.80469 31.2168 5.53516C31.9902 5.19531 32.4355 4.52734 32.4355 3.60156C32.4355 2.21875 31.4277 1.375 29.6699 1.375H25.9668V10ZM27.6895 8.66406V6.30859H29.5996C30.5488 6.30859 30.9824 6.67188 30.9824 7.48047C30.9824 8.26562 30.5371 8.66406 29.5879 8.66406H27.6895ZM27.6895 4.96094V2.71094H29.3652C30.291 2.71094 30.7363 3.07422 30.7363 3.82422C30.7363 4.57422 30.2793 4.96094 29.3652 4.96094H27.6895ZM34.0645 10H35.8457V0.800781H34.0645V10ZM39.6309 10.1289C40.5332 10.1289 41.1777 9.70703 41.4707 9.03906V10H43.1348V6.01562C43.1348 4.19922 42.1621 3.40234 40.2871 3.40234C39.3145 3.40234 38.1191 3.71875 37.4395 4.1875L37.9316 5.40625C38.6465 4.96094 39.4434 4.73828 40.2051 4.73828C41.0723 4.73828 41.4473 5.03125 41.4473 5.81641V6.17969H40.9199C38.0723 6.17969 37.1934 6.75391 37.1934 8.04297C37.1934 9.21484 38.166 10.1289 39.6309 10.1289ZM38.916 7.99609C38.916 7.39844 39.3613 7.10547 40.9316 7.10547H41.4473V7.49219C41.4473 8.37109 40.8145 8.89844 40.0059 8.89844C39.3145 8.89844 38.916 8.54688 38.916 7.99609ZM47.7988 10.1289C48.6543 10.1289 49.5332 9.87109 50.084 9.35547L49.5215 8.14844C49.0645 8.55859 48.4902 8.75781 47.9629 8.75781C46.8965 8.75781 46.2402 8.06641 46.2402 6.75391C46.2402 5.42969 46.8965 4.77344 47.9629 4.77344C48.5137 4.77344 49.0762 4.99609 49.5215 5.38281L50.084 4.17578C49.5566 3.68359 48.7012 3.40234 47.7988 3.40234C45.7832 3.40234 44.4121 4.59766 44.4121 6.74219C44.4121 8.88672 45.7598 10.1289 47.7988 10.1289ZM52.8145 8.48828L53.6816 7.57422L55.6152 10H57.6777L54.8066 6.37891L57.502 3.53125H55.2871L52.8145 6.14453V1.375H51.0332V10H52.8145V8.48828ZM63.0332 8.58203H64.2637V6.23828H66.5605V5.06641H64.2637V2.78125H63.0332V5.06641H60.748V6.23828H63.0332V8.58203ZM74.5527 10.1289C77.0137 10.1289 78.5957 8.40625 78.5957 5.67578C78.5957 2.95703 77.0137 1.24609 74.5527 1.24609C72.0918 1.24609 70.5098 2.96875 70.5098 5.67578C70.5098 8.39453 72.0918 10.1289 74.5527 10.1289ZM72.373 5.67578C72.373 3.80078 73.1582 2.74609 74.5527 2.74609C75.9473 2.74609 76.7441 3.8125 76.7441 5.67578C76.7441 7.55078 75.9473 8.62891 74.5527 8.62891C73.1582 8.62891 72.373 7.55078 72.373 5.67578ZM80.0371 12.2031H81.8066V9.09766C82.1816 9.75391 82.9434 10.1289 83.8457 10.1289C85.5801 10.1289 86.7168 8.875 86.7168 6.76562C86.7168 4.64453 85.5801 3.40234 83.8457 3.40234C82.9316 3.40234 82.1582 3.78906 81.7949 4.44531V3.53125H80.0371V12.2031ZM81.7949 6.76562C81.7949 5.38281 82.3809 4.76172 83.3418 4.76172C84.3027 4.76172 84.9238 5.40625 84.9238 6.76562C84.9238 8.13672 84.3027 8.78125 83.3418 8.78125C82.3809 8.78125 81.7949 8.13672 81.7949 6.76562ZM90.1621 10.1289C91.0645 10.1289 91.709 9.70703 92.002 9.03906V10H93.666V6.01562C93.666 4.19922 92.6934 3.40234 90.8184 3.40234C89.8457 3.40234 88.6504 3.71875 87.9707 4.1875L88.4629 5.40625C89.1777 4.96094 89.9746 4.73828 90.7363 4.73828C91.6035 4.73828 91.9785 5.03125 91.9785 5.81641V6.17969H91.4512C88.6035 6.17969 87.7246 6.75391 87.7246 8.04297C87.7246 9.21484 88.6973 10.1289 90.1621 10.1289ZM89.4473 7.99609C89.4473 7.39844 89.8926 7.10547 91.4629 7.10547H91.9785V7.49219C91.9785 8.37109 91.3457 8.89844 90.5371 8.89844C89.8457 8.89844 89.4473 8.54688 89.4473 7.99609ZM98.3301 10.1289C99.1855 10.1289 100.064 9.87109 100.615 9.35547L100.053 8.14844C99.5957 8.55859 99.0215 8.75781 98.4941 8.75781C97.4277 8.75781 96.7715 8.06641 96.7715 6.75391C96.7715 5.42969 97.4277 4.77344 98.4941 4.77344C99.0449 4.77344 99.6074 4.99609 100.053 5.38281L100.615 4.17578C100.088 3.68359 99.2324 3.40234 98.3301 3.40234C96.3145 3.40234 94.9434 4.59766 94.9434 6.74219C94.9434 8.88672 96.291 10.1289 98.3301 10.1289ZM101.576 2.47656H103.346V0.800781H101.576V2.47656ZM101.576 10H103.346V3.53125H101.576V10ZM107.986 10.1289C108.479 10.1289 109.018 10.0117 109.357 9.83594L109.111 8.53516C108.83 8.61719 108.561 8.6875 108.303 8.6875C107.518 8.6875 107.178 8.30078 107.178 7.53906V4.85547H109.111V3.53125H107.178V1.90234H105.396V3.53125H104.143V4.85547H105.396V7.62109C105.396 9.28516 106.252 10.1289 107.986 10.1289ZM114.654 3.53125L112.814 7.76172L110.986 3.53125H109.229L111.936 9.78906L111.83 10.0234C111.549 10.6562 111.326 10.9609 110.682 11.0195L110.049 11.0781L110.166 12.3555L110.764 12.3203C112.721 12.2031 112.99 11.418 113.705 9.76562L116.424 3.53125H114.654ZM122.412 1.26953C120.713 1.26953 119.494 2.5 119.494 4.17578C119.494 5.79297 120.596 6.95312 122.119 6.95312C123.021 6.95312 123.795 6.51953 124.158 5.82812C124.1 7.71484 123.42 8.72266 122.213 8.72266C121.592 8.72266 120.865 8.47656 120.08 7.85547L119.506 9.13281C120.209 9.77734 121.264 10.1055 122.307 10.1055C124.533 10.1055 125.893 8.40625 125.893 5.53516C125.893 2.80469 124.639 1.26953 122.412 1.26953ZM121.17 4.10547C121.17 3.21484 121.709 2.65234 122.518 2.65234C123.35 2.65234 123.9 3.22656 123.9 4.10547C123.9 4.98438 123.338 5.54688 122.518 5.54688C121.709 5.54688 121.17 4.98438 121.17 4.10547ZM130.053 10.1055C132.127 10.1055 133.252 8.54688 133.252 5.67578C133.252 2.86328 132.127 1.29297 130.053 1.29297C128.014 1.29297 126.865 2.86328 126.865 5.67578C126.865 8.54688 128.014 10.1055 130.053 10.1055ZM128.588 5.67578C128.588 3.57812 129.045 2.65234 130.053 2.65234C131.072 2.65234 131.529 3.56641 131.529 5.67578C131.529 7.80859 131.072 8.74609 130.053 8.74609C129.045 8.74609 128.588 7.80859 128.588 5.67578ZM137.471 10.3633L142.252 1.64453L141.15 1.01172L136.357 9.73047L137.471 10.3633ZM134.201 3.88281C134.201 5.52344 134.951 6.51953 136.311 6.51953C137.67 6.51953 138.443 5.52344 138.443 3.88281C138.443 2.24219 137.658 1.24609 136.311 1.24609C134.975 1.24609 134.201 2.21875 134.201 3.88281ZM135.572 3.88281C135.572 2.74609 135.83 2.33594 136.311 2.33594C136.791 2.33594 137.061 2.75781 137.061 3.88281C137.061 5.00781 136.791 5.44141 136.311 5.44141C135.83 5.44141 135.572 5.01953 135.572 3.88281ZM140.166 7.48047C140.166 9.13281 140.939 10.1289 142.311 10.1289C143.658 10.1289 144.432 9.13281 144.432 7.48047C144.432 5.86328 143.646 4.85547 142.311 4.85547C140.963 4.85547 140.166 5.82812 140.166 7.48047ZM141.561 7.48047C141.561 6.34375 141.818 5.94531 142.311 5.94531C142.779 5.94531 143.049 6.36719 143.049 7.48047C143.049 8.60547 142.779 9.05078 142.311 9.05078C141.818 9.05078 141.561 8.61719 141.561 7.48047Z" fill="#3D3E43"/>
<path d="M189.041 10.1055C190.729 10.1055 191.971 8.875 191.971 7.19922C191.971 5.58203 190.881 4.42188 189.357 4.42188C188.455 4.42188 187.682 4.84375 187.318 5.52344C187.377 3.64844 188.033 2.65234 189.229 2.65234C189.861 2.65234 190.588 2.89844 191.385 3.51953L191.971 2.24219C191.244 1.59766 190.201 1.26953 189.158 1.26953C186.932 1.26953 185.572 2.96875 185.572 5.82812C185.572 8.57031 186.826 10.1055 189.041 10.1055ZM187.564 7.26953C187.564 6.39062 188.115 5.79297 188.936 5.79297C189.756 5.79297 190.295 6.39062 190.295 7.26953C190.295 8.16016 189.768 8.72266 188.924 8.72266C188.127 8.72266 187.564 8.14844 187.564 7.26953ZM196.096 10.1055C198.17 10.1055 199.295 8.54688 199.295 5.67578C199.295 2.86328 198.17 1.29297 196.096 1.29297C194.057 1.29297 192.908 2.86328 192.908 5.67578C192.908 8.54688 194.057 10.1055 196.096 10.1055ZM194.631 5.67578C194.631 3.57812 195.088 2.65234 196.096 2.65234C197.115 2.65234 197.572 3.56641 197.572 5.67578C197.572 7.80859 197.115 8.74609 196.096 8.74609C195.088 8.74609 194.631 7.80859 194.631 5.67578ZM203.514 10.3633L208.295 1.64453L207.193 1.01172L202.4 9.73047L203.514 10.3633ZM200.244 3.88281C200.244 5.52344 200.994 6.51953 202.354 6.51953C203.713 6.51953 204.486 5.52344 204.486 3.88281C204.486 2.24219 203.701 1.24609 202.354 1.24609C201.018 1.24609 200.244 2.21875 200.244 3.88281ZM201.615 3.88281C201.615 2.74609 201.873 2.33594 202.354 2.33594C202.834 2.33594 203.104 2.75781 203.104 3.88281C203.104 5.00781 202.834 5.44141 202.354 5.44141C201.873 5.44141 201.615 5.01953 201.615 3.88281ZM206.209 7.48047C206.209 9.13281 206.982 10.1289 208.354 10.1289C209.701 10.1289 210.475 9.13281 210.475 7.48047C210.475 5.86328 209.689 4.85547 208.354 4.85547C207.006 4.85547 206.209 5.82812 206.209 7.48047ZM207.604 7.48047C207.604 6.34375 207.861 5.94531 208.354 5.94531C208.822 5.94531 209.092 6.36719 209.092 7.48047C209.092 8.60547 208.822 9.05078 208.354 9.05078C207.861 9.05078 207.604 8.61719 207.604 7.48047Z" fill="#3D3E43"/>
<path d="M302.217 10H303.939V8.35938H305.123V7.02344H303.939V1.375H302.521L298.561 7.08203V8.35938H302.217V10ZM300.178 7.02344L302.217 4.07031V7.02344H300.178ZM309.096 10.1055C311.17 10.1055 312.295 8.54688 312.295 5.67578C312.295 2.86328 311.17 1.29297 309.096 1.29297C307.057 1.29297 305.908 2.86328 305.908 5.67578C305.908 8.54688 307.057 10.1055 309.096 10.1055ZM307.631 5.67578C307.631 3.57812 308.088 2.65234 309.096 2.65234C310.115 2.65234 310.572 3.56641 310.572 5.67578C310.572 7.80859 310.115 8.74609 309.096 8.74609C308.088 8.74609 307.631 7.80859 307.631 5.67578ZM316.514 10.3633L321.295 1.64453L320.193 1.01172L315.4 9.73047L316.514 10.3633ZM313.244 3.88281C313.244 5.52344 313.994 6.51953 315.354 6.51953C316.713 6.51953 317.486 5.52344 317.486 3.88281C317.486 2.24219 316.701 1.24609 315.354 1.24609C314.018 1.24609 313.244 2.21875 313.244 3.88281ZM314.615 3.88281C314.615 2.74609 314.873 2.33594 315.354 2.33594C315.834 2.33594 316.104 2.75781 316.104 3.88281C316.104 5.00781 315.834 5.44141 315.354 5.44141C314.873 5.44141 314.615 5.01953 314.615 3.88281ZM319.209 7.48047C319.209 9.13281 319.982 10.1289 321.354 10.1289C322.701 10.1289 323.475 9.13281 323.475 7.48047C323.475 5.86328 322.689 4.85547 321.354 4.85547C320.006 4.85547 319.209 5.82812 319.209 7.48047ZM320.604 7.48047C320.604 6.34375 320.861 5.94531 321.354 5.94531C321.822 5.94531 322.092 6.36719 322.092 7.48047C322.092 8.60547 321.822 9.05078 321.354 9.05078C320.861 9.05078 320.604 8.61719 320.604 7.48047Z" fill="#3D3E43"/>
<path d="M411.93 10H417.801V8.55859H414.121L416.125 6.4375C417.121 5.44141 417.496 4.64453 417.496 3.61328C417.496 2.19531 416.371 1.26953 414.613 1.26953C413.512 1.26953 412.34 1.64453 411.66 2.24219L412.199 3.51953C413.008 2.96875 413.805 2.65234 414.52 2.65234C415.328 2.65234 415.773 3.01562 415.773 3.75391C415.773 4.32812 415.457 4.92578 414.812 5.59375L411.93 8.69922V10ZM422.102 10.1055C424.176 10.1055 425.301 8.54688 425.301 5.67578C425.301 2.86328 424.176 1.29297 422.102 1.29297C420.062 1.29297 418.914 2.86328 418.914 5.67578C418.914 8.54688 420.062 10.1055 422.102 10.1055ZM420.637 5.67578C420.637 3.57812 421.094 2.65234 422.102 2.65234C423.121 2.65234 423.578 3.56641 423.578 5.67578C423.578 7.80859 423.121 8.74609 422.102 8.74609C421.094 8.74609 420.637 7.80859 420.637 5.67578ZM429.52 10.3633L434.301 1.64453L433.199 1.01172L428.406 9.73047L429.52 10.3633ZM426.25 3.88281C426.25 5.52344 427 6.51953 428.359 6.51953C429.719 6.51953 430.492 5.52344 430.492 3.88281C430.492 2.24219 429.707 1.24609 428.359 1.24609C427.023 1.24609 426.25 2.21875 426.25 3.88281ZM427.621 3.88281C427.621 2.74609 427.879 2.33594 428.359 2.33594C428.84 2.33594 429.109 2.75781 429.109 3.88281C429.109 5.00781 428.84 5.44141 428.359 5.44141C427.879 5.44141 427.621 5.01953 427.621 3.88281ZM432.215 7.48047C432.215 9.13281 432.988 10.1289 434.359 10.1289C435.707 10.1289 436.48 9.13281 436.48 7.48047C436.48 5.86328 435.695 4.85547 434.359 4.85547C433.012 4.85547 432.215 5.82812 432.215 7.48047ZM433.609 7.48047C433.609 6.34375 433.867 5.94531 434.359 5.94531C434.828 5.94531 435.098 6.36719 435.098 7.48047C435.098 8.60547 434.828 9.05078 434.359 9.05078C433.867 9.05078 433.609 8.61719 433.609 7.48047Z" fill="#3D3E43"/>
<path d="M590.225 10H591.807L593.482 4.42188L595.158 10H596.752L599.354 1.375H597.537L595.896 7.05859L594.244 1.375H592.732L591.092 7.16406L589.428 1.375H587.6L590.225 10ZM600.314 10H602.084V6.33203C602.084 5.41797 602.682 4.79688 603.596 4.79688C604.311 4.79688 604.697 5.16016 604.697 6.14453V10H606.479V6.0625C606.479 4.23438 605.705 3.40234 604.193 3.40234C603.291 3.40234 602.529 3.77734 602.096 4.45703L602.084 1.375H600.314V10ZM608.107 2.47656H609.877V0.800781H608.107V2.47656ZM608.107 10H609.877V3.53125H608.107V10ZM614.518 10.1289C615.01 10.1289 615.549 10.0117 615.889 9.83594L615.643 8.53516C615.361 8.61719 615.092 8.6875 614.834 8.6875C614.049 8.6875 613.709 8.30078 613.709 7.53906V4.85547H615.643V3.53125H613.709V1.90234H611.928V3.53125H610.674V4.85547H611.928V7.62109C611.928 9.28516 612.783 10.1289 614.518 10.1289ZM619.967 10.1289C620.951 10.1289 621.959 9.82422 622.557 9.29688L622.041 8.125C621.502 8.58203 620.752 8.78125 620.037 8.78125C618.807 8.78125 618.174 8.26562 618.068 7.14062H622.639V6.68359C622.639 4.66797 621.502 3.40234 619.639 3.40234C617.682 3.40234 616.334 4.78516 616.334 6.77734C616.334 8.89844 617.74 10.1289 619.967 10.1289ZM618.068 6.20312C618.186 5.16016 618.76 4.63281 619.686 4.63281C620.564 4.63281 621.068 5.13672 621.127 6.20312H618.068ZM628.662 8.58203H629.893V6.23828H632.189V5.06641H629.893V2.78125H628.662V5.06641H626.377V6.23828H628.662V8.58203ZM640.182 10.1289C642.643 10.1289 644.225 8.40625 644.225 5.67578C644.225 2.95703 642.643 1.24609 640.182 1.24609C637.721 1.24609 636.139 2.96875 636.139 5.67578C636.139 8.39453 637.721 10.1289 640.182 10.1289ZM638.002 5.67578C638.002 3.80078 638.787 2.74609 640.182 2.74609C641.576 2.74609 642.373 3.8125 642.373 5.67578C642.373 7.55078 641.576 8.62891 640.182 8.62891C638.787 8.62891 638.002 7.55078 638.002 5.67578ZM645.666 12.2031H647.436V9.09766C647.811 9.75391 648.572 10.1289 649.475 10.1289C651.209 10.1289 652.346 8.875 652.346 6.76562C652.346 4.64453 651.209 3.40234 649.475 3.40234C648.561 3.40234 647.787 3.78906 647.424 4.44531V3.53125H645.666V12.2031ZM647.424 6.76562C647.424 5.38281 648.01 4.76172 648.971 4.76172C649.932 4.76172 650.553 5.40625 650.553 6.76562C650.553 8.13672 649.932 8.78125 648.971 8.78125C648.01 8.78125 647.424 8.13672 647.424 6.76562ZM655.791 10.1289C656.693 10.1289 657.338 9.70703 657.631 9.03906V10H659.295V6.01562C659.295 4.19922 658.322 3.40234 656.447 3.40234C655.475 3.40234 654.279 3.71875 653.6 4.1875L654.092 5.40625C654.807 4.96094 655.604 4.73828 656.365 4.73828C657.232 4.73828 657.607 5.03125 657.607 5.81641V6.17969H657.08C654.232 6.17969 653.354 6.75391 653.354 8.04297C653.354 9.21484 654.326 10.1289 655.791 10.1289ZM655.076 7.99609C655.076 7.39844 655.521 7.10547 657.092 7.10547H657.607V7.49219C657.607 8.37109 656.975 8.89844 656.166 8.89844C655.475 8.89844 655.076 8.54688 655.076 7.99609ZM663.959 10.1289C664.814 10.1289 665.693 9.87109 666.244 9.35547L665.682 8.14844C665.225 8.55859 664.65 8.75781 664.123 8.75781C663.057 8.75781 662.4 8.06641 662.4 6.75391C662.4 5.42969 663.057 4.77344 664.123 4.77344C664.674 4.77344 665.236 4.99609 665.682 5.38281L666.244 4.17578C665.717 3.68359 664.861 3.40234 663.959 3.40234C661.943 3.40234 660.572 4.59766 660.572 6.74219C660.572 8.88672 661.92 10.1289 663.959 10.1289ZM667.205 2.47656H668.975V0.800781H667.205V2.47656ZM667.205 10H668.975V3.53125H667.205V10ZM673.615 10.1289C674.107 10.1289 674.646 10.0117 674.986 9.83594L674.74 8.53516C674.459 8.61719 674.189 8.6875 673.932 8.6875C673.146 8.6875 672.807 8.30078 672.807 7.53906V4.85547H674.74V3.53125H672.807V1.90234H671.025V3.53125H669.771V4.85547H671.025V7.62109C671.025 9.28516 671.881 10.1289 673.615 10.1289ZM680.283 3.53125L678.443 7.76172L676.615 3.53125H674.857L677.564 9.78906L677.459 10.0234C677.178 10.6562 676.955 10.9609 676.311 11.0195L675.678 11.0781L675.795 12.3555L676.393 12.3203C678.35 12.2031 678.619 11.418 679.334 9.76562L682.053 3.53125H680.283ZM685.521 10H691.393V8.55859H687.713L689.717 6.4375C690.713 5.44141 691.088 4.64453 691.088 3.61328C691.088 2.19531 689.963 1.26953 688.205 1.26953C687.104 1.26953 685.932 1.64453 685.252 2.24219L685.791 3.51953C686.6 2.96875 687.396 2.65234 688.111 2.65234C688.92 2.65234 689.365 3.01562 689.365 3.75391C689.365 4.32812 689.049 4.92578 688.404 5.59375L685.521 8.69922V10ZM695.693 10.1055C697.768 10.1055 698.893 8.54688 698.893 5.67578C698.893 2.86328 697.768 1.29297 695.693 1.29297C693.654 1.29297 692.506 2.86328 692.506 5.67578C692.506 8.54688 693.654 10.1055 695.693 10.1055ZM694.229 5.67578C694.229 3.57812 694.686 2.65234 695.693 2.65234C696.713 2.65234 697.17 3.56641 697.17 5.67578C697.17 7.80859 696.713 8.74609 695.693 8.74609C694.686 8.74609 694.229 7.80859 694.229 5.67578ZM703.111 10.3633L707.893 1.64453L706.791 1.01172L701.998 9.73047L703.111 10.3633ZM699.842 3.88281C699.842 5.52344 700.592 6.51953 701.951 6.51953C703.311 6.51953 704.084 5.52344 704.084 3.88281C704.084 2.24219 703.299 1.24609 701.951 1.24609C700.615 1.24609 699.842 2.21875 699.842 3.88281ZM701.213 3.88281C701.213 2.74609 701.471 2.33594 701.951 2.33594C702.432 2.33594 702.701 2.75781 702.701 3.88281C702.701 5.00781 702.432 5.44141 701.951 5.44141C701.471 5.44141 701.213 5.01953 701.213 3.88281ZM705.807 7.48047C705.807 9.13281 706.58 10.1289 707.951 10.1289C709.299 10.1289 710.072 9.13281 710.072 7.48047C710.072 5.86328 709.287 4.85547 707.951 4.85547C706.604 4.85547 705.807 5.82812 705.807 7.48047ZM707.201 7.48047C707.201 6.34375 707.459 5.94531 707.951 5.94531C708.42 5.94531 708.689 6.36719 708.689 7.48047C708.689 8.60547 708.42 9.05078 707.951 9.05078C707.459 9.05078 707.201 8.61719 707.201 7.48047Z" fill="#3D3E43"/>
<path d="M523.006 159H524.623V153.609L526.756 157.688H527.752L529.896 153.574V159H531.525V150.375H530.037L527.283 155.742L524.518 150.375H523.006V159ZM535.357 159.129C536.26 159.129 536.904 158.707 537.197 158.039V159H538.861V155.016C538.861 153.199 537.889 152.402 536.014 152.402C535.041 152.402 533.846 152.719 533.166 153.188L533.658 154.406C534.373 153.961 535.17 153.738 535.932 153.738C536.799 153.738 537.174 154.031 537.174 154.816V155.18H536.646C533.799 155.18 532.92 155.754 532.92 157.043C532.92 158.215 533.893 159.129 535.357 159.129ZM534.643 156.996C534.643 156.398 535.088 156.105 536.658 156.105H537.174V156.492C537.174 157.371 536.541 157.898 535.732 157.898C535.041 157.898 534.643 157.547 534.643 156.996ZM540.49 151.477H542.26V149.801H540.49V151.477ZM540.49 159H542.26V152.531H540.49V159ZM543.9 159H545.67V155.332C545.67 154.418 546.268 153.797 547.182 153.797C547.896 153.797 548.283 154.16 548.283 155.145V159H550.064V155.062C550.064 153.234 549.291 152.402 547.779 152.402C546.854 152.402 546.092 152.789 545.646 153.492V152.531H543.9V159Z" fill="#E3E4E9"/>
<path d="M753.041 10.1055C754.729 10.1055 755.971 8.875 755.971 7.19922C755.971 5.58203 754.881 4.42188 753.357 4.42188C752.455 4.42188 751.682 4.84375 751.318 5.52344C751.377 3.64844 752.033 2.65234 753.229 2.65234C753.861 2.65234 754.588 2.89844 755.385 3.51953L755.971 2.24219C755.244 1.59766 754.201 1.26953 753.158 1.26953C750.932 1.26953 749.572 2.96875 749.572 5.82812C749.572 8.57031 750.826 10.1055 753.041 10.1055ZM751.564 7.26953C751.564 6.39062 752.115 5.79297 752.936 5.79297C753.756 5.79297 754.295 6.39062 754.295 7.26953C754.295 8.16016 753.768 8.72266 752.924 8.72266C752.127 8.72266 751.564 8.14844 751.564 7.26953ZM760.096 10.1055C762.17 10.1055 763.295 8.54688 763.295 5.67578C763.295 2.86328 762.17 1.29297 760.096 1.29297C758.057 1.29297 756.908 2.86328 756.908 5.67578C756.908 8.54688 758.057 10.1055 760.096 10.1055ZM758.631 5.67578C758.631 3.57812 759.088 2.65234 760.096 2.65234C761.115 2.65234 761.572 3.56641 761.572 5.67578C761.572 7.80859 761.115 8.74609 760.096 8.74609C759.088 8.74609 758.631 7.80859 758.631 5.67578ZM767.514 10.3633L772.295 1.64453L771.193 1.01172L766.4 9.73047L767.514 10.3633ZM764.244 3.88281C764.244 5.52344 764.994 6.51953 766.354 6.51953C767.713 6.51953 768.486 5.52344 768.486 3.88281C768.486 2.24219 767.701 1.24609 766.354 1.24609C765.018 1.24609 764.244 2.21875 764.244 3.88281ZM765.615 3.88281C765.615 2.74609 765.873 2.33594 766.354 2.33594C766.834 2.33594 767.104 2.75781 767.104 3.88281C767.104 5.00781 766.834 5.44141 766.354 5.44141C765.873 5.44141 765.615 5.01953 765.615 3.88281ZM770.209 7.48047C770.209 9.13281 770.982 10.1289 772.354 10.1289C773.701 10.1289 774.475 9.13281 774.475 7.48047C774.475 5.86328 773.689 4.85547 772.354 4.85547C771.006 4.85547 770.209 5.82812 770.209 7.48047ZM771.604 7.48047C771.604 6.34375 771.861 5.94531 772.354 5.94531C772.822 5.94531 773.092 6.36719 773.092 7.48047C773.092 8.60547 772.822 9.05078 772.354 9.05078C771.861 9.05078 771.604 8.61719 771.604 7.48047Z" fill="#3D3E43"/>
<path d="M867.217 10H868.939V8.35938H870.123V7.02344H868.939V1.375H867.521L863.561 7.08203V8.35938H867.217V10ZM865.178 7.02344L867.217 4.07031V7.02344H865.178ZM874.096 10.1055C876.17 10.1055 877.295 8.54688 877.295 5.67578C877.295 2.86328 876.17 1.29297 874.096 1.29297C872.057 1.29297 870.908 2.86328 870.908 5.67578C870.908 8.54688 872.057 10.1055 874.096 10.1055ZM872.631 5.67578C872.631 3.57812 873.088 2.65234 874.096 2.65234C875.115 2.65234 875.572 3.56641 875.572 5.67578C875.572 7.80859 875.115 8.74609 874.096 8.74609C873.088 8.74609 872.631 7.80859 872.631 5.67578ZM881.514 10.3633L886.295 1.64453L885.193 1.01172L880.4 9.73047L881.514 10.3633ZM878.244 3.88281C878.244 5.52344 878.994 6.51953 880.354 6.51953C881.713 6.51953 882.486 5.52344 882.486 3.88281C882.486 2.24219 881.701 1.24609 880.354 1.24609C879.018 1.24609 878.244 2.21875 878.244 3.88281ZM879.615 3.88281C879.615 2.74609 879.873 2.33594 880.354 2.33594C880.834 2.33594 881.104 2.75781 881.104 3.88281C881.104 5.00781 880.834 5.44141 880.354 5.44141C879.873 5.44141 879.615 5.01953 879.615 3.88281ZM884.209 7.48047C884.209 9.13281 884.982 10.1289 886.354 10.1289C887.701 10.1289 888.475 9.13281 888.475 7.48047C888.475 5.86328 887.689 4.85547 886.354 4.85547C885.006 4.85547 884.209 5.82812 884.209 7.48047ZM885.604 7.48047C885.604 6.34375 885.861 5.94531 886.354 5.94531C886.822 5.94531 887.092 6.36719 887.092 7.48047C887.092 8.60547 886.822 9.05078 886.354 9.05078C885.861 9.05078 885.604 8.61719 885.604 7.48047Z" fill="#3D3E43"/>
<path d="M976.93 10H982.801V8.55859H979.121L981.125 6.4375C982.121 5.44141 982.496 4.64453 982.496 3.61328C982.496 2.19531 981.371 1.26953 979.613 1.26953C978.512 1.26953 977.34 1.64453 976.66 2.24219L977.199 3.51953C978.008 2.96875 978.805 2.65234 979.52 2.65234C980.328 2.65234 980.773 3.01562 980.773 3.75391C980.773 4.32812 980.457 4.92578 979.812 5.59375L976.93 8.69922V10ZM987.102 10.1055C989.176 10.1055 990.301 8.54688 990.301 5.67578C990.301 2.86328 989.176 1.29297 987.102 1.29297C985.062 1.29297 983.914 2.86328 983.914 5.67578C983.914 8.54688 985.062 10.1055 987.102 10.1055ZM985.637 5.67578C985.637 3.57812 986.094 2.65234 987.102 2.65234C988.121 2.65234 988.578 3.56641 988.578 5.67578C988.578 7.80859 988.121 8.74609 987.102 8.74609C986.094 8.74609 985.637 7.80859 985.637 5.67578ZM994.52 10.3633L999.301 1.64453L998.199 1.01172L993.406 9.73047L994.52 10.3633ZM991.25 3.88281C991.25 5.52344 992 6.51953 993.359 6.51953C994.719 6.51953 995.492 5.52344 995.492 3.88281C995.492 2.24219 994.707 1.24609 993.359 1.24609C992.023 1.24609 991.25 2.21875 991.25 3.88281ZM992.621 3.88281C992.621 2.74609 992.879 2.33594 993.359 2.33594C993.84 2.33594 994.109 2.75781 994.109 3.88281C994.109 5.00781 993.84 5.44141 993.359 5.44141C992.879 5.44141 992.621 5.01953 992.621 3.88281ZM997.215 7.48047C997.215 9.13281 997.988 10.1289 999.359 10.1289C1000.71 10.1289 1001.48 9.13281 1001.48 7.48047C1001.48 5.86328 1000.7 4.85547 999.359 4.85547C998.012 4.85547 997.215 5.82812 997.215 7.48047ZM998.609 7.48047C998.609 6.34375 998.867 5.94531 999.359 5.94531C999.828 5.94531 1000.1 6.36719 1000.1 7.48047C1000.1 8.60547 999.828 9.05078 999.359 9.05078C998.867 9.05078 998.609 8.61719 998.609 7.48047Z" fill="#3D3E43"/>
</svg>
