<svg width="340" height="884" viewBox="0 0 340 884" fill="none" xmlns="http://www.w3.org/2000/svg">
<rect x="20" y="20" width="300" height="4" fill="#FF1392" fill-opacity="0.1"/>
<rect x="20" y="44" width="300" height="8" fill="#FF1392" fill-opacity="0.1"/>
<rect x="20" y="72" width="300" height="12" fill="#FF1392" fill-opacity="0.1"/>
<rect x="20" y="104" width="300" height="16" fill="#FF1392" fill-opacity="0.1"/>
<rect x="20" y="140" width="300" height="20" fill="#FF1392" fill-opacity="0.1"/>
<rect x="20" y="180" width="300" height="24" fill="#FF1392" fill-opacity="0.1"/>
<rect x="20" y="224" width="300" height="28" fill="#FF1392" fill-opacity="0.1"/>
<rect x="20" y="272" width="300" height="32" fill="#FF1392" fill-opacity="0.1"/>
<rect x="20" y="324" width="300" height="36" fill="#FF1392" fill-opacity="0.1"/>
<rect x="20" y="380" width="300" height="40" fill="#FF1392" fill-opacity="0.1"/>
<rect x="20" y="440" width="300" height="44" fill="#FF1392" fill-opacity="0.1"/>
<rect x="20" y="504" width="300" height="48" fill="#FF1392" fill-opacity="0.1"/>
<rect x="20" y="572" width="300" height="52" fill="#FF1392" fill-opacity="0.1"/>
<rect x="20" y="644" width="300" height="56" fill="#FF1392" fill-opacity="0.1"/>
<rect x="20" y="720" width="300" height="60" fill="#FF1392" fill-opacity="0.1"/>
<rect x="20" y="800" width="300" height="64" fill="#FF1392" fill-opacity="0.1"/>
</svg>
