<svg width="802" height="398" viewBox="0 0 802 398" fill="none" xmlns="http://www.w3.org/2000/svg">
<g clip-path="url(#clip0_26_4277)">
<rect width="768" height="323" transform="translate(34 75)" fill="white"/>
<rect x="50" y="75.0005" width="109.333" height="639" fill="#D32F2F" fill-opacity="0.1"/>
<rect x="175.333" y="75.0005" width="109.333" height="639" fill="#D32F2F" fill-opacity="0.1"/>
<rect x="300.667" y="75.0005" width="109.333" height="639" fill="#D32F2F" fill-opacity="0.1"/>
<rect x="426" y="75.0005" width="109.333" height="639" fill="#D32F2F" fill-opacity="0.1"/>
<rect x="551.333" y="75.0005" width="109.333" height="639" fill="#D32F2F" fill-opacity="0.1"/>
<rect x="676.667" y="75.0005" width="109.333" height="639" fill="#D32F2F" fill-opacity="0.1"/>
</g>
<path d="M34 71V48H42M50 71V48H42M42 48V30" stroke="#D32F2F"/>
<path d="M159 71V48H167M175 71V48H167M167 48V30" stroke="#D32F2F"/>
<path d="M301 69V46H355.5M410 69V46H355.5M355.5 46V28" stroke="#D32F2F"/>
<path d="M0.240234 20H2.34766V5.70508L8.16211 17.1055H9.60938L15.4238 5.62891V20H17.5312V1.3125H15.6016L8.92383 14.5918L2.19531 1.3125H0.240234V20ZM26.3418 20.2539C28.3984 20.2539 29.9219 19.2637 30.6582 17.7148V20H32.8418V10.8848C32.8418 7.20312 30.9375 5.73047 27.5352 5.73047C25.5547 5.73047 23.3203 6.36523 21.8984 7.38086L22.6602 9.05664C24.1328 8.04102 25.7578 7.55859 27.4844 7.55859C29.5918 7.55859 30.6328 8.44727 30.6328 10.707V11.9004H29.4395C23.168 11.9004 21.3398 13.0684 21.3398 15.8867C21.3398 18.4004 23.3965 20.2539 26.3418 20.2539ZM23.625 15.8359C23.625 14.0586 24.7676 13.3477 29.4648 13.3477H30.6328V14.4648C30.6328 16.9785 28.9316 18.5273 26.748 18.5273C24.8438 18.5273 23.625 17.4609 23.625 15.8359ZM37.1582 20H39.4941V11.7734C39.4941 9.41211 40.8906 8.01562 43.582 7.76172L45.0293 7.60938L44.8516 5.6543L44.0137 5.70508C41.7285 5.88281 40.1797 6.7207 39.3926 8.39648V5.98438H37.1582V20ZM53.5352 25.002C57.6992 25.002 59.8574 23.0215 59.8574 19.0605V5.98438H57.5723V8.37109C56.7344 6.66992 54.957 5.73047 52.7988 5.73047C48.9902 5.73047 46.5273 8.29492 46.5273 12.7129C46.5273 17.1055 48.9902 19.6953 52.7988 19.6953C55.0332 19.6953 56.8105 18.7051 57.623 16.9277V19.3398C57.623 21.8535 56.2012 23.1992 53.459 23.1992C51.4023 23.1992 49.7266 22.7422 48.0762 21.5742L47.3398 23.1992C48.9141 24.4434 51.0469 25.002 53.5352 25.002ZM48.8633 12.7129C48.8633 9.33594 50.5645 7.58398 53.2559 7.58398C55.8965 7.58398 57.5977 9.33594 57.5977 12.7129C57.5977 16.0645 55.8965 17.8418 53.2559 17.8418C50.5645 17.8418 48.8633 16.0645 48.8633 12.7129ZM64.2246 3.03906H66.5098V0.322266H64.2246V3.03906ZM64.2246 20H66.5098V5.98438H64.2246V20ZM70.8516 20H73.1367V11.9258C73.1367 9.33594 74.7871 7.60938 77.377 7.60938C79.5352 7.60938 80.6016 8.67578 80.6016 11.3672V20H82.8867V11.2402C82.8867 7.38086 81.1348 5.73047 77.9102 5.73047C75.7266 5.73047 74.0508 6.66992 73.1113 8.3457V5.98438H70.8516V20Z" fill="#111827"/>
<path d="M135.98 20.2539C140.703 20.2539 143.598 17.1562 143.598 12.002V10.2246H135.98V12.002H141.338C141.338 15.8613 139.484 18.2227 135.98 18.2227C132.248 18.2227 130.166 15.4805 130.166 10.6309C130.166 5.80664 132.248 3.08984 135.98 3.08984C138.062 3.08984 139.611 3.77539 141.16 5.19727L141.973 3.36914C140.576 1.87109 138.418 1.05859 135.98 1.05859C130.902 1.05859 127.754 4.71484 127.754 10.6309C127.754 16.5723 130.928 20.2539 135.98 20.2539ZM152.256 20.2539C154.363 20.2539 155.963 19.3145 156.877 17.6641V20H159.086V5.98438H156.826V14.0332C156.826 16.6484 155.176 18.3496 152.738 18.3496C150.631 18.3496 149.564 17.3086 149.564 14.6172V5.98438H147.279V14.7188C147.279 18.5527 149.006 20.2539 152.256 20.2539ZM168.988 20.2539C169.928 20.2539 170.994 20 171.527 19.6953L171.121 17.9688C170.588 18.1465 169.979 18.3242 169.318 18.3242C167.312 18.3242 166.424 17.2324 166.424 15.0996V7.73633H170.842V5.98438H166.424V2.4043H164.139V5.98438H161.371V7.73633H164.139V15.3281C164.139 18.5273 165.814 20.2539 168.988 20.2539ZM178.992 20.2539C179.932 20.2539 180.998 20 181.531 19.6953L181.125 17.9688C180.592 18.1465 179.982 18.3242 179.322 18.3242C177.316 18.3242 176.428 17.2324 176.428 15.0996V7.73633H180.846V5.98438H176.428V2.4043H174.143V5.98438H171.375V7.73633H174.143V15.3281C174.143 18.5273 175.818 20.2539 178.992 20.2539ZM189.834 20.2539C191.916 20.2539 194.023 19.5684 195.242 18.2734L194.43 16.7246C193.16 17.918 191.561 18.4004 189.91 18.4004C186.812 18.4004 185.035 16.8008 184.883 13.4492H195.42V12.5859C195.42 8.26953 193.16 5.73047 189.377 5.73047C185.391 5.73047 182.623 8.57422 182.623 13.043C182.623 17.6387 185.416 20.2539 189.834 20.2539ZM184.908 11.9766C185.188 9.08203 186.838 7.45703 189.428 7.45703C191.916 7.45703 193.312 8.95508 193.439 11.9766H184.908ZM198.746 20H201.082V11.7734C201.082 9.41211 202.479 8.01562 205.17 7.76172L206.617 7.60938L206.439 5.6543L205.602 5.70508C203.316 5.88281 201.768 6.7207 200.98 8.39648V5.98438H198.746V20Z" fill="#111827"/>
<path d="M313.957 3.08984C316.039 3.08984 317.588 3.77539 319.137 5.19727L319.949 3.36914C318.553 1.87109 316.395 1.05859 313.957 1.05859C308.879 1.05859 305.73 4.71484 305.73 10.6309C305.73 16.5723 308.904 20.2539 313.957 20.2539C316.395 20.2539 318.553 19.416 319.949 17.9434L319.137 16.0898C317.588 17.5117 316.014 18.2227 313.957 18.2227C310.225 18.2227 308.143 15.4805 308.143 10.6309C308.143 5.80664 310.225 3.08984 313.957 3.08984ZM329.09 20.2539C333.152 20.2539 335.742 17.5625 335.742 12.9668C335.742 8.39648 333.152 5.73047 329.09 5.73047C325.027 5.73047 322.412 8.39648 322.412 12.9668C322.412 17.5625 325.027 20.2539 329.09 20.2539ZM324.748 12.9668C324.748 9.36133 326.449 7.58398 329.09 7.58398C331.73 7.58398 333.432 9.36133 333.432 12.9668C333.432 16.5723 331.73 18.4004 329.09 18.4004C326.449 18.4004 324.748 16.5723 324.748 12.9668ZM339.271 20H341.557V0.322266H339.271V20ZM350.824 20.2539C352.932 20.2539 354.531 19.3145 355.445 17.6641V20H357.654V5.98438H355.395V14.0332C355.395 16.6484 353.744 18.3496 351.307 18.3496C349.199 18.3496 348.133 17.3086 348.133 14.6172V5.98438H345.848V14.7188C345.848 18.5527 347.574 20.2539 350.824 20.2539ZM362.098 20H364.383V11.9258C364.383 9.31055 365.855 7.60938 368.166 7.60938C370.121 7.60938 371.061 8.65039 371.061 11.3672V20H373.346V11.9258C373.346 9.31055 374.818 7.60938 377.154 7.60938C379.109 7.60938 380.023 8.65039 380.023 11.3672V20H382.334V11.2402C382.334 7.35547 380.684 5.73047 377.662 5.73047C375.504 5.73047 373.777 6.82227 372.965 8.52344C372.305 6.59375 370.883 5.73047 368.75 5.73047C366.744 5.73047 365.221 6.69531 364.357 8.32031V5.98438H362.098V20ZM386.676 20H388.961V11.9258C388.961 9.33594 390.611 7.60938 393.201 7.60938C395.359 7.60938 396.426 8.67578 396.426 11.3672V20H398.711V11.2402C398.711 7.38086 396.959 5.73047 393.734 5.73047C391.551 5.73047 389.875 6.66992 388.936 8.3457V5.98438H386.676V20Z" fill="#111827"/>
<defs>
<clipPath id="clip0_26_4277">
<rect width="768" height="323" fill="white" transform="translate(34 75)"/>
</clipPath>
</defs>
</svg>
