<svg width="796" height="340" viewBox="0 0 796 340" fill="none" xmlns="http://www.w3.org/2000/svg">
<rect x="20" y="20" width="4" height="300" fill="#FF1392" fill-opacity="0.1"/>
<rect x="44" y="20" width="8" height="300" fill="#FF1392" fill-opacity="0.1"/>
<rect x="72" y="20" width="12" height="300" fill="#FF1392" fill-opacity="0.1"/>
<rect x="104" y="20" width="16" height="300" fill="#FF1392" fill-opacity="0.1"/>
<rect x="140" y="20" width="20" height="300" fill="#FF1392" fill-opacity="0.1"/>
<rect x="180" y="20" width="24" height="300" fill="#FF1392" fill-opacity="0.1"/>
<rect x="224" y="20" width="28" height="300" fill="#FF1392" fill-opacity="0.1"/>
<rect x="272" y="20" width="32" height="300" fill="#FF1392" fill-opacity="0.1"/>
<rect x="324" y="20" width="36" height="300" fill="#FF1392" fill-opacity="0.1"/>
<rect x="380" y="20" width="40" height="300" fill="#FF1392" fill-opacity="0.1"/>
<rect x="440" y="20" width="44" height="300" fill="#FF1392" fill-opacity="0.1"/>
<rect x="504" y="20" width="48" height="300" fill="#FF1392" fill-opacity="0.1"/>
<rect x="572" y="20" width="52" height="300" fill="#FF1392" fill-opacity="0.1"/>
<rect x="644" y="20" width="56" height="300" fill="#FF1392" fill-opacity="0.1"/>
<rect x="720" y="20" width="60" height="300" fill="#FF1392" fill-opacity="0.1"/>
</svg>
