<svg width="922" height="500" viewBox="0 0 922 500" fill="none" xmlns="http://www.w3.org/2000/svg">
<g clip-path="url(#clip0_26_4277)">
<rect width="360" height="385" transform="translate(289 115)" fill="white"/>
<rect width="328" height="148" transform="translate(305 139)" fill="#E8E9FF"/>
<path d="M308.516 180H320.234C330.688 180 336.453 173.906 336.453 162.703C336.453 151.547 330.688 145.5 320.234 145.5H308.516V180ZM314.188 175.219V150.281H319.812C327.078 150.281 330.547 154.219 330.547 162.703C330.547 171.234 327.125 175.219 319.812 175.219H314.188ZM342.688 149.25H348.266V143.438H342.688V149.25ZM342.688 180H348.266V154.125H342.688V180ZM364.812 180.469C371.141 180.469 375.453 177.422 375.453 172.547C375.453 168.797 373.016 166.594 368.422 165.656L363.406 164.766C360.969 164.25 359.938 163.125 359.938 161.484C359.938 159.188 361.719 157.688 365.328 157.688C368.188 157.688 371 158.625 373.156 160.406L374.891 156.75C372.781 154.734 369.359 153.656 365.375 153.656C358.812 153.656 354.781 157.125 354.781 161.719C354.781 165.328 357.078 167.766 361.578 168.609L366.641 169.547C369.172 170.109 370.25 171.094 370.25 172.828C370.25 175.125 368.375 176.484 364.953 176.484C361.578 176.484 358.25 175.453 355.766 173.672L354.125 177.375C356.422 179.344 360.312 180.469 364.812 180.469ZM381.219 188.812H386.797V176.016C388.344 178.828 391.438 180.469 395.281 180.469C402.172 180.469 406.719 175.5 406.719 167.062C406.719 158.531 402.172 153.656 395.281 153.656C391.391 153.656 388.203 155.344 386.703 158.25V154.125H381.219V188.812ZM386.703 167.062C386.703 160.922 389.516 157.969 393.875 157.969C398.234 157.969 401.094 160.969 401.094 167.062C401.094 173.156 398.234 176.156 393.875 176.156C389.516 176.156 386.703 173.156 386.703 167.062ZM412.625 180H418.156V143.438H412.625V180ZM433.859 180.516C437.562 180.516 440.281 178.734 441.547 175.922V180H446.75V163.547C446.75 156.562 443.094 153.656 436.25 153.656C432.453 153.656 428.047 154.828 425.375 156.703L427.016 160.641C429.828 158.812 432.922 157.922 436.016 157.922C439.719 157.922 441.453 159.328 441.453 163.031V164.906H439.297C427.812 164.906 424.391 167.109 424.391 172.312C424.391 176.953 428.188 180.516 433.859 180.516ZM429.828 172.172C429.828 169.266 431.797 168.047 439.344 168.047H441.453V169.875C441.453 173.953 438.594 176.484 434.938 176.484C431.75 176.484 429.828 174.797 429.828 172.172ZM472.344 154.125L464.141 173.062L455.984 154.125H450.453L461.375 179.438L460.953 180.375C459.688 183.328 458.75 184.875 455.797 185.109L453.359 185.344L453.781 189.422L456.125 189.281C462.969 188.859 464.234 185.766 466.859 179.672L477.922 154.125H472.344ZM500.469 180H506V150.141H517.391V145.5H489.031V150.141H500.469V180ZM533.75 180.469C537.641 180.469 541.578 179.25 543.922 177L542.141 173.297C539.891 175.312 536.938 176.156 533.938 176.156C528.641 176.156 525.641 173.625 525.312 168.188H544.25V166.5C544.25 158.484 539.891 153.656 532.672 153.656C525.125 153.656 519.875 159 519.875 167.109C519.875 175.641 525.266 180.469 533.75 180.469ZM525.359 165.047C525.828 160.219 528.547 157.641 532.812 157.641C536.938 157.641 539.234 160.031 539.469 165.047H525.359ZM546.312 180H552.828L560.281 170.484L567.688 180H574.344L563.562 166.641L573.641 154.125H567.172L560.328 162.938L553.578 154.125H546.969L557 166.641L546.312 180ZM589.156 180.469C591.031 180.469 593.047 180 594.219 179.391L593.375 175.266C592.297 175.594 591.219 175.875 590.047 175.875C586.625 175.875 585.125 174.094 585.125 170.578V158.297H593.094V154.125H585.125V147.562H579.547V154.125H574.484V158.297H579.547V171C579.547 177.188 582.781 180.469 589.156 180.469ZM310.859 228H331.438V223.453H323.891V193.5H319.953L310.109 199.547L312.406 203.625L318.359 200.016V223.453H310.859V228Z" fill="#111827"/>
<rect x="305" y="235" width="328" height="16" fill="#FF1392" fill-opacity="0.1"/>
<path d="M306.465 268H311.348C315.703 268 318.105 265.461 318.105 260.793C318.105 256.145 315.703 253.625 311.348 253.625H306.465V268ZM308.828 266.008V255.617H311.172C314.199 255.617 315.645 257.258 315.645 260.793C315.645 264.348 314.219 266.008 311.172 266.008H308.828ZM320.703 255.188H323.027V252.766H320.703V255.188ZM320.703 268H323.027V257.219H320.703V268ZM329.922 268.195C332.559 268.195 334.355 266.926 334.355 264.895C334.355 263.332 333.34 262.414 331.426 262.023L329.336 261.652C328.32 261.438 327.891 260.969 327.891 260.285C327.891 259.328 328.633 258.703 330.137 258.703C331.328 258.703 332.5 259.094 333.398 259.836L334.121 258.312C333.242 257.473 331.816 257.023 330.156 257.023C327.422 257.023 325.742 258.469 325.742 260.383C325.742 261.887 326.699 262.902 328.574 263.254L330.684 263.645C331.738 263.879 332.188 264.289 332.188 265.012C332.188 265.969 331.406 266.535 329.98 266.535C328.574 266.535 327.188 266.105 326.152 265.363L325.469 266.906C326.426 267.727 328.047 268.195 329.922 268.195ZM336.758 271.672H339.082V266.34C339.727 267.512 341.016 268.195 342.617 268.195C345.488 268.195 347.383 266.125 347.383 262.609C347.383 259.055 345.488 257.023 342.617 257.023C340.996 257.023 339.668 257.727 339.043 258.938V257.219H336.758V271.672ZM339.043 262.609C339.043 260.051 340.215 258.82 342.031 258.82C343.848 258.82 345.039 260.07 345.039 262.609C345.039 265.148 343.848 266.398 342.031 266.398C340.215 266.398 339.043 265.148 339.043 262.609ZM349.844 268H352.148V252.766H349.844V268ZM358.691 268.215C360.234 268.215 361.367 267.473 361.895 266.301V268H364.062V261.145C364.062 258.234 362.539 257.023 359.688 257.023C358.105 257.023 356.27 257.512 355.156 258.293L355.84 259.934C357.012 259.172 358.301 258.801 359.59 258.801C361.133 258.801 361.855 259.387 361.855 260.93V261.711H360.957C356.172 261.711 354.746 262.629 354.746 264.797C354.746 266.73 356.328 268.215 358.691 268.215ZM357.012 264.738C357.012 263.527 357.832 263.02 360.977 263.02H361.855V263.781C361.855 265.48 360.664 266.535 359.141 266.535C357.812 266.535 357.012 265.832 357.012 264.738ZM374.727 257.219L371.309 265.109L367.91 257.219H365.605L370.156 267.766L369.98 268.156C369.453 269.387 369.062 270.031 367.832 270.129L366.816 270.227L366.992 271.926L367.969 271.867C370.82 271.691 371.348 270.402 372.441 267.863L377.051 257.219H374.727ZM386.445 268H388.75V255.559H393.496V253.625H381.68V255.559H386.445V268ZM400.312 268.195C401.934 268.195 403.574 267.688 404.551 266.75L403.809 265.207C402.871 266.047 401.641 266.398 400.391 266.398C398.184 266.398 396.934 265.344 396.797 263.078H404.688V262.375C404.688 259.035 402.871 257.023 399.863 257.023C396.719 257.023 394.531 259.25 394.531 262.629C394.531 266.184 396.777 268.195 400.312 268.195ZM396.816 261.77C397.012 259.758 398.145 258.684 399.922 258.684C401.641 258.684 402.598 259.68 402.695 261.77H396.816ZM405.547 268H408.262L411.367 264.035L414.453 268H417.227L412.734 262.434L416.934 257.219H414.238L411.387 260.891L408.574 257.219H405.82L410 262.434L405.547 268ZM423.398 268.195C424.18 268.195 425.02 268 425.508 267.746L425.156 266.027C424.707 266.164 424.258 266.281 423.77 266.281C422.344 266.281 421.719 265.539 421.719 264.074V258.957H425.039V257.219H421.719V254.484H419.395V257.219H417.285V258.957H419.395V264.25C419.395 266.828 420.742 268.195 423.398 268.195Z" fill="#111827"/>
<rect x="305" y="271" width="328" height="16" fill="#FF1392" fill-opacity="0.1"/>
<rect x="305" y="287" width="41.3333" height="32" rx="8" fill="#2E3092"/>
<path d="M324.094 296.625H322.659V301.15H320.047V297.609H318.639V300.754H315.631V297.609H314.196V306.086H320.047V302.312H322.659V309.148H324.094V296.625ZM315.631 304.924V301.889H318.639V304.924H315.631ZM337.575 303.475H326.282V304.623H337.575V303.475ZM327.69 308.875H336.413V307.713H329.125V305.402H327.69V308.875ZM327.731 302.504H336.317V301.396H329.167V300.303H335.92V299.236H329.167V298.17H336.235V297.062H327.731V302.504Z" fill="white"/>
<rect x="362.333" y="287" width="41.3333" height="32" rx="8" fill="#2E3092"/>
<path d="M381.428 296.625H379.992V301.15H377.381V297.609H375.973V300.754H372.965V297.609H371.529V306.086H377.381V302.312H379.992V309.148H381.428V296.625ZM372.965 304.924V301.889H375.973V304.924H372.965ZM394.908 303.475H383.615V304.623H394.908V303.475ZM385.023 308.875H393.746V307.713H386.459V305.402H385.023V308.875ZM385.064 302.504H393.65V301.396H386.5V300.303H393.254V299.236H386.5V298.17H393.568V297.062H385.064V302.504Z" fill="white"/>
<rect x="419.667" y="287" width="41.3333" height="32" rx="8" fill="#2E3092"/>
<path d="M438.761 296.625H437.325V301.15H434.714V297.609H433.306V300.754H430.298V297.609H428.862V306.086H434.714V302.312H437.325V309.148H438.761V296.625ZM430.298 304.924V301.889H433.306V304.924H430.298ZM452.241 303.475H440.948V304.623H452.241V303.475ZM442.356 308.875H451.079V307.713H443.792V305.402H442.356V308.875ZM442.397 302.504H450.983V301.396H443.833V300.303H450.587V299.236H443.833V298.17H450.901V297.062H442.397V302.504Z" fill="white"/>
<rect x="477" y="287" width="41.3333" height="32" rx="8" fill="#2E3092"/>
<path d="M496.094 296.625H494.659V301.15H492.047V297.609H490.639V300.754H487.631V297.609H486.196V306.086H492.047V302.312H494.659V309.148H496.094V296.625ZM487.631 304.924V301.889H490.639V304.924H487.631ZM509.575 303.475H498.282V304.623H509.575V303.475ZM499.69 308.875H508.413V307.713H501.125V305.402H499.69V308.875ZM499.731 302.504H508.317V301.396H501.167V300.303H507.92V299.236H501.167V298.17H508.235V297.062H499.731V302.504Z" fill="white"/>
<rect x="534.333" y="287" width="41.3333" height="32" rx="8" fill="#2E3092"/>
<path d="M553.428 296.625H551.992V301.15H549.381V297.609H547.973V300.754H544.965V297.609H543.529V306.086H549.381V302.312H551.992V309.148H553.428V296.625ZM544.965 304.924V301.889H547.973V304.924H544.965ZM566.908 303.475H555.615V304.623H566.908V303.475ZM557.023 308.875H565.746V307.713H558.459V305.402H557.023V308.875ZM557.064 302.504H565.65V301.396H558.5V300.303H565.254V299.236H558.5V298.17H565.568V297.062H557.064V302.504Z" fill="white"/>
<rect x="591.667" y="287" width="41.3333" height="32" rx="8" fill="#2E3092"/>
<path d="M610.761 296.625H609.325V301.15H606.714V297.609H605.306V300.754H602.298V297.609H600.862V306.086H606.714V302.312H609.325V309.148H610.761V296.625ZM602.298 304.924V301.889H605.306V304.924H602.298ZM624.241 303.475H612.948V304.623H624.241V303.475ZM614.356 308.875H623.079V307.713H615.792V305.402H614.356V308.875ZM614.397 302.504H622.983V301.396H615.833V300.303H622.587V299.236H615.833V298.17H622.901V297.062H614.397V302.504Z" fill="white"/>
<rect x="305" y="319" width="328" height="44" fill="#FF1392" fill-opacity="0.1"/>
<rect width="328" height="148" transform="translate(305 387)" fill="#E8E9FF"/>
<path d="M308.516 428H320.234C330.688 428 336.453 421.906 336.453 410.703C336.453 399.547 330.688 393.5 320.234 393.5H308.516V428ZM314.188 423.219V398.281H319.812C327.078 398.281 330.547 402.219 330.547 410.703C330.547 419.234 327.125 423.219 319.812 423.219H314.188ZM342.688 397.25H348.266V391.438H342.688V397.25ZM342.688 428H348.266V402.125H342.688V428ZM364.812 428.469C371.141 428.469 375.453 425.422 375.453 420.547C375.453 416.797 373.016 414.594 368.422 413.656L363.406 412.766C360.969 412.25 359.938 411.125 359.938 409.484C359.938 407.188 361.719 405.688 365.328 405.688C368.188 405.688 371 406.625 373.156 408.406L374.891 404.75C372.781 402.734 369.359 401.656 365.375 401.656C358.812 401.656 354.781 405.125 354.781 409.719C354.781 413.328 357.078 415.766 361.578 416.609L366.641 417.547C369.172 418.109 370.25 419.094 370.25 420.828C370.25 423.125 368.375 424.484 364.953 424.484C361.578 424.484 358.25 423.453 355.766 421.672L354.125 425.375C356.422 427.344 360.312 428.469 364.812 428.469ZM381.219 436.812H386.797V424.016C388.344 426.828 391.438 428.469 395.281 428.469C402.172 428.469 406.719 423.5 406.719 415.062C406.719 406.531 402.172 401.656 395.281 401.656C391.391 401.656 388.203 403.344 386.703 406.25V402.125H381.219V436.812ZM386.703 415.062C386.703 408.922 389.516 405.969 393.875 405.969C398.234 405.969 401.094 408.969 401.094 415.062C401.094 421.156 398.234 424.156 393.875 424.156C389.516 424.156 386.703 421.156 386.703 415.062ZM412.625 428H418.156V391.438H412.625V428ZM433.859 428.516C437.562 428.516 440.281 426.734 441.547 423.922V428H446.75V411.547C446.75 404.562 443.094 401.656 436.25 401.656C432.453 401.656 428.047 402.828 425.375 404.703L427.016 408.641C429.828 406.812 432.922 405.922 436.016 405.922C439.719 405.922 441.453 407.328 441.453 411.031V412.906H439.297C427.812 412.906 424.391 415.109 424.391 420.312C424.391 424.953 428.188 428.516 433.859 428.516ZM429.828 420.172C429.828 417.266 431.797 416.047 439.344 416.047H441.453V417.875C441.453 421.953 438.594 424.484 434.938 424.484C431.75 424.484 429.828 422.797 429.828 420.172ZM472.344 402.125L464.141 421.062L455.984 402.125H450.453L461.375 427.438L460.953 428.375C459.688 431.328 458.75 432.875 455.797 433.109L453.359 433.344L453.781 437.422L456.125 437.281C462.969 436.859 464.234 433.766 466.859 427.672L477.922 402.125H472.344ZM500.469 428H506V398.141H517.391V393.5H489.031V398.141H500.469V428ZM533.75 428.469C537.641 428.469 541.578 427.25 543.922 425L542.141 421.297C539.891 423.312 536.938 424.156 533.938 424.156C528.641 424.156 525.641 421.625 525.312 416.188H544.25V414.5C544.25 406.484 539.891 401.656 532.672 401.656C525.125 401.656 519.875 407 519.875 415.109C519.875 423.641 525.266 428.469 533.75 428.469ZM525.359 413.047C525.828 408.219 528.547 405.641 532.812 405.641C536.938 405.641 539.234 408.031 539.469 413.047H525.359ZM546.312 428H552.828L560.281 418.484L567.688 428H574.344L563.562 414.641L573.641 402.125H567.172L560.328 410.938L553.578 402.125H546.969L557 414.641L546.312 428ZM589.156 428.469C591.031 428.469 593.047 428 594.219 427.391L593.375 423.266C592.297 423.594 591.219 423.875 590.047 423.875C586.625 423.875 585.125 422.094 585.125 418.578V406.297H593.094V402.125H585.125V395.562H579.547V402.125H574.484V406.297H579.547V419C579.547 425.188 582.781 428.469 589.156 428.469ZM308.797 476H331.625V471.453H315.734L324.641 461.891C328.719 457.625 330.266 454.344 330.266 450.312C330.266 444.688 326.047 441.078 319.344 441.078C315.125 441.078 310.578 442.719 307.859 445.156L309.641 449.281C312.875 446.844 316.062 445.531 319.156 445.531C322.812 445.531 324.875 447.312 324.875 450.688C324.875 453.312 323.469 455.891 320.609 459.031L308.797 471.875V476Z" fill="#111827"/>
<rect x="305" y="483" width="328" height="16" fill="#FF1392" fill-opacity="0.1"/>
</g>
<path d="M633 0L633 500" stroke="#D32F2F"/>
<path d="M305 0L305 500" stroke="#D32F2F"/>
<path d="M922 139L-3.26633e-05 139" stroke="#D32F2F"/>
<path d="M2.46973 120H4.57715V105.705L10.3916 117.105H11.8389L17.6533 105.629V120H19.7607V101.312H17.8311L11.1533 114.592L4.4248 101.312H2.46973V120ZM28.5713 120.254C30.6279 120.254 32.1514 119.264 32.8877 117.715V120H35.0713V110.885C35.0713 107.203 33.167 105.73 29.7646 105.73C27.7842 105.73 25.5498 106.365 24.1279 107.381L24.8896 109.057C26.3623 108.041 27.9873 107.559 29.7139 107.559C31.8213 107.559 32.8623 108.447 32.8623 110.707V111.9H31.6689C25.3975 111.9 23.5693 113.068 23.5693 115.887C23.5693 118.4 25.626 120.254 28.5713 120.254ZM25.8545 115.836C25.8545 114.059 26.9971 113.348 31.6943 113.348H32.8623V114.465C32.8623 116.979 31.1611 118.527 28.9775 118.527C27.0732 118.527 25.8545 117.461 25.8545 115.836ZM39.3877 120H41.6729V111.926C41.6729 109.336 43.3232 107.609 45.9131 107.609C48.0713 107.609 49.1377 108.676 49.1377 111.367V120H51.4229V111.24C51.4229 107.381 49.6709 105.73 46.4463 105.73C44.2627 105.73 42.5869 106.67 41.6475 108.346V105.984H39.3877V120ZM60.6396 120.254C62.7471 120.254 64.3467 119.314 65.2607 117.664V120H67.4697V105.984H65.21V114.033C65.21 116.648 63.5596 118.35 61.1221 118.35C59.0146 118.35 57.9482 117.309 57.9482 114.617V105.984H55.6631V114.719C55.6631 118.553 57.3896 120.254 60.6396 120.254ZM76.6357 120.254C79.9365 120.254 82.1455 118.629 82.1455 116.115C82.1455 114.135 80.8506 112.967 78.3623 112.434L75.7471 111.951C74.2744 111.621 73.6396 110.91 73.6396 109.869C73.6396 108.447 74.7314 107.482 76.8896 107.482C78.4639 107.482 79.9111 108.016 81.0537 109.057L81.8662 107.508C80.7998 106.365 78.9717 105.73 76.8896 105.73C73.4873 105.73 71.4561 107.584 71.4561 109.971C71.4561 111.875 72.6494 113.17 75.0869 113.652L77.7021 114.16C79.3018 114.516 79.9365 115.15 79.9365 116.217C79.9365 117.639 78.7939 118.527 76.7119 118.527C74.8584 118.527 73.1572 117.969 71.8369 116.928L71.0752 118.502C72.2432 119.594 74.2998 120.254 76.6357 120.254ZM91.5146 120.254C93.3174 120.254 95.0947 119.619 96.2881 118.375L95.3994 116.775C94.333 117.893 92.9619 118.375 91.667 118.375C88.874 118.375 87.1475 116.471 87.1475 112.941C87.1475 109.387 88.874 107.584 91.667 107.584C93.0381 107.584 94.333 108.143 95.3994 109.209L96.2881 107.584C95.1455 106.416 93.4189 105.73 91.4893 105.73C87.5283 105.73 84.7861 108.244 84.7861 112.916C84.7861 117.562 87.4521 120.254 91.5146 120.254ZM98.9541 120H101.29V111.773C101.29 109.412 102.687 108.016 105.378 107.762L106.825 107.609L106.647 105.654L105.81 105.705C103.524 105.883 101.976 106.721 101.188 108.396V105.984H98.9541V120ZM109.187 103.039H111.472V100.322H109.187V103.039ZM109.187 120H111.472V105.984H109.187V120ZM115.813 124.773H118.099V117.588C118.937 119.264 120.663 120.254 122.847 120.254C126.63 120.254 129.093 117.588 129.093 112.967C129.093 108.371 126.63 105.73 122.847 105.73C120.688 105.73 118.962 106.67 118.099 108.371V105.984H115.813V124.773ZM118.073 112.967C118.073 109.361 119.774 107.584 122.39 107.584C125.03 107.584 126.731 109.387 126.731 112.967C126.731 116.572 125.03 118.4 122.39 118.4C119.774 118.4 118.073 116.572 118.073 112.967ZM138.081 120.254C139.021 120.254 140.087 120 140.62 119.695L140.214 117.969C139.681 118.146 139.071 118.324 138.411 118.324C136.405 118.324 135.517 117.232 135.517 115.1V107.736H139.935V105.984H135.517V102.404H133.231V105.984H130.464V107.736H133.231V115.328C133.231 118.527 134.907 120.254 138.081 120.254ZM155.981 120.254C160.704 120.254 163.599 117.156 163.599 112.002V110.225H155.981V112.002H161.339C161.339 115.861 159.485 118.223 155.981 118.223C152.249 118.223 150.167 115.48 150.167 110.631C150.167 105.807 152.249 103.09 155.981 103.09C158.063 103.09 159.612 103.775 161.161 105.197L161.974 103.369C160.577 101.871 158.419 101.059 155.981 101.059C150.903 101.059 147.755 104.715 147.755 110.631C147.755 116.572 150.929 120.254 155.981 120.254ZM167.331 120H169.667V111.773C169.667 109.412 171.063 108.016 173.755 107.762L175.202 107.609L175.024 105.654L174.187 105.705C171.901 105.883 170.353 106.721 169.565 108.396V105.984H167.331V120ZM177.563 103.039H179.849V100.322H177.563V103.039ZM177.563 120H179.849V105.984H177.563V120ZM189.548 120.254C191.706 120.254 193.458 119.289 194.321 117.537V120H196.581V101.312H194.296V108.371C193.433 106.67 191.655 105.73 189.548 105.73C185.79 105.73 183.327 108.371 183.327 112.967C183.327 117.588 185.815 120.254 189.548 120.254ZM185.663 112.967C185.663 109.361 187.364 107.584 190.005 107.584C192.646 107.584 194.347 109.361 194.347 112.967C194.347 116.572 192.646 118.4 190.005 118.4C187.364 118.4 185.663 116.572 185.663 112.967Z" fill="#111827"/>
<defs>
<clipPath id="clip0_26_4277">
<rect width="360" height="385" fill="white" transform="translate(289 115)"/>
</clipPath>
</defs>
</svg>
