<svg width="1783" height="925" viewBox="0 0 1783 925" fill="none" xmlns="http://www.w3.org/2000/svg">
<rect width="1783" height="602" transform="translate(0 323)" fill="white"/>
<rect width="1783" height="90" transform="translate(0 323)" fill="#636871"/>
<path d="M19.3867 375H22.3359V368.887C22.3359 367.363 23.332 366.328 24.8555 366.328C26.0469 366.328 26.6914 366.934 26.6914 368.574V375H29.6602V368.438C29.6602 365.391 28.3711 364.004 25.8516 364.004C24.3477 364.004 23.0781 364.629 22.3555 365.762L22.3359 360.625H19.3867V375ZM37.8438 375.215C39.4844 375.215 41.1641 374.707 42.1602 373.828L41.3008 371.875C40.4023 372.637 39.1523 372.969 37.9609 372.969C35.9102 372.969 34.8555 372.109 34.6797 370.234H42.2969V369.473C42.2969 366.113 40.4023 364.004 37.2969 364.004C34.0352 364.004 31.7891 366.309 31.7891 369.629C31.7891 373.164 34.1328 375.215 37.8438 375.215ZM34.6797 368.672C34.875 366.934 35.832 366.055 37.375 366.055C38.8398 366.055 39.6797 366.895 39.7773 368.672H34.6797ZM47.9219 375.215C49.4258 375.215 50.5 374.512 50.9883 373.398V375H53.7617V368.359C53.7617 365.332 52.1406 364.004 49.0156 364.004C47.3945 364.004 45.4023 364.531 44.2695 365.312L45.0898 367.344C46.2812 366.602 47.6094 366.23 48.8789 366.23C50.3242 366.23 50.9492 366.719 50.9492 368.027V368.633H50.0703C45.3242 368.633 43.8594 369.59 43.8594 371.738C43.8594 373.691 45.4805 375.215 47.9219 375.215ZM46.7305 371.66C46.7305 370.664 47.4727 370.176 50.0898 370.176H50.9492V370.82C50.9492 372.285 49.8945 373.164 48.5469 373.164C47.3945 373.164 46.7305 372.578 46.7305 371.66ZM60.6367 375.215C62.1602 375.215 63.4883 374.551 64.1133 373.418V375H67.0234V360.625H64.0547V365.723C63.3906 364.629 62.1016 364.004 60.6367 364.004C57.7852 364.004 55.8906 366.074 55.8906 369.609C55.8906 373.125 57.8047 375.215 60.6367 375.215ZM58.8789 369.59C58.8789 367.305 59.9141 366.25 61.5156 366.25C63.0977 366.25 64.1133 367.305 64.1133 369.59C64.1133 371.875 63.0977 372.949 61.5156 372.949C59.9141 372.949 58.8789 371.875 58.8789 369.59ZM75.2461 375.215C76.8867 375.215 78.5664 374.707 79.5625 373.828L78.7031 371.875C77.8047 372.637 76.5547 372.969 75.3633 372.969C73.3125 372.969 72.2578 372.109 72.082 370.234H79.6992V369.473C79.6992 366.113 77.8047 364.004 74.6992 364.004C71.4375 364.004 69.1914 366.309 69.1914 369.629C69.1914 373.164 71.5352 375.215 75.2461 375.215ZM72.082 368.672C72.2773 366.934 73.2344 366.055 74.7773 366.055C76.2422 366.055 77.082 366.895 77.1797 368.672H72.082ZM81.75 375H84.7578V369.16C84.7578 367.598 85.6172 366.777 87.4531 366.621L89.0742 366.445L88.8789 363.945L88.0195 364.023C86.3398 364.141 85.1875 364.805 84.6406 366.055V364.219H81.75V375Z" fill="white"/>
<rect width="1783" height="512" transform="translate(0 413)" fill="#E8E9FF"/>
<rect width="841.526" height="479" transform="translate(40 429)" fill="#0091EA"/>
<path d="M397.02 467.254C398.848 467.254 400.702 466.67 401.895 465.477L400.829 463.42C399.813 464.41 398.493 464.867 397.274 464.867C394.684 464.867 393.11 463.166 393.11 459.967C393.11 456.717 394.684 455.092 397.274 455.092C398.543 455.092 399.813 455.6 400.829 456.564L401.895 454.482C400.727 453.365 398.95 452.73 397.02 452.73C392.856 452.73 390.012 455.27 390.012 459.941C390.012 464.588 392.805 467.254 397.02 467.254ZM410.401 467.254C414.641 467.254 417.333 464.537 417.333 459.992C417.333 455.422 414.641 452.73 410.401 452.73C406.161 452.73 403.444 455.422 403.444 459.992C403.444 464.537 406.161 467.254 410.401 467.254ZM406.491 459.992C406.491 456.666 408.04 455.066 410.401 455.066C412.788 455.066 414.311 456.666 414.311 459.992C414.311 463.293 412.788 464.918 410.401 464.918C408.04 464.918 406.491 463.293 406.491 459.992ZM420.557 467H423.579V458.977C423.579 456.666 425.051 455.117 427.336 455.117C429.241 455.117 430.18 456.057 430.18 458.494V467H433.202V458.342C433.202 454.432 431.5 452.73 428.225 452.73C426.168 452.73 424.493 453.594 423.528 455.168V452.984H420.557V467ZM443.104 467.254C444.12 467.254 445.211 467 445.846 466.67L445.389 464.436C444.805 464.613 444.221 464.766 443.586 464.766C441.733 464.766 440.92 463.801 440.92 461.896V455.244H445.237V452.984H440.92V449.43H437.899V452.984H435.157V455.244H437.899V462.125C437.899 465.477 439.651 467.254 443.104 467.254ZM452.219 467.279C454.225 467.279 455.698 466.314 456.383 464.791V467H459.202V458.088C459.202 454.305 457.221 452.73 453.514 452.73C451.458 452.73 449.071 453.365 447.624 454.381L448.512 456.514C450.036 455.523 451.711 455.041 453.387 455.041C455.393 455.041 456.333 455.803 456.333 457.809V458.824H455.165C448.944 458.824 447.09 460.018 447.09 462.836C447.09 465.35 449.147 467.279 452.219 467.279ZM450.036 462.76C450.036 461.186 451.102 460.525 455.19 460.525H456.333V461.516C456.333 463.725 454.784 465.096 452.803 465.096C451.077 465.096 450.036 464.182 450.036 462.76ZM463.163 450.344H466.184V447.195H463.163V450.344ZM463.163 467H466.184V452.984H463.163V467ZM470.145 467H473.167V458.977C473.167 456.666 474.639 455.117 476.924 455.117C478.829 455.117 479.768 456.057 479.768 458.494V467H482.79V458.342C482.79 454.432 481.088 452.73 477.813 452.73C475.756 452.73 474.081 453.594 473.116 455.168V452.984H470.145V467ZM493.428 467.254C495.536 467.254 497.668 466.594 498.938 465.375L497.973 463.369C496.754 464.461 495.155 464.918 493.53 464.918C490.661 464.918 489.036 463.547 488.858 460.602H499.116V459.688C499.116 455.346 496.754 452.73 492.844 452.73C488.756 452.73 485.913 455.625 485.913 460.018C485.913 464.639 488.833 467.254 493.428 467.254ZM488.883 458.9C489.137 456.285 490.61 454.889 492.92 454.889C495.155 454.889 496.399 456.184 496.526 458.9H488.883ZM502.112 467H505.159V459.053C505.159 456.869 506.454 455.6 508.993 455.371L510.745 455.193L510.542 452.629L509.577 452.73C507.342 452.883 505.793 453.721 505.057 455.371V452.984H502.112V467ZM518.819 467H531.184V464.537H522.577L527.401 459.357C529.61 457.047 530.448 455.27 530.448 453.086C530.448 450.039 528.163 448.084 524.532 448.084C522.247 448.084 519.784 448.973 518.311 450.293L519.276 452.527C521.028 451.207 522.754 450.496 524.43 450.496C526.411 450.496 527.528 451.461 527.528 453.289C527.528 454.711 526.766 456.107 525.217 457.809L518.819 464.766V467Z" fill="white"/>
<rect x="71" y="486" width="779.526" height="406" fill="#00ADEF"/>
<path d="M421.314 700.254C425.402 700.254 427.967 698.121 427.967 694.973C427.967 692.434 426.393 690.961 423.016 690.174L420.324 689.59C418.166 689.107 417.252 688.143 417.252 686.492C417.252 684.41 418.902 683.064 421.543 683.064C423.574 683.064 425.225 683.725 426.697 685.07L427.484 683.293C426.062 681.871 423.93 681.059 421.543 681.059C417.607 681.059 414.941 683.293 414.941 686.619C414.941 689.285 416.516 690.859 419.664 691.57L422.355 692.18C424.717 692.713 425.682 693.551 425.682 695.1C425.682 697.029 424.26 698.248 421.314 698.248C418.877 698.248 417.049 697.562 415.348 696.242L414.561 698.096C416.211 699.441 418.572 700.254 421.314 700.254ZM437.514 700.254C439.596 700.254 441.703 699.568 442.922 698.273L442.109 696.725C440.84 697.918 439.24 698.4 437.59 698.4C434.492 698.4 432.715 696.801 432.562 693.449H443.1V692.586C443.1 688.27 440.84 685.73 437.057 685.73C433.07 685.73 430.303 688.574 430.303 693.043C430.303 697.639 433.096 700.254 437.514 700.254ZM432.588 691.977C432.867 689.082 434.518 687.457 437.107 687.457C439.596 687.457 440.992 688.955 441.119 691.977H432.588ZM452.291 700.254C454.094 700.254 455.871 699.619 457.064 698.375L456.176 696.775C455.109 697.893 453.738 698.375 452.443 698.375C449.65 698.375 447.924 696.471 447.924 692.941C447.924 689.387 449.65 687.584 452.443 687.584C453.814 687.584 455.109 688.143 456.176 689.209L457.064 687.584C455.922 686.416 454.195 685.73 452.266 685.73C448.305 685.73 445.562 688.244 445.562 692.916C445.562 697.562 448.229 700.254 452.291 700.254ZM465.24 700.254C466.18 700.254 467.246 700 467.779 699.695L467.373 697.969C466.84 698.146 466.23 698.324 465.57 698.324C463.564 698.324 462.676 697.232 462.676 695.1V687.736H467.094V685.984H462.676V682.404H460.391V685.984H457.623V687.736H460.391V695.328C460.391 698.527 462.066 700.254 465.24 700.254ZM469.734 683.039H472.02V680.322H469.734V683.039ZM469.734 700H472.02V685.984H469.734V700ZM482.176 700.254C486.238 700.254 488.828 697.562 488.828 692.967C488.828 688.396 486.238 685.73 482.176 685.73C478.113 685.73 475.498 688.396 475.498 692.967C475.498 697.562 478.113 700.254 482.176 700.254ZM477.834 692.967C477.834 689.361 479.535 687.584 482.176 687.584C484.816 687.584 486.518 689.361 486.518 692.967C486.518 696.572 484.816 698.4 482.176 698.4C479.535 698.4 477.834 696.572 477.834 692.967ZM492.357 700H494.643V691.926C494.643 689.336 496.293 687.609 498.883 687.609C501.041 687.609 502.107 688.676 502.107 691.367V700H504.393V691.24C504.393 687.381 502.641 685.73 499.416 685.73C497.232 685.73 495.557 686.67 494.617 688.346V685.984H492.357V700Z" fill="white"/>
<rect width="841.526" height="480" transform="translate(901.474 429)" fill="#0091EA"/>
<path d="M1259.78 467.254C1261.58 467.254 1263.36 466.619 1264.55 465.375L1263.66 463.775C1262.59 464.893 1261.22 465.375 1259.93 465.375C1257.14 465.375 1255.41 463.471 1255.41 459.941C1255.41 456.387 1257.14 454.584 1259.93 454.584C1261.3 454.584 1262.59 455.143 1263.66 456.209L1264.55 454.584C1263.41 453.416 1261.68 452.73 1259.75 452.73C1255.79 452.73 1253.05 455.244 1253.05 459.916C1253.05 464.562 1255.71 467.254 1259.78 467.254ZM1273.03 467.254C1277.09 467.254 1279.68 464.562 1279.68 459.967C1279.68 455.396 1277.09 452.73 1273.03 452.73C1268.97 452.73 1266.35 455.396 1266.35 459.967C1266.35 464.562 1268.97 467.254 1273.03 467.254ZM1268.69 459.967C1268.69 456.361 1270.39 454.584 1273.03 454.584C1275.67 454.584 1277.37 456.361 1277.37 459.967C1277.37 463.572 1275.67 465.4 1273.03 465.4C1270.39 465.4 1268.69 463.572 1268.69 459.967ZM1283.21 467H1285.5V458.926C1285.5 456.336 1287.15 454.609 1289.74 454.609C1291.9 454.609 1292.96 455.676 1292.96 458.367V467H1295.25V458.24C1295.25 454.381 1293.49 452.73 1290.27 452.73C1288.09 452.73 1286.41 453.67 1285.47 455.346V452.984H1283.21V467ZM1305.05 467.254C1305.99 467.254 1307.05 467 1307.59 466.695L1307.18 464.969C1306.65 465.146 1306.04 465.324 1305.38 465.324C1303.37 465.324 1302.48 464.232 1302.48 462.1V454.736H1306.9V452.984H1302.48V449.404H1300.2V452.984H1297.43V454.736H1300.2V462.328C1300.2 465.527 1301.87 467.254 1305.05 467.254ZM1313.93 467.254C1315.99 467.254 1317.51 466.264 1318.25 464.715V467H1320.43V457.885C1320.43 454.203 1318.53 452.73 1315.13 452.73C1313.15 452.73 1310.91 453.365 1309.49 454.381L1310.25 456.057C1311.73 455.041 1313.35 454.559 1315.08 454.559C1317.18 454.559 1318.23 455.447 1318.23 457.707V458.9H1317.03C1310.76 458.9 1308.93 460.068 1308.93 462.887C1308.93 465.4 1310.99 467.254 1313.93 467.254ZM1311.22 462.836C1311.22 461.059 1312.36 460.348 1317.06 460.348H1318.23V461.465C1318.23 463.979 1316.52 465.527 1314.34 465.527C1312.44 465.527 1311.22 464.461 1311.22 462.836ZM1324.75 450.039H1327.04V447.322H1324.75V450.039ZM1324.75 467H1327.04V452.984H1324.75V467ZM1331.38 467H1333.66V458.926C1333.66 456.336 1335.31 454.609 1337.9 454.609C1340.06 454.609 1341.13 455.676 1341.13 458.367V467H1343.41V458.24C1343.41 454.381 1341.66 452.73 1338.44 452.73C1336.25 452.73 1334.58 453.67 1333.64 455.346V452.984H1331.38V467ZM1354.05 467.254C1356.13 467.254 1358.24 466.568 1359.46 465.273L1358.65 463.725C1357.38 464.918 1355.78 465.4 1354.13 465.4C1351.03 465.4 1349.25 463.801 1349.1 460.449H1359.64V459.586C1359.64 455.27 1357.38 452.73 1353.59 452.73C1349.61 452.73 1346.84 455.574 1346.84 460.043C1346.84 464.639 1349.63 467.254 1354.05 467.254ZM1349.13 458.977C1349.4 456.082 1351.06 454.457 1353.65 454.457C1356.13 454.457 1357.53 455.955 1357.66 458.977H1349.13ZM1362.96 467H1365.3V458.773C1365.3 456.412 1366.7 455.016 1369.39 454.762L1370.83 454.609L1370.66 452.654L1369.82 452.705C1367.53 452.883 1365.98 453.721 1365.2 455.396V452.984H1362.96V467ZM1380.25 467H1390.77V465.07H1386.63V448.312H1385L1380.03 451.461L1381.09 453.162L1384.34 451.131V465.07H1380.25V467Z" fill="white"/>
<rect x="932.474" y="489" width="779.526" height="193" fill="#00ADEF"/>
<path d="M1282.79 594.254C1286.88 594.254 1289.44 592.121 1289.44 588.973C1289.44 586.434 1287.87 584.961 1284.49 584.174L1281.8 583.59C1279.64 583.107 1278.73 582.143 1278.73 580.492C1278.73 578.41 1280.38 577.064 1283.02 577.064C1285.05 577.064 1286.7 577.725 1288.17 579.07L1288.96 577.293C1287.54 575.871 1285.4 575.059 1283.02 575.059C1279.08 575.059 1276.42 577.293 1276.42 580.619C1276.42 583.285 1277.99 584.859 1281.14 585.57L1283.83 586.18C1286.19 586.713 1287.16 587.551 1287.16 589.1C1287.16 591.029 1285.73 592.248 1282.79 592.248C1280.35 592.248 1278.52 591.562 1276.82 590.242L1276.03 592.096C1277.68 593.441 1280.05 594.254 1282.79 594.254ZM1298.99 594.254C1301.07 594.254 1303.18 593.568 1304.4 592.273L1303.58 590.725C1302.31 591.918 1300.71 592.4 1299.06 592.4C1295.97 592.4 1294.19 590.801 1294.04 587.449H1304.57V586.586C1304.57 582.27 1302.31 579.73 1298.53 579.73C1294.54 579.73 1291.78 582.574 1291.78 587.043C1291.78 591.639 1294.57 594.254 1298.99 594.254ZM1294.06 585.977C1294.34 583.082 1295.99 581.457 1298.58 581.457C1301.07 581.457 1302.47 582.955 1302.59 585.977H1294.06ZM1313.76 594.254C1315.57 594.254 1317.34 593.619 1318.54 592.375L1317.65 590.775C1316.58 591.893 1315.21 592.375 1313.92 592.375C1311.12 592.375 1309.4 590.471 1309.4 586.941C1309.4 583.387 1311.12 581.584 1313.92 581.584C1315.29 581.584 1316.58 582.143 1317.65 583.209L1318.54 581.584C1317.4 580.416 1315.67 579.73 1313.74 579.73C1309.78 579.73 1307.04 582.244 1307.04 586.916C1307.04 591.562 1309.7 594.254 1313.76 594.254ZM1326.71 594.254C1327.65 594.254 1328.72 594 1329.25 593.695L1328.85 591.969C1328.31 592.146 1327.7 592.324 1327.04 592.324C1325.04 592.324 1324.15 591.232 1324.15 589.1V581.736H1328.57V579.984H1324.15V576.404H1321.86V579.984H1319.1V581.736H1321.86V589.328C1321.86 592.527 1323.54 594.254 1326.71 594.254ZM1331.21 577.039H1333.49V574.322H1331.21V577.039ZM1331.21 594H1333.49V579.984H1331.21V594ZM1343.65 594.254C1347.71 594.254 1350.3 591.562 1350.3 586.967C1350.3 582.396 1347.71 579.73 1343.65 579.73C1339.59 579.73 1336.97 582.396 1336.97 586.967C1336.97 591.562 1339.59 594.254 1343.65 594.254ZM1339.31 586.967C1339.31 583.361 1341.01 581.584 1343.65 581.584C1346.29 581.584 1347.99 583.361 1347.99 586.967C1347.99 590.572 1346.29 592.4 1343.65 592.4C1341.01 592.4 1339.31 590.572 1339.31 586.967ZM1353.83 594H1356.12V585.926C1356.12 583.336 1357.77 581.609 1360.36 581.609C1362.51 581.609 1363.58 582.676 1363.58 585.367V594H1365.87V585.24C1365.87 581.381 1364.11 579.73 1360.89 579.73C1358.71 579.73 1357.03 580.67 1356.09 582.346V579.984H1353.83V594Z" fill="white"/>
<rect x="932.474" y="700" width="779.526" height="193" fill="#00ADEF"/>
<path d="M1282.79 805.254C1286.88 805.254 1289.44 803.121 1289.44 799.973C1289.44 797.434 1287.87 795.961 1284.49 795.174L1281.8 794.59C1279.64 794.107 1278.73 793.143 1278.73 791.492C1278.73 789.41 1280.38 788.064 1283.02 788.064C1285.05 788.064 1286.7 788.725 1288.17 790.07L1288.96 788.293C1287.54 786.871 1285.4 786.059 1283.02 786.059C1279.08 786.059 1276.42 788.293 1276.42 791.619C1276.42 794.285 1277.99 795.859 1281.14 796.57L1283.83 797.18C1286.19 797.713 1287.16 798.551 1287.16 800.1C1287.16 802.029 1285.73 803.248 1282.79 803.248C1280.35 803.248 1278.52 802.562 1276.82 801.242L1276.03 803.096C1277.68 804.441 1280.05 805.254 1282.79 805.254ZM1298.99 805.254C1301.07 805.254 1303.18 804.568 1304.4 803.273L1303.58 801.725C1302.31 802.918 1300.71 803.4 1299.06 803.4C1295.97 803.4 1294.19 801.801 1294.04 798.449H1304.57V797.586C1304.57 793.27 1302.31 790.73 1298.53 790.73C1294.54 790.73 1291.78 793.574 1291.78 798.043C1291.78 802.639 1294.57 805.254 1298.99 805.254ZM1294.06 796.977C1294.34 794.082 1295.99 792.457 1298.58 792.457C1301.07 792.457 1302.47 793.955 1302.59 796.977H1294.06ZM1313.76 805.254C1315.57 805.254 1317.34 804.619 1318.54 803.375L1317.65 801.775C1316.58 802.893 1315.21 803.375 1313.92 803.375C1311.12 803.375 1309.4 801.471 1309.4 797.941C1309.4 794.387 1311.12 792.584 1313.92 792.584C1315.29 792.584 1316.58 793.143 1317.65 794.209L1318.54 792.584C1317.4 791.416 1315.67 790.73 1313.74 790.73C1309.78 790.73 1307.04 793.244 1307.04 797.916C1307.04 802.562 1309.7 805.254 1313.76 805.254ZM1326.71 805.254C1327.65 805.254 1328.72 805 1329.25 804.695L1328.85 802.969C1328.31 803.146 1327.7 803.324 1327.04 803.324C1325.04 803.324 1324.15 802.232 1324.15 800.1V792.736H1328.57V790.984H1324.15V787.404H1321.86V790.984H1319.1V792.736H1321.86V800.328C1321.86 803.527 1323.54 805.254 1326.71 805.254ZM1331.21 788.039H1333.49V785.322H1331.21V788.039ZM1331.21 805H1333.49V790.984H1331.21V805ZM1343.65 805.254C1347.71 805.254 1350.3 802.562 1350.3 797.967C1350.3 793.396 1347.71 790.73 1343.65 790.73C1339.59 790.73 1336.97 793.396 1336.97 797.967C1336.97 802.562 1339.59 805.254 1343.65 805.254ZM1339.31 797.967C1339.31 794.361 1341.01 792.584 1343.65 792.584C1346.29 792.584 1347.99 794.361 1347.99 797.967C1347.99 801.572 1346.29 803.4 1343.65 803.4C1341.01 803.4 1339.31 801.572 1339.31 797.967ZM1353.83 805H1356.12V796.926C1356.12 794.336 1357.77 792.609 1360.36 792.609C1362.51 792.609 1363.58 793.676 1363.58 796.367V805H1365.87V796.24C1365.87 792.381 1364.11 790.73 1360.89 790.73C1358.71 790.73 1357.03 791.67 1356.09 793.346V790.984H1353.83V805Z" fill="white"/>
<rect width="851" height="602" transform="translate(466)" fill="white"/>
<rect width="851" height="90" transform="translate(466)" fill="#636871"/>
<path d="M485.387 52H488.336V45.8867C488.336 44.3633 489.332 43.3281 490.855 43.3281C492.047 43.3281 492.691 43.9336 492.691 45.5742V52H495.66V45.4375C495.66 42.3906 494.371 41.0039 491.852 41.0039C490.348 41.0039 489.078 41.6289 488.355 42.7617L488.336 37.625H485.387V52ZM503.844 52.2148C505.484 52.2148 507.164 51.707 508.16 50.8281L507.301 48.875C506.402 49.6367 505.152 49.9688 503.961 49.9688C501.91 49.9688 500.855 49.1094 500.68 47.2344H508.297V46.4727C508.297 43.1133 506.402 41.0039 503.297 41.0039C500.035 41.0039 497.789 43.3086 497.789 46.6289C497.789 50.1641 500.133 52.2148 503.844 52.2148ZM500.68 45.6719C500.875 43.9336 501.832 43.0547 503.375 43.0547C504.84 43.0547 505.68 43.8945 505.777 45.6719H500.68ZM513.922 52.2148C515.426 52.2148 516.5 51.5117 516.988 50.3984V52H519.762V45.3594C519.762 42.332 518.141 41.0039 515.016 41.0039C513.395 41.0039 511.402 41.5312 510.27 42.3125L511.09 44.3438C512.281 43.6016 513.609 43.2305 514.879 43.2305C516.324 43.2305 516.949 43.7188 516.949 45.0273V45.6328H516.07C511.324 45.6328 509.859 46.5898 509.859 48.7383C509.859 50.6914 511.48 52.2148 513.922 52.2148ZM512.73 48.6602C512.73 47.6641 513.473 47.1758 516.09 47.1758H516.949V47.8203C516.949 49.2852 515.895 50.1641 514.547 50.1641C513.395 50.1641 512.73 49.5781 512.73 48.6602ZM526.637 52.2148C528.16 52.2148 529.488 51.5508 530.113 50.418V52H533.023V37.625H530.055V42.7227C529.391 41.6289 528.102 41.0039 526.637 41.0039C523.785 41.0039 521.891 43.0742 521.891 46.6094C521.891 50.125 523.805 52.2148 526.637 52.2148ZM524.879 46.5898C524.879 44.3047 525.914 43.25 527.516 43.25C529.098 43.25 530.113 44.3047 530.113 46.5898C530.113 48.875 529.098 49.9492 527.516 49.9492C525.914 49.9492 524.879 48.875 524.879 46.5898ZM541.246 52.2148C542.887 52.2148 544.566 51.707 545.562 50.8281L544.703 48.875C543.805 49.6367 542.555 49.9688 541.363 49.9688C539.312 49.9688 538.258 49.1094 538.082 47.2344H545.699V46.4727C545.699 43.1133 543.805 41.0039 540.699 41.0039C537.438 41.0039 535.191 43.3086 535.191 46.6289C535.191 50.1641 537.535 52.2148 541.246 52.2148ZM538.082 45.6719C538.277 43.9336 539.234 43.0547 540.777 43.0547C542.242 43.0547 543.082 43.8945 543.18 45.6719H538.082ZM547.75 52H550.758V46.1602C550.758 44.5977 551.617 43.7773 553.453 43.6211L555.074 43.4453L554.879 40.9453L554.02 41.0234C552.34 41.1406 551.188 41.8047 550.641 43.0547V41.2188H547.75V52Z" fill="white"/>
<rect width="851" height="512" transform="translate(466 90)" fill="#E8E9FF"/>
<rect width="380.985" height="479" transform="translate(506 106)" fill="#0091EA"/>
<path d="M632.749 144.254C634.577 144.254 636.431 143.67 637.624 142.477L636.558 140.42C635.542 141.41 634.222 141.867 633.003 141.867C630.413 141.867 628.839 140.166 628.839 136.967C628.839 133.717 630.413 132.092 633.003 132.092C634.272 132.092 635.542 132.6 636.558 133.564L637.624 131.482C636.456 130.365 634.679 129.73 632.749 129.73C628.585 129.73 625.741 132.27 625.741 136.941C625.741 141.588 628.534 144.254 632.749 144.254ZM646.13 144.254C650.37 144.254 653.062 141.537 653.062 136.992C653.062 132.422 650.37 129.73 646.13 129.73C641.89 129.73 639.173 132.422 639.173 136.992C639.173 141.537 641.89 144.254 646.13 144.254ZM642.22 136.992C642.22 133.666 643.769 132.066 646.13 132.066C648.517 132.066 650.04 133.666 650.04 136.992C650.04 140.293 648.517 141.918 646.13 141.918C643.769 141.918 642.22 140.293 642.22 136.992ZM656.286 144H659.308V135.977C659.308 133.666 660.78 132.117 663.065 132.117C664.97 132.117 665.909 133.057 665.909 135.494V144H668.931V135.342C668.931 131.432 667.229 129.73 663.954 129.73C661.897 129.73 660.222 130.594 659.257 132.168V129.984H656.286V144ZM678.833 144.254C679.849 144.254 680.94 144 681.575 143.67L681.118 141.436C680.534 141.613 679.95 141.766 679.315 141.766C677.462 141.766 676.649 140.801 676.649 138.896V132.244H680.966V129.984H676.649V126.43H673.628V129.984H670.886V132.244H673.628V139.125C673.628 142.477 675.38 144.254 678.833 144.254ZM687.948 144.279C689.954 144.279 691.427 143.314 692.112 141.791V144H694.931V135.088C694.931 131.305 692.95 129.73 689.243 129.73C687.187 129.73 684.8 130.365 683.353 131.381L684.241 133.514C685.765 132.523 687.44 132.041 689.116 132.041C691.122 132.041 692.062 132.803 692.062 134.809V135.824H690.894C684.673 135.824 682.819 137.018 682.819 139.836C682.819 142.35 684.876 144.279 687.948 144.279ZM685.765 139.76C685.765 138.186 686.831 137.525 690.919 137.525H692.062V138.516C692.062 140.725 690.513 142.096 688.532 142.096C686.806 142.096 685.765 141.182 685.765 139.76ZM698.892 127.344H701.913V124.195H698.892V127.344ZM698.892 144H701.913V129.984H698.892V144ZM705.874 144H708.896V135.977C708.896 133.666 710.368 132.117 712.653 132.117C714.558 132.117 715.497 133.057 715.497 135.494V144H718.519V135.342C718.519 131.432 716.817 129.73 713.542 129.73C711.485 129.73 709.81 130.594 708.845 132.168V129.984H705.874V144ZM729.157 144.254C731.265 144.254 733.397 143.594 734.667 142.375L733.702 140.369C732.483 141.461 730.884 141.918 729.259 141.918C726.39 141.918 724.765 140.547 724.587 137.602H734.845V136.688C734.845 132.346 732.483 129.73 728.573 129.73C724.485 129.73 721.642 132.625 721.642 137.018C721.642 141.639 724.562 144.254 729.157 144.254ZM724.612 135.9C724.866 133.285 726.339 131.889 728.649 131.889C730.884 131.889 732.128 133.184 732.255 135.9H724.612ZM737.841 144H740.888V136.053C740.888 133.869 742.183 132.6 744.722 132.371L746.474 132.193L746.271 129.629L745.306 129.73C743.071 129.883 741.522 130.721 740.786 132.371V129.984H737.841V144ZM754.548 144H766.913V141.537H758.306L763.13 136.357C765.339 134.047 766.177 132.27 766.177 130.086C766.177 127.039 763.892 125.084 760.261 125.084C757.976 125.084 755.513 125.973 754.04 127.293L755.005 129.527C756.757 128.207 758.483 127.496 760.159 127.496C762.14 127.496 763.257 128.461 763.257 130.289C763.257 131.711 762.495 133.107 760.946 134.809L754.548 141.766V144Z" fill="white"/>
<rect x="537" y="163" width="318.985" height="406" fill="#00ADEF"/>
<path d="M657.224 377.254C661.312 377.254 663.876 375.121 663.876 371.973C663.876 369.434 662.302 367.961 658.925 367.174L656.234 366.59C654.076 366.107 653.162 365.143 653.162 363.492C653.162 361.41 654.812 360.064 657.453 360.064C659.484 360.064 661.134 360.725 662.607 362.07L663.394 360.293C661.972 358.871 659.839 358.059 657.453 358.059C653.517 358.059 650.851 360.293 650.851 363.619C650.851 366.285 652.425 367.859 655.574 368.57L658.265 369.18C660.626 369.713 661.591 370.551 661.591 372.1C661.591 374.029 660.169 375.248 657.224 375.248C654.787 375.248 652.958 374.562 651.257 373.242L650.47 375.096C652.121 376.441 654.482 377.254 657.224 377.254ZM673.423 377.254C675.505 377.254 677.613 376.568 678.832 375.273L678.019 373.725C676.75 374.918 675.15 375.4 673.5 375.4C670.402 375.4 668.625 373.801 668.472 370.449H679.009V369.586C679.009 365.27 676.75 362.73 672.966 362.73C668.98 362.73 666.212 365.574 666.212 370.043C666.212 374.639 669.005 377.254 673.423 377.254ZM668.498 368.977C668.777 366.082 670.427 364.457 673.017 364.457C675.505 364.457 676.902 365.955 677.029 368.977H668.498ZM688.201 377.254C690.003 377.254 691.781 376.619 692.974 375.375L692.085 373.775C691.019 374.893 689.648 375.375 688.353 375.375C685.56 375.375 683.833 373.471 683.833 369.941C683.833 366.387 685.56 364.584 688.353 364.584C689.724 364.584 691.019 365.143 692.085 366.209L692.974 364.584C691.832 363.416 690.105 362.73 688.175 362.73C684.214 362.73 681.472 365.244 681.472 369.916C681.472 374.562 684.138 377.254 688.201 377.254ZM701.15 377.254C702.089 377.254 703.156 377 703.689 376.695L703.283 374.969C702.75 375.146 702.14 375.324 701.48 375.324C699.474 375.324 698.585 374.232 698.585 372.1V364.736H703.003V362.984H698.585V359.404H696.3V362.984H693.533V364.736H696.3V372.328C696.3 375.527 697.976 377.254 701.15 377.254ZM705.644 360.039H707.929V357.322H705.644V360.039ZM705.644 377H707.929V362.984H705.644V377ZM718.085 377.254C722.148 377.254 724.738 374.562 724.738 369.967C724.738 365.396 722.148 362.73 718.085 362.73C714.023 362.73 711.408 365.396 711.408 369.967C711.408 374.562 714.023 377.254 718.085 377.254ZM713.744 369.967C713.744 366.361 715.445 364.584 718.085 364.584C720.726 364.584 722.427 366.361 722.427 369.967C722.427 373.572 720.726 375.4 718.085 375.4C715.445 375.4 713.744 373.572 713.744 369.967ZM728.267 377H730.552V368.926C730.552 366.336 732.203 364.609 734.792 364.609C736.951 364.609 738.017 365.676 738.017 368.367V377H740.302V368.24C740.302 364.381 738.55 362.73 735.326 362.73C733.142 362.73 731.466 363.67 730.527 365.346V362.984H728.267V377Z" fill="white"/>
<rect width="380.985" height="480" transform="translate(896.015 106)" fill="#0091EA"/>
<path d="M1024.05 144.254C1025.85 144.254 1027.63 143.619 1028.82 142.375L1027.93 140.775C1026.86 141.893 1025.49 142.375 1024.2 142.375C1021.41 142.375 1019.68 140.471 1019.68 136.941C1019.68 133.387 1021.41 131.584 1024.2 131.584C1025.57 131.584 1026.86 132.143 1027.93 133.209L1028.82 131.584C1027.68 130.416 1025.95 129.73 1024.02 129.73C1020.06 129.73 1017.32 132.244 1017.32 136.916C1017.32 141.562 1019.98 144.254 1024.05 144.254ZM1037.3 144.254C1041.36 144.254 1043.95 141.562 1043.95 136.967C1043.95 132.396 1041.36 129.73 1037.3 129.73C1033.24 129.73 1030.62 132.396 1030.62 136.967C1030.62 141.562 1033.24 144.254 1037.3 144.254ZM1032.96 136.967C1032.96 133.361 1034.66 131.584 1037.3 131.584C1039.94 131.584 1041.64 133.361 1041.64 136.967C1041.64 140.572 1039.94 142.4 1037.3 142.4C1034.66 142.4 1032.96 140.572 1032.96 136.967ZM1047.48 144H1049.77V135.926C1049.77 133.336 1051.42 131.609 1054.01 131.609C1056.17 131.609 1057.23 132.676 1057.23 135.367V144H1059.52V135.24C1059.52 131.381 1057.77 129.73 1054.54 129.73C1052.36 129.73 1050.68 130.67 1049.74 132.346V129.984H1047.48V144ZM1069.32 144.254C1070.26 144.254 1071.32 144 1071.86 143.695L1071.45 141.969C1070.92 142.146 1070.31 142.324 1069.65 142.324C1067.64 142.324 1066.75 141.232 1066.75 139.1V131.736H1071.17V129.984H1066.75V126.404H1064.47V129.984H1061.7V131.736H1064.47V139.328C1064.47 142.527 1066.14 144.254 1069.32 144.254ZM1078.2 144.254C1080.26 144.254 1081.78 143.264 1082.52 141.715V144H1084.7V134.885C1084.7 131.203 1082.8 129.73 1079.4 129.73C1077.42 129.73 1075.18 130.365 1073.76 131.381L1074.52 133.057C1076 132.041 1077.62 131.559 1079.35 131.559C1081.45 131.559 1082.5 132.447 1082.5 134.707V135.9H1081.3C1075.03 135.9 1073.2 137.068 1073.2 139.887C1073.2 142.4 1075.26 144.254 1078.2 144.254ZM1075.49 139.836C1075.49 138.059 1076.63 137.348 1081.33 137.348H1082.5V138.465C1082.5 140.979 1080.79 142.527 1078.61 142.527C1076.71 142.527 1075.49 141.461 1075.49 139.836ZM1089.02 127.039H1091.31V124.322H1089.02V127.039ZM1089.02 144H1091.31V129.984H1089.02V144ZM1095.65 144H1097.93V135.926C1097.93 133.336 1099.58 131.609 1102.17 131.609C1104.33 131.609 1105.4 132.676 1105.4 135.367V144H1107.68V135.24C1107.68 131.381 1105.93 129.73 1102.71 129.73C1100.52 129.73 1098.85 130.67 1097.91 132.346V129.984H1095.65V144ZM1118.32 144.254C1120.4 144.254 1122.51 143.568 1123.73 142.273L1122.92 140.725C1121.65 141.918 1120.05 142.4 1118.4 142.4C1115.3 142.4 1113.52 140.801 1113.37 137.449H1123.91V136.586C1123.91 132.27 1121.65 129.73 1117.86 129.73C1113.88 129.73 1111.11 132.574 1111.11 137.043C1111.11 141.639 1113.9 144.254 1118.32 144.254ZM1113.4 135.977C1113.68 133.082 1115.33 131.457 1117.92 131.457C1120.4 131.457 1121.8 132.955 1121.93 135.977H1113.4ZM1127.23 144H1129.57V135.773C1129.57 133.412 1130.97 132.016 1133.66 131.762L1135.1 131.609L1134.93 129.654L1134.09 129.705C1131.8 129.883 1130.26 130.721 1129.47 132.396V129.984H1127.23V144ZM1144.52 144H1155.04V142.07H1150.9V125.312H1149.27L1144.3 128.461L1145.36 130.162L1148.61 128.131V142.07H1144.52V144Z" fill="white"/>
<rect x="927.015" y="166" width="318.985" height="193" fill="#00ADEF"/>
<path d="M1047.24 271.254C1051.33 271.254 1053.89 269.121 1053.89 265.973C1053.89 263.434 1052.32 261.961 1048.94 261.174L1046.25 260.59C1044.09 260.107 1043.18 259.143 1043.18 257.492C1043.18 255.41 1044.83 254.064 1047.47 254.064C1049.5 254.064 1051.15 254.725 1052.62 256.07L1053.41 254.293C1051.99 252.871 1049.85 252.059 1047.47 252.059C1043.53 252.059 1040.87 254.293 1040.87 257.619C1040.87 260.285 1042.44 261.859 1045.59 262.57L1048.28 263.18C1050.64 263.713 1051.61 264.551 1051.61 266.1C1051.61 268.029 1050.18 269.248 1047.24 269.248C1044.8 269.248 1042.97 268.562 1041.27 267.242L1040.49 269.096C1042.14 270.441 1044.5 271.254 1047.24 271.254ZM1063.44 271.254C1065.52 271.254 1067.63 270.568 1068.85 269.273L1068.03 267.725C1066.76 268.918 1065.17 269.4 1063.51 269.4C1060.42 269.4 1058.64 267.801 1058.49 264.449H1069.02V263.586C1069.02 259.27 1066.76 256.73 1062.98 256.73C1059 256.73 1056.23 259.574 1056.23 264.043C1056.23 268.639 1059.02 271.254 1063.44 271.254ZM1058.51 262.977C1058.79 260.082 1060.44 258.457 1063.03 258.457C1065.52 258.457 1066.92 259.955 1067.04 262.977H1058.51ZM1078.22 271.254C1080.02 271.254 1081.8 270.619 1082.99 269.375L1082.1 267.775C1081.03 268.893 1079.66 269.375 1078.37 269.375C1075.58 269.375 1073.85 267.471 1073.85 263.941C1073.85 260.387 1075.58 258.584 1078.37 258.584C1079.74 258.584 1081.03 259.143 1082.1 260.209L1082.99 258.584C1081.85 257.416 1080.12 256.73 1078.19 256.73C1074.23 256.73 1071.49 259.244 1071.49 263.916C1071.49 268.562 1074.15 271.254 1078.22 271.254ZM1091.17 271.254C1092.1 271.254 1093.17 271 1093.7 270.695L1093.3 268.969C1092.76 269.146 1092.16 269.324 1091.5 269.324C1089.49 269.324 1088.6 268.232 1088.6 266.1V258.736H1093.02V256.984H1088.6V253.404H1086.32V256.984H1083.55V258.736H1086.32V266.328C1086.32 269.527 1087.99 271.254 1091.17 271.254ZM1095.66 254.039H1097.94V251.322H1095.66V254.039ZM1095.66 271H1097.94V256.984H1095.66V271ZM1108.1 271.254C1112.16 271.254 1114.75 268.562 1114.75 263.967C1114.75 259.396 1112.16 256.73 1108.1 256.73C1104.04 256.73 1101.42 259.396 1101.42 263.967C1101.42 268.562 1104.04 271.254 1108.1 271.254ZM1103.76 263.967C1103.76 260.361 1105.46 258.584 1108.1 258.584C1110.74 258.584 1112.44 260.361 1112.44 263.967C1112.44 267.572 1110.74 269.4 1108.1 269.4C1105.46 269.4 1103.76 267.572 1103.76 263.967ZM1118.28 271H1120.57V262.926C1120.57 260.336 1122.22 258.609 1124.81 258.609C1126.97 258.609 1128.03 259.676 1128.03 262.367V271H1130.32V262.24C1130.32 258.381 1128.57 256.73 1125.34 256.73C1123.16 256.73 1121.48 257.67 1120.54 259.346V256.984H1118.28V271Z" fill="white"/>
<rect x="927.015" y="377" width="318.985" height="193" fill="#00ADEF"/>
<path d="M1047.24 482.254C1051.33 482.254 1053.89 480.121 1053.89 476.973C1053.89 474.434 1052.32 472.961 1048.94 472.174L1046.25 471.59C1044.09 471.107 1043.18 470.143 1043.18 468.492C1043.18 466.41 1044.83 465.064 1047.47 465.064C1049.5 465.064 1051.15 465.725 1052.62 467.07L1053.41 465.293C1051.99 463.871 1049.85 463.059 1047.47 463.059C1043.53 463.059 1040.87 465.293 1040.87 468.619C1040.87 471.285 1042.44 472.859 1045.59 473.57L1048.28 474.18C1050.64 474.713 1051.61 475.551 1051.61 477.1C1051.61 479.029 1050.18 480.248 1047.24 480.248C1044.8 480.248 1042.97 479.562 1041.27 478.242L1040.49 480.096C1042.14 481.441 1044.5 482.254 1047.24 482.254ZM1063.44 482.254C1065.52 482.254 1067.63 481.568 1068.85 480.273L1068.03 478.725C1066.76 479.918 1065.17 480.4 1063.51 480.4C1060.42 480.4 1058.64 478.801 1058.49 475.449H1069.02V474.586C1069.02 470.27 1066.76 467.73 1062.98 467.73C1059 467.73 1056.23 470.574 1056.23 475.043C1056.23 479.639 1059.02 482.254 1063.44 482.254ZM1058.51 473.977C1058.79 471.082 1060.44 469.457 1063.03 469.457C1065.52 469.457 1066.92 470.955 1067.04 473.977H1058.51ZM1078.22 482.254C1080.02 482.254 1081.8 481.619 1082.99 480.375L1082.1 478.775C1081.03 479.893 1079.66 480.375 1078.37 480.375C1075.58 480.375 1073.85 478.471 1073.85 474.941C1073.85 471.387 1075.58 469.584 1078.37 469.584C1079.74 469.584 1081.03 470.143 1082.1 471.209L1082.99 469.584C1081.85 468.416 1080.12 467.73 1078.19 467.73C1074.23 467.73 1071.49 470.244 1071.49 474.916C1071.49 479.562 1074.15 482.254 1078.22 482.254ZM1091.17 482.254C1092.1 482.254 1093.17 482 1093.7 481.695L1093.3 479.969C1092.76 480.146 1092.16 480.324 1091.5 480.324C1089.49 480.324 1088.6 479.232 1088.6 477.1V469.736H1093.02V467.984H1088.6V464.404H1086.32V467.984H1083.55V469.736H1086.32V477.328C1086.32 480.527 1087.99 482.254 1091.17 482.254ZM1095.66 465.039H1097.94V462.322H1095.66V465.039ZM1095.66 482H1097.94V467.984H1095.66V482ZM1108.1 482.254C1112.16 482.254 1114.75 479.562 1114.75 474.967C1114.75 470.396 1112.16 467.73 1108.1 467.73C1104.04 467.73 1101.42 470.396 1101.42 474.967C1101.42 479.562 1104.04 482.254 1108.1 482.254ZM1103.76 474.967C1103.76 471.361 1105.46 469.584 1108.1 469.584C1110.74 469.584 1112.44 471.361 1112.44 474.967C1112.44 478.572 1110.74 480.4 1108.1 480.4C1105.46 480.4 1103.76 478.572 1103.76 474.967ZM1118.28 482H1120.57V473.926C1120.57 471.336 1122.22 469.609 1124.81 469.609C1126.97 469.609 1128.03 470.676 1128.03 473.367V482H1130.32V473.24C1130.32 469.381 1128.57 467.73 1125.34 467.73C1123.16 467.73 1121.48 468.67 1120.54 470.346V467.984H1118.28V482Z" fill="white"/>
</svg>
