<svg width="1450" height="3095" viewBox="0 0 1450 3095" fill="none" xmlns="http://www.w3.org/2000/svg">
<path d="M15 136L0 128.84V146.16L15 139V136ZM1425 139L1440 146.16V128.84L1425 136V139ZM9 139H15V136H9V139ZM21 139H27V136H21V139ZM33 139H39V136H33V139ZM45 139H51V136H45V139ZM57 139H63V136H57V139ZM69 139H75V136H69V139ZM81 139H87V136H81V139ZM93 139H99V136H93V139ZM105 139H111V136H105V139ZM117 139H123V136H117V139ZM129 139H135V136H129V139ZM141 139H147V136H141V139ZM153 139H159V136H153V139ZM165 139H171V136H165V139ZM177 139H183V136H177V139ZM189 139H195V136H189V139ZM201 139H207V136H201V139ZM213 139H219V136H213V139ZM225 139H231V136H225V139ZM237 139H243V136H237V139ZM249 139H255V136H249V139ZM261 139H267V136H261V139ZM273 139H279V136H273V139ZM285 139H291V136H285V139ZM297 139H303V136H297V139ZM309 139H315V136H309V139ZM321 139H327V136H321V139ZM333 139H339V136H333V139ZM345 139H351V136H345V139ZM357 139H363V136H357V139ZM369 139H375V136H369V139ZM381 139H387V136H381V139ZM393 139H399V136H393V139ZM405 139H411V136H405V139ZM417 139H423V136H417V139ZM429 139H435V136H429V139ZM441 139H447V136H441V139ZM453 139H459V136H453V139ZM465 139H471V136H465V139ZM477 139H483V136H477V139ZM489 139H495V136H489V139ZM501 139H507V136H501V139ZM513 139H519V136H513V139ZM525 139H531V136H525V139ZM537 139H543V136H537V139ZM549 139H555V136H549V139ZM561 139H567V136H561V139ZM573 139H579V136H573V139ZM585 139H591V136H585V139ZM597 139H603V136H597V139ZM609 139H615V136H609V139ZM621 139H627V136H621V139ZM633 139H639V136H633V139ZM645 139H651V136H645V139ZM657 139H663V136H657V139ZM669 139H675V136H669V139ZM681 139H687V136H681V139ZM693 139H699V136H693V139ZM705 139H711V136H705V139ZM717 139H723V136H717V139ZM729 139H735V136H729V139ZM741 139H747V136H741V139ZM753 139H759V136H753V139ZM765 139H771V136H765V139ZM777 139H783V136H777V139ZM789 139H795V136H789V139ZM801 139H807V136H801V139ZM813 139H819V136H813V139ZM825 139H831V136H825V139ZM837 139H843V136H837V139ZM849 139H855V136H849V139ZM861 139H867V136H861V139ZM873 139H879V136H873V139ZM885 139H891V136H885V139ZM897 139H903V136H897V139ZM909 139H915V136H909V139ZM921 139H927V136H921V139ZM933 139H939V136H933V139ZM945 139H951V136H945V139ZM957 139H963V136H957V139ZM969 139H975V136H969V139ZM981 139H987V136H981V139ZM993 139H999V136H993V139ZM1005 139H1011V136H1005V139ZM1017 139H1023V136H1017V139ZM1029 139H1035V136H1029V139ZM1041 139H1047V136H1041V139ZM1053 139H1059V136H1053V139ZM1065 139H1071V136H1065V139ZM1077 139H1083V136H1077V139ZM1089 139H1095V136H1089V139ZM1101 139H1107V136H1101V139ZM1113 139H1119V136H1113V139ZM1125 139H1131V136H1125V139ZM1137 139H1143V136H1137V139ZM1149 139H1155V136H1149V139ZM1161 139H1167V136H1161V139ZM1173 139H1179V136H1173V139ZM1185 139H1191V136H1185V139ZM1197 139H1203V136H1197V139ZM1209 139H1215V136H1209V139ZM1221 139H1227V136H1221V139ZM1233 139H1239V136H1233V139ZM1245 139H1251V136H1245V139ZM1257 139H1263V136H1257V139ZM1269 139H1275V136H1269V139ZM1281 139H1287V136H1281V139ZM1293 139H1299V136H1293V139ZM1305 139H1311V136H1305V139ZM1317 139H1323V136H1317V139ZM1329 139H1335V136H1329V139ZM1341 139H1347V136H1341V139ZM1353 139H1359V136H1353V139ZM1365 139H1371V136H1365V139ZM1377 139H1383V136H1377V139ZM1389 139H1395V136H1389V139ZM1401 139H1407V136H1401V139ZM1413 139H1419V136H1413V139ZM1425 139H1431V136H1425V139Z" fill="#636871"/>
<circle cx="360" cy="137" r="7" fill="#F9FAFB" stroke="#636871" stroke-width="6"/>
<circle cx="768" cy="137" r="7" fill="#F9FAFB" stroke="#636871" stroke-width="6"/>
<circle cx="1024" cy="137" r="7" fill="#F9FAFB" stroke="#636871" stroke-width="6"/>
<circle cx="1440" cy="137" r="7" fill="#F9FAFB" stroke="#636871" stroke-width="6"/>
<path d="M360.551 29.2793C364.969 29.2793 367.812 27.0195 367.812 23.5918C367.812 20.9258 366.238 19.3262 362.912 18.5391L360.043 17.9043C358.316 17.5234 357.656 16.7871 357.656 15.7207C357.656 14.2227 358.9 13.2578 361.059 13.2578C363.014 13.2578 364.74 13.8672 366.061 14.9844L367.203 12.0898C365.781 10.8203 363.496 10.0332 361.084 10.0332C356.768 10.0332 353.848 12.3945 353.848 15.9238C353.848 18.666 355.422 20.3418 358.621 21.0527L361.465 21.7129C363.318 22.1445 364.004 22.7793 364.004 23.8711C364.004 25.1914 362.963 26.0547 360.551 26.0547C358.316 26.0547 356.234 25.3691 354.609 24.2266L353.492 27.248C355.168 28.4922 357.783 29.2793 360.551 29.2793ZM327.606 68.2031C331.796 68.2031 334.487 66.1973 334.487 62.9219C334.487 60.6367 333.243 59.0117 331.034 58.4023C332.913 57.7168 334.005 56.1934 334.005 54.0605C334.005 51.0645 331.567 49.084 327.784 49.084C325.347 49.084 322.858 49.8457 321.36 51.1914L322.528 53.959C324.229 52.7656 325.981 52.0801 327.53 52.0801C329.358 52.0801 330.349 52.9941 330.349 54.543C330.349 56.2188 329.257 57.0566 326.997 57.0566H324.839V60.0273H327.429C329.79 60.0273 330.806 60.8145 330.806 62.5664C330.806 64.3691 329.765 65.1816 327.454 65.1816C325.728 65.1816 323.95 64.5469 322.274 63.3281L321.081 66.0957C322.554 67.4668 325.067 68.2031 327.606 68.2031ZM344.593 68.2285C348.249 68.2285 350.94 65.5625 350.94 61.9316C350.94 58.4277 348.579 55.9141 345.278 55.9141C343.323 55.9141 341.647 56.8281 340.86 58.3008C340.987 54.2383 342.409 52.0801 344.999 52.0801C346.37 52.0801 347.944 52.6133 349.671 53.959L350.94 51.1914C349.366 49.7949 347.106 49.084 344.847 49.084C340.022 49.084 337.077 52.7656 337.077 58.9609C337.077 64.9023 339.794 68.2285 344.593 68.2285ZM341.394 62.084C341.394 60.1797 342.587 58.8848 344.364 58.8848C346.142 58.8848 347.31 60.1797 347.31 62.084C347.31 64.0137 346.167 65.2324 344.339 65.2324C342.612 65.2324 341.394 63.9883 341.394 62.084ZM359.878 68.2285C364.372 68.2285 366.81 64.8516 366.81 58.6309C366.81 52.5371 364.372 49.1348 359.878 49.1348C355.46 49.1348 352.972 52.5371 352.972 58.6309C352.972 64.8516 355.46 68.2285 359.878 68.2285ZM356.704 58.6309C356.704 54.0859 357.694 52.0801 359.878 52.0801C362.087 52.0801 363.077 54.0605 363.077 58.6309C363.077 63.252 362.087 65.2832 359.878 65.2832C357.694 65.2832 356.704 63.252 356.704 58.6309ZM369.653 72.7734H373.487V66.0449C374.3 67.4668 375.95 68.2793 377.905 68.2793C381.663 68.2793 384.126 65.5625 384.126 60.9922C384.126 56.3965 381.663 53.7051 377.905 53.7051C375.925 53.7051 374.249 54.543 373.462 55.9648V53.9844H369.653V72.7734ZM373.462 60.9922C373.462 57.9961 374.731 56.6504 376.813 56.6504C378.896 56.6504 380.241 58.0469 380.241 60.9922C380.241 63.9629 378.896 65.3594 376.813 65.3594C374.731 65.3594 373.462 63.9629 373.462 60.9922ZM384.938 68H389.433L393.038 63.3789L396.593 68H401.163L395.298 60.7637L400.782 53.9844H396.313L393.063 58.2246L389.839 53.9844H385.294L390.778 60.7637L384.938 68ZM345.764 98.1562C348.459 98.1562 350.412 96.2031 350.412 93.4883C350.412 90.793 348.576 88.957 345.939 88.957C344.162 88.957 342.697 89.8945 342.072 91.3984V91.125C342.072 87.1602 343.459 84.9336 345.939 84.9336C347.17 84.9336 348.381 85.4219 349.729 86.5742L350.393 85.2266C349.182 84.0742 347.561 83.4688 345.881 83.4688C342.385 83.4688 340.295 86.3008 340.295 91.1641C340.295 95.6562 342.248 98.1562 345.764 98.1562ZM342.541 93.5469C342.541 91.6914 343.811 90.4023 345.646 90.4023C347.482 90.4023 348.674 91.6523 348.674 93.5469C348.674 95.4609 347.502 96.6914 345.666 96.6914C343.791 96.6914 342.541 95.4414 342.541 93.5469ZM358.928 84.9922C360.529 84.9922 361.721 85.5195 362.912 86.6133L363.537 85.207C362.463 84.0547 360.803 83.4297 358.928 83.4297C355.021 83.4297 352.6 86.2422 352.6 90.793C352.6 95.3633 355.041 98.1953 358.928 98.1953C360.803 98.1953 362.463 97.5508 363.537 96.418L362.912 94.9922C361.721 96.0859 360.51 96.6328 358.928 96.6328C356.057 96.6328 354.455 94.5234 354.455 90.793C354.455 87.082 356.057 84.9922 358.928 84.9922ZM370.568 98.1953C373.693 98.1953 375.686 96.125 375.686 92.5898C375.686 89.0742 373.693 87.0234 370.568 87.0234C367.443 87.0234 365.432 89.0742 365.432 92.5898C365.432 96.125 367.443 98.1953 370.568 98.1953ZM367.229 92.5898C367.229 89.8164 368.537 88.4492 370.568 88.4492C372.6 88.4492 373.908 89.8164 373.908 92.5898C373.908 95.3633 372.6 96.7695 370.568 96.7695C368.537 96.7695 367.229 95.3633 367.229 92.5898ZM378.4 98H380.158V82.8633H378.4V98Z" fill="#111827"/>
<path d="M759.283 29H762.787V17.3203L767.408 26.1562H769.566L774.213 17.2441V29H777.742V10.3125H774.518L768.551 21.9414L762.559 10.3125H759.283V29ZM734.312 68L742.69 52.1816V49.3125H729.411V52.4102H738.577L730.224 68H734.312ZM752.593 68.2285C756.249 68.2285 758.94 65.5625 758.94 61.9316C758.94 58.4277 756.579 55.9141 753.278 55.9141C751.323 55.9141 749.647 56.8281 748.86 58.3008C748.987 54.2383 750.409 52.0801 752.999 52.0801C754.37 52.0801 755.944 52.6133 757.671 53.959L758.94 51.1914C757.366 49.7949 755.106 49.084 752.847 49.084C748.022 49.084 745.077 52.7656 745.077 58.9609C745.077 64.9023 747.794 68.2285 752.593 68.2285ZM749.394 62.084C749.394 60.1797 750.587 58.8848 752.364 58.8848C754.142 58.8848 755.31 60.1797 755.31 62.084C755.31 64.0137 754.167 65.2324 752.339 65.2324C750.612 65.2324 749.394 63.9883 749.394 62.084ZM767.878 68.2031C772.321 68.2031 774.987 66.2227 774.987 62.9219C774.987 60.6367 773.769 58.9863 771.61 58.377C773.388 57.7676 774.505 56.2188 774.505 54.1367C774.505 50.9883 771.991 49.084 767.878 49.084C763.765 49.084 761.251 50.9883 761.251 54.1367C761.251 56.1426 762.317 57.6914 764.146 58.377C762.013 58.9609 760.794 60.6367 760.794 62.9219C760.794 66.2227 763.46 68.2031 767.878 68.2031ZM764.374 62.6172C764.374 60.8906 765.517 60.0527 767.878 60.0527C770.265 60.0527 771.407 60.8906 771.407 62.6172C771.407 64.3438 770.265 65.2578 767.878 65.2578C765.517 65.2578 764.374 64.3438 764.374 62.6172ZM764.806 54.5176C764.806 52.8672 765.847 52.0293 767.878 52.0293C769.909 52.0293 770.899 52.8672 770.899 54.5176C770.899 56.2188 769.909 57.0566 767.878 57.0566C765.897 57.0566 764.806 56.2188 764.806 54.5176ZM777.653 72.7734H781.487V66.0449C782.3 67.4668 783.95 68.2793 785.905 68.2793C789.663 68.2793 792.126 65.5625 792.126 60.9922C792.126 56.3965 789.663 53.7051 785.905 53.7051C783.925 53.7051 782.249 54.543 781.462 55.9648V53.9844H777.653V72.7734ZM781.462 60.9922C781.462 57.9961 782.731 56.6504 784.813 56.6504C786.896 56.6504 788.241 58.0469 788.241 60.9922C788.241 63.9629 786.896 65.3594 784.813 65.3594C782.731 65.3594 781.462 63.9629 781.462 60.9922ZM792.938 68H797.433L801.038 63.3789L804.593 68H809.163L803.298 60.7637L808.782 53.9844H804.313L801.063 58.2246L797.839 53.9844H793.294L798.778 60.7637L792.938 68ZM753.764 98.1562C756.459 98.1562 758.412 96.2031 758.412 93.4883C758.412 90.793 756.576 88.957 753.939 88.957C752.162 88.957 750.697 89.8945 750.072 91.3984V91.125C750.072 87.1602 751.459 84.9336 753.939 84.9336C755.17 84.9336 756.381 85.4219 757.729 86.5742L758.393 85.2266C757.182 84.0742 755.561 83.4688 753.881 83.4688C750.385 83.4688 748.295 86.3008 748.295 91.1641C748.295 95.6562 750.248 98.1562 753.764 98.1562ZM750.541 93.5469C750.541 91.6914 751.811 90.4023 753.646 90.4023C755.482 90.4023 756.674 91.6523 756.674 93.5469C756.674 95.4609 755.502 96.6914 753.666 96.6914C751.791 96.6914 750.541 95.4414 750.541 93.5469ZM766.928 84.9922C768.529 84.9922 769.721 85.5195 770.912 86.6133L771.537 85.207C770.463 84.0547 768.803 83.4297 766.928 83.4297C763.021 83.4297 760.6 86.2422 760.6 90.793C760.6 95.3633 763.041 98.1953 766.928 98.1953C768.803 98.1953 770.463 97.5508 771.537 96.418L770.912 94.9922C769.721 96.0859 768.51 96.6328 766.928 96.6328C764.057 96.6328 762.455 94.5234 762.455 90.793C762.455 87.082 764.057 84.9922 766.928 84.9922ZM778.568 98.1953C781.693 98.1953 783.686 96.125 783.686 92.5898C783.686 89.0742 781.693 87.0234 778.568 87.0234C775.443 87.0234 773.432 89.0742 773.432 92.5898C773.432 96.125 775.443 98.1953 778.568 98.1953ZM775.229 92.5898C775.229 89.8164 776.537 88.4492 778.568 88.4492C780.6 88.4492 781.908 89.8164 781.908 92.5898C781.908 95.3633 780.6 96.7695 778.568 96.7695C776.537 96.7695 775.229 95.3633 775.229 92.5898ZM786.4 98H788.158V82.8633H786.4V98Z" fill="#111827"/>
<path d="M1018.86 29H1031.38V25.75H1022.7V10.3125H1018.86V29ZM978.987 68H990.921V64.877H986.884V49.3125H984.167L978.403 52.7148L979.825 55.5078L983.05 53.6289V64.877H978.987V68ZM999.985 68.2285C1004.48 68.2285 1006.92 64.8516 1006.92 58.6309C1006.92 52.5371 1004.48 49.1348 999.985 49.1348C995.567 49.1348 993.079 52.5371 993.079 58.6309C993.079 64.8516 995.567 68.2285 999.985 68.2285ZM996.812 58.6309C996.812 54.0859 997.802 52.0801 999.985 52.0801C1002.19 52.0801 1003.18 54.0605 1003.18 58.6309C1003.18 63.252 1002.19 65.2832 999.985 65.2832C997.802 65.2832 996.812 63.252 996.812 58.6309ZM1009.81 68H1022.53V64.877H1014.56L1018.9 60.2812C1021.06 58.123 1021.87 56.3965 1021.87 54.1621C1021.87 51.0898 1019.43 49.084 1015.63 49.084C1013.24 49.084 1010.7 49.8965 1009.23 51.1914L1010.4 53.959C1012.15 52.7656 1013.87 52.0801 1015.42 52.0801C1017.17 52.0801 1018.14 52.8672 1018.14 54.4668C1018.14 55.7109 1017.45 57.0059 1016.06 58.4531L1009.81 65.1816V68ZM1032.87 68H1036.6V64.4453H1039.16V61.5508H1036.6V49.3125H1033.53L1024.94 61.6777V64.4453H1032.87V68ZM1028.45 61.5508L1032.87 55.1523V61.5508H1028.45ZM1041.63 72.7734H1045.46V66.0449C1046.27 67.4668 1047.92 68.2793 1049.88 68.2793C1053.64 68.2793 1056.1 65.5625 1056.1 60.9922C1056.1 56.3965 1053.64 53.7051 1049.88 53.7051C1047.9 53.7051 1046.22 54.543 1045.43 55.9648V53.9844H1041.63V72.7734ZM1045.43 60.9922C1045.43 57.9961 1046.7 56.6504 1048.79 56.6504C1050.87 56.6504 1052.21 58.0469 1052.21 60.9922C1052.21 63.9629 1050.87 65.3594 1048.79 65.3594C1046.7 65.3594 1045.43 63.9629 1045.43 60.9922ZM1056.91 68H1061.41L1065.01 63.3789L1068.57 68H1073.14L1067.27 60.7637L1072.75 53.9844H1068.29L1065.04 58.2246L1061.81 53.9844H1057.27L1062.75 60.7637L1056.91 68ZM999.686 98H1007.77V96.5156H1004.59V83.625H1003.34L999.51 86.0469L1000.33 87.3555L1002.83 85.793V96.5156H999.686V98ZM1011.01 98H1020.29V96.5156H1013.28L1017.28 92.1602C1019 90.3047 1019.69 88.8984 1019.69 87.2383C1019.69 84.8945 1018.03 83.4688 1015.35 83.4688C1013.65 83.4688 1011.78 84.1719 1010.64 85.2266L1011.27 86.5742C1012.62 85.4805 1013.94 84.9336 1015.33 84.9336C1016.99 84.9336 1017.95 85.7734 1017.95 87.3359C1017.95 88.5273 1017.34 89.6797 1016.03 91.1445L1011.01 96.6719V98ZM1029.06 84.9922C1030.66 84.9922 1031.85 85.5195 1033.04 86.6133L1033.67 85.207C1032.6 84.0547 1030.94 83.4297 1029.06 83.4297C1025.15 83.4297 1022.73 86.2422 1022.73 90.793C1022.73 95.3633 1025.17 98.1953 1029.06 98.1953C1030.94 98.1953 1032.6 97.5508 1033.67 96.418L1033.04 94.9922C1031.85 96.0859 1030.64 96.6328 1029.06 96.6328C1026.19 96.6328 1024.59 94.5234 1024.59 90.793C1024.59 87.082 1026.19 84.9922 1029.06 84.9922ZM1040.7 98.1953C1043.83 98.1953 1045.82 96.125 1045.82 92.5898C1045.82 89.0742 1043.83 87.0234 1040.7 87.0234C1037.58 87.0234 1035.56 89.0742 1035.56 92.5898C1035.56 96.125 1037.58 98.1953 1040.7 98.1953ZM1037.36 92.5898C1037.36 89.8164 1038.67 88.4492 1040.7 88.4492C1042.73 88.4492 1044.04 89.8164 1044.04 92.5898C1044.04 95.3633 1042.73 96.7695 1040.7 96.7695C1038.67 96.7695 1037.36 95.3633 1037.36 92.5898ZM1048.53 98H1050.29V82.8633H1048.53V98Z" fill="#111827"/>
<path d="M1407.4 29H1411.89L1416.39 22.4238L1420.88 29H1425.4L1418.54 19.5293L1425.22 10.3125H1420.7L1416.41 16.6602L1412.1 10.3125H1407.58L1414.23 19.5293L1407.4 29ZM1426.9 29H1439.42V25.75H1430.73V10.3125H1426.9V29ZM1346.13 68H1358.06V64.877H1354.03V49.3125H1351.31L1345.55 52.7148L1346.97 55.5078L1350.19 53.6289V64.877H1346.13V68ZM1368.14 68H1371.88V64.4453H1374.44V61.5508H1371.88V49.3125H1368.8L1360.22 61.6777V64.4453H1368.14V68ZM1363.73 61.5508L1368.14 55.1523V61.5508H1363.73ZM1384.06 68H1387.8V64.4453H1390.36V61.5508H1387.8V49.3125H1384.72L1376.14 61.6777V64.4453H1384.06V68ZM1379.65 61.5508L1384.06 55.1523V61.5508H1379.65ZM1398.97 68.2285C1403.46 68.2285 1405.9 64.8516 1405.9 58.6309C1405.9 52.5371 1403.46 49.1348 1398.97 49.1348C1394.55 49.1348 1392.06 52.5371 1392.06 58.6309C1392.06 64.8516 1394.55 68.2285 1398.97 68.2285ZM1395.79 58.6309C1395.79 54.0859 1396.79 52.0801 1398.97 52.0801C1401.18 52.0801 1402.17 54.0605 1402.17 58.6309C1402.17 63.252 1401.18 65.2832 1398.97 65.2832C1396.79 65.2832 1395.79 63.252 1395.79 58.6309ZM1408.74 72.7734H1412.58V66.0449C1413.39 67.4668 1415.04 68.2793 1417 68.2793C1420.75 68.2793 1423.22 65.5625 1423.22 60.9922C1423.22 56.3965 1420.75 53.7051 1417 53.7051C1415.02 53.7051 1413.34 54.543 1412.55 55.9648V53.9844H1408.74V72.7734ZM1412.55 60.9922C1412.55 57.9961 1413.82 56.6504 1415.9 56.6504C1417.99 56.6504 1419.33 58.0469 1419.33 60.9922C1419.33 63.9629 1417.99 65.3594 1415.9 65.3594C1413.82 65.3594 1412.55 63.9629 1412.55 60.9922ZM1424.03 68H1428.52L1432.13 63.3789L1435.68 68H1440.25L1434.39 60.7637L1439.87 53.9844H1435.4L1432.15 58.2246L1428.93 53.9844H1424.38L1429.87 60.7637L1424.03 68ZM1387.73 98H1395.82V96.5156H1392.64V83.625H1391.39L1387.56 86.0469L1388.38 87.3555L1390.88 85.793V96.5156H1387.73V98ZM1399.06 98H1408.34V96.5156H1401.33L1405.33 92.1602C1407.05 90.3047 1407.73 88.8984 1407.73 87.2383C1407.73 84.8945 1406.07 83.4688 1403.4 83.4688C1401.7 83.4688 1399.82 84.1719 1398.69 85.2266L1399.32 86.5742C1400.66 85.4805 1401.99 84.9336 1403.38 84.9336C1405.04 84.9336 1406 85.7734 1406 87.3359C1406 88.5273 1405.39 89.6797 1404.08 91.1445L1399.06 96.6719V98ZM1417.11 84.9922C1418.71 84.9922 1419.9 85.5195 1421.09 86.6133L1421.72 85.207C1420.64 84.0547 1418.98 83.4297 1417.11 83.4297C1413.2 83.4297 1410.78 86.2422 1410.78 90.793C1410.78 95.3633 1413.22 98.1953 1417.11 98.1953C1418.98 98.1953 1420.64 97.5508 1421.72 96.418L1421.09 94.9922C1419.9 96.0859 1418.69 96.6328 1417.11 96.6328C1414.24 96.6328 1412.64 94.5234 1412.64 90.793C1412.64 87.082 1414.24 84.9922 1417.11 84.9922ZM1428.75 98.1953C1431.88 98.1953 1433.87 96.125 1433.87 92.5898C1433.87 89.0742 1431.88 87.0234 1428.75 87.0234C1425.62 87.0234 1423.61 89.0742 1423.61 92.5898C1423.61 96.125 1425.62 98.1953 1428.75 98.1953ZM1425.41 92.5898C1425.41 89.8164 1426.72 88.4492 1428.75 88.4492C1430.78 88.4492 1432.09 89.8164 1432.09 92.5898C1432.09 95.3633 1430.78 96.7695 1428.75 96.7695C1426.72 96.7695 1425.41 95.3633 1425.41 92.5898ZM1436.58 98H1438.34V82.8633H1436.58V98Z" fill="#111827"/>
<path d="M360.5 210.5L369.16 195.5H351.84L360.5 210.5ZM359 137.5V140.542H362V137.5H359ZM359 146.625V152.708H362V146.625H359ZM359 158.792V164.875H362V158.792H359ZM359 170.958V177.042H362V170.958H359ZM359 183.125V189.208H362V183.125H359ZM359 195.292V201.375H362V195.292H359Z" fill="#636871"/>
<path d="M768 943L776.66 928L759.34 928L768 943ZM766.5 137L766.5 140.007L769.5 140.007L769.5 137L766.5 137ZM766.5 146.022L766.5 152.037L769.5 152.037L769.5 146.022L766.5 146.022ZM766.5 158.052L766.5 164.067L769.5 164.067L769.5 158.052L766.5 158.052ZM766.5 170.082L766.5 176.097L769.5 176.097L769.5 170.082L766.5 170.082ZM766.5 182.112L766.5 188.127L769.5 188.127L769.5 182.112L766.5 182.112ZM766.5 194.142L766.5 200.157L769.5 200.157L769.5 194.142L766.5 194.142ZM766.5 206.172L766.5 212.187L769.5 212.187L769.5 206.172L766.5 206.172ZM766.5 218.201L766.5 224.216L769.5 224.216L769.5 218.201L766.5 218.201ZM766.5 230.231L766.5 236.246L769.5 236.246L769.5 230.231L766.5 230.231ZM766.5 242.261L766.5 248.276L769.5 248.276L769.5 242.261L766.5 242.261ZM766.5 254.291L766.5 260.306L769.5 260.306L769.5 254.291L766.5 254.291ZM766.5 266.321L766.5 272.336L769.5 272.336L769.5 266.321L766.5 266.321ZM766.5 278.351L766.5 284.366L769.5 284.366L769.5 278.351L766.5 278.351ZM766.5 290.381L766.5 296.395L769.5 296.395L769.5 290.381L766.5 290.381ZM766.5 302.41L766.5 308.425L769.5 308.425L769.5 302.41L766.5 302.41ZM766.5 314.44L766.5 320.455L769.5 320.455L769.5 314.44L766.5 314.44ZM766.5 326.47L766.5 332.485L769.5 332.485L769.5 326.47L766.5 326.47ZM766.5 338.5L766.5 344.515L769.5 344.515L769.5 338.5L766.5 338.5ZM766.5 350.53L766.5 356.545L769.5 356.545L769.5 350.53L766.5 350.53ZM766.5 362.56L766.5 368.575L769.5 368.575L769.5 362.56L766.5 362.56ZM766.5 374.589L766.5 380.604L769.5 380.604L769.5 374.589L766.5 374.589ZM766.5 386.619L766.5 392.634L769.5 392.634L769.5 386.619L766.5 386.619ZM766.5 398.649L766.5 404.664L769.5 404.664L769.5 398.649L766.5 398.649ZM766.5 410.679L766.5 416.694L769.5 416.694L769.5 410.679L766.5 410.679ZM766.5 422.709L766.5 428.724L769.5 428.724L769.5 422.709L766.5 422.709ZM766.5 434.739L766.5 440.754L769.5 440.754L769.5 434.739L766.5 434.739ZM766.5 446.769L766.5 452.784L769.5 452.784L769.5 446.769L766.5 446.769ZM766.5 458.798L766.5 464.813L769.5 464.813L769.5 458.798L766.5 458.798ZM766.5 470.828L766.5 476.843L769.5 476.843L769.5 470.828L766.5 470.828ZM766.5 482.858L766.5 488.873L769.5 488.873L769.5 482.858L766.5 482.858ZM766.5 494.888L766.5 500.903L769.5 500.903L769.5 494.888L766.5 494.888ZM766.5 506.918L766.5 512.933L769.5 512.933L769.5 506.918L766.5 506.918ZM766.5 518.948L766.5 524.963L769.5 524.963L769.5 518.948L766.5 518.948ZM766.5 530.978L766.5 536.992L769.5 536.992L769.5 530.978L766.5 530.978ZM766.5 543.007L766.5 549.022L769.5 549.022L769.5 543.007L766.5 543.007ZM766.5 555.037L766.5 561.052L769.5 561.052L769.5 555.037L766.5 555.037ZM766.5 567.067L766.5 573.082L769.5 573.082L769.5 567.067L766.5 567.067ZM766.5 579.097L766.5 585.112L769.5 585.112L769.5 579.097L766.5 579.097ZM766.5 591.127L766.5 597.142L769.5 597.142L769.5 591.127L766.5 591.127ZM766.5 603.157L766.5 609.172L769.5 609.172L769.5 603.157L766.5 603.157ZM766.5 615.186L766.5 621.201L769.5 621.201L769.5 615.186L766.5 615.186ZM766.5 627.216L766.5 633.231L769.5 633.231L769.5 627.216L766.5 627.216ZM766.5 639.246L766.5 645.261L769.5 645.261L769.5 639.246L766.5 639.246ZM766.5 651.276L766.5 657.291L769.5 657.291L769.5 651.276L766.5 651.276ZM766.5 663.306L766.5 669.321L769.5 669.321L769.5 663.306L766.5 663.306ZM766.5 675.336L766.5 681.351L769.5 681.351L769.5 675.336L766.5 675.336ZM766.5 687.366L766.5 693.381L769.5 693.381L769.5 687.366L766.5 687.366ZM766.5 699.396L766.5 705.411L769.5 705.411L769.5 699.396L766.5 699.396ZM766.5 711.426L766.5 717.44L769.5 717.44L769.5 711.426L766.5 711.426ZM766.5 723.455L766.5 729.47L769.5 729.47L769.5 723.455L766.5 723.455ZM766.5 735.485L766.5 741.5L769.5 741.5L769.5 735.485L766.5 735.485ZM766.5 747.515L766.5 753.53L769.5 753.53L769.5 747.515L766.5 747.515ZM766.5 759.545L766.5 765.56L769.5 765.56L769.5 759.545L766.5 759.545ZM766.5 771.575L766.5 777.59L769.5 777.59L769.5 771.575L766.5 771.575ZM766.5 783.605L766.5 789.62L769.5 789.62L769.5 783.605L766.5 783.605ZM766.5 795.635L766.5 801.65L769.5 801.65L769.5 795.635L766.5 795.635ZM766.5 807.665L766.5 813.68L769.5 813.68L769.5 807.665L766.5 807.665ZM766.5 819.695L766.5 825.71L769.5 825.71L769.5 819.695L766.5 819.695ZM766.5 831.725L766.5 837.74L769.5 837.74L769.5 831.725L766.5 831.725ZM766.5 843.755L766.5 849.769L769.5 849.769L769.5 843.755L766.5 843.755ZM766.5 855.784L766.5 861.799L769.5 861.799L769.5 855.784L766.5 855.784ZM766.5 867.814L766.5 873.829L769.5 873.829L769.5 867.814L766.5 867.814ZM766.5 879.844L766.5 885.859L769.5 885.859L769.5 879.844L766.5 879.844ZM766.5 891.874L766.5 897.889L769.5 897.889L769.5 891.874L766.5 891.874ZM766.5 903.904L766.5 909.919L769.5 909.919L769.5 903.904L766.5 903.904ZM766.5 915.934L766.5 921.949L769.5 921.949L769.5 915.934L766.5 915.934ZM766.5 927.964L766.5 933.979L769.5 933.979L769.5 927.964L766.5 927.964Z" fill="#636871"/>
<path d="M1024 1684L1032.66 1669L1015.34 1669L1024 1684ZM1022.5 137L1022.5 139.998L1025.5 139.998L1025.5 137L1022.5 137ZM1022.5 145.994L1022.5 151.99L1025.5 151.99L1025.5 145.994L1022.5 145.994ZM1022.5 157.986L1022.5 163.983L1025.5 163.983L1025.5 157.986L1022.5 157.986ZM1022.5 169.979L1022.5 175.975L1025.5 175.975L1025.5 169.979L1022.5 169.979ZM1022.5 181.971L1022.5 187.967L1025.5 187.967L1025.5 181.971L1022.5 181.971ZM1022.5 193.963L1022.5 199.959L1025.5 199.959L1025.5 193.963L1022.5 193.963ZM1022.5 205.955L1022.5 211.952L1025.5 211.952L1025.5 205.955L1022.5 205.955ZM1022.5 217.948L1022.5 223.944L1025.5 223.944L1025.5 217.948L1022.5 217.948ZM1022.5 229.94L1022.5 235.936L1025.5 235.936L1025.5 229.94L1022.5 229.94ZM1022.5 241.932L1022.5 247.928L1025.5 247.928L1025.5 241.932L1022.5 241.932ZM1022.5 253.924L1022.5 259.921L1025.5 259.921L1025.5 253.924L1022.5 253.924ZM1022.5 265.917L1022.5 271.913L1025.5 271.913L1025.5 265.917L1022.5 265.917ZM1022.5 277.909L1022.5 283.905L1025.5 283.905L1025.5 277.909L1022.5 277.909ZM1022.5 289.901L1022.5 295.897L1025.5 295.897L1025.5 289.901L1022.5 289.901ZM1022.5 301.893L1022.5 307.89L1025.5 307.89L1025.5 301.893L1022.5 301.893ZM1022.5 313.886L1022.5 319.882L1025.5 319.882L1025.5 313.886L1022.5 313.886ZM1022.5 325.878L1022.5 331.874L1025.5 331.874L1025.5 325.878L1022.5 325.878ZM1022.5 337.87L1022.5 343.866L1025.5 343.866L1025.5 337.87L1022.5 337.87ZM1022.5 349.862L1022.5 355.859L1025.5 355.859L1025.5 349.862L1022.5 349.862ZM1022.5 361.855L1022.5 367.851L1025.5 367.851L1025.5 361.855L1022.5 361.855ZM1022.5 373.847L1022.5 379.843L1025.5 379.843L1025.5 373.847L1022.5 373.847ZM1022.5 385.839L1022.5 391.835L1025.5 391.835L1025.5 385.839L1022.5 385.839ZM1022.5 397.831L1022.5 403.828L1025.5 403.828L1025.5 397.831L1022.5 397.831ZM1022.5 409.824L1022.5 415.82L1025.5 415.82L1025.5 409.824L1022.5 409.824ZM1022.5 421.816L1022.5 427.812L1025.5 427.812L1025.5 421.816L1022.5 421.816ZM1022.5 433.808L1022.5 439.804L1025.5 439.804L1025.5 433.808L1022.5 433.808ZM1022.5 445.8L1022.5 451.797L1025.5 451.797L1025.5 445.8L1022.5 445.8ZM1022.5 457.793L1022.5 463.789L1025.5 463.789L1025.5 457.793L1022.5 457.793ZM1022.5 469.785L1022.5 475.781L1025.5 475.781L1025.5 469.785L1022.5 469.785ZM1022.5 481.777L1022.5 487.773L1025.5 487.773L1025.5 481.777L1022.5 481.777ZM1022.5 493.769L1022.5 499.766L1025.5 499.766L1025.5 493.769L1022.5 493.769ZM1022.5 505.762L1022.5 511.758L1025.5 511.758L1025.5 505.762L1022.5 505.762ZM1022.5 517.754L1022.5 523.75L1025.5 523.75L1025.5 517.754L1022.5 517.754ZM1022.5 529.746L1022.5 535.742L1025.5 535.742L1025.5 529.746L1022.5 529.746ZM1022.5 541.738L1022.5 547.734L1025.5 547.734L1025.5 541.738L1022.5 541.738ZM1022.5 553.731L1022.5 559.727L1025.5 559.727L1025.5 553.731L1022.5 553.731ZM1022.5 565.723L1022.5 571.719L1025.5 571.719L1025.5 565.723L1022.5 565.723ZM1022.5 577.715L1022.5 583.711L1025.5 583.711L1025.5 577.715L1022.5 577.715ZM1022.5 589.707L1022.5 595.704L1025.5 595.704L1025.5 589.707L1022.5 589.707ZM1022.5 601.7L1022.5 607.696L1025.5 607.696L1025.5 601.7L1022.5 601.7ZM1022.5 613.692L1022.5 619.688L1025.5 619.688L1025.5 613.692L1022.5 613.692ZM1022.5 625.684L1022.5 631.68L1025.5 631.68L1025.5 625.684L1022.5 625.684ZM1022.5 637.676L1022.5 643.673L1025.5 643.673L1025.5 637.676L1022.5 637.676ZM1022.5 649.669L1022.5 655.665L1025.5 655.665L1025.5 649.669L1022.5 649.669ZM1022.5 661.661L1022.5 667.657L1025.5 667.657L1025.5 661.661L1022.5 661.661ZM1022.5 673.653L1022.5 679.649L1025.5 679.649L1025.5 673.653L1022.5 673.653ZM1022.5 685.645L1022.5 691.641L1025.5 691.641L1025.5 685.645L1022.5 685.645ZM1022.5 697.637L1022.5 703.633L1025.5 703.633L1025.5 697.637L1022.5 697.637ZM1022.5 709.63L1022.5 715.626L1025.5 715.626L1025.5 709.63L1022.5 709.63ZM1022.5 721.622L1022.5 727.618L1025.5 727.618L1025.5 721.622L1022.5 721.622ZM1022.5 733.614L1022.5 739.61L1025.5 739.61L1025.5 733.614L1022.5 733.614ZM1022.5 745.606L1022.5 751.602L1025.5 751.602L1025.5 745.606L1022.5 745.606ZM1022.5 757.598L1022.5 763.594L1025.5 763.594L1025.5 757.598L1022.5 757.598ZM1022.5 769.591L1022.5 775.587L1025.5 775.587L1025.5 769.591L1022.5 769.591ZM1022.5 781.583L1022.5 787.579L1025.5 787.579L1025.5 781.583L1022.5 781.583ZM1022.5 793.575L1022.5 799.571L1025.5 799.571L1025.5 793.575L1022.5 793.575ZM1022.5 805.567L1022.5 811.563L1025.5 811.563L1025.5 805.567L1022.5 805.567ZM1022.5 817.559L1022.5 823.555L1025.5 823.555L1025.5 817.559L1022.5 817.559ZM1022.5 829.551L1022.5 835.548L1025.5 835.548L1025.5 829.551L1022.5 829.551ZM1022.5 841.544L1022.5 847.54L1025.5 847.54L1025.5 841.544L1022.5 841.544ZM1022.5 853.536L1022.5 859.532L1025.5 859.532L1025.5 853.536L1022.5 853.536ZM1022.5 865.528L1022.5 871.524L1025.5 871.524L1025.5 865.528L1022.5 865.528ZM1022.5 877.52L1022.5 883.516L1025.5 883.516L1025.5 877.52L1022.5 877.52ZM1022.5 889.512L1022.5 895.508L1025.5 895.508L1025.5 889.512L1022.5 889.512ZM1022.5 901.505L1022.5 907.501L1025.5 907.501L1025.5 901.505L1022.5 901.505ZM1022.5 913.497L1022.5 919.493L1025.5 919.493L1025.5 913.497L1022.5 913.497ZM1022.5 925.489L1022.5 931.485L1025.5 931.485L1025.5 925.489L1022.5 925.489ZM1022.5 937.481L1022.5 943.477L1025.5 943.477L1025.5 937.481L1022.5 937.481ZM1022.5 949.473L1022.5 955.469L1025.5 955.469L1025.5 949.473L1022.5 949.473ZM1022.5 961.466L1022.5 967.462L1025.5 967.462L1025.5 961.466L1022.5 961.466ZM1022.5 973.458L1022.5 979.454L1025.5 979.454L1025.5 973.458L1022.5 973.458ZM1022.5 985.45L1022.5 991.446L1025.5 991.446L1025.5 985.45L1022.5 985.45ZM1022.5 997.442L1022.5 1003.44L1025.5 1003.44L1025.5 997.442L1022.5 997.442ZM1022.5 1009.43L1022.5 1015.43L1025.5 1015.43L1025.5 1009.43L1022.5 1009.43ZM1022.5 1021.43L1022.5 1027.42L1025.5 1027.42L1025.5 1021.43L1022.5 1021.43ZM1022.5 1033.42L1022.5 1039.41L1025.5 1039.41L1025.5 1033.42L1022.5 1033.42ZM1022.5 1045.41L1022.5 1051.41L1025.5 1051.41L1025.5 1045.41L1022.5 1045.41ZM1022.5 1057.4L1022.5 1063.4L1025.5 1063.4L1025.5 1057.4L1022.5 1057.4ZM1022.5 1069.4L1022.5 1075.39L1025.5 1075.39L1025.5 1069.4L1022.5 1069.4ZM1022.5 1081.39L1022.5 1087.38L1025.5 1087.38L1025.5 1081.39L1022.5 1081.39ZM1022.5 1093.38L1022.5 1099.38L1025.5 1099.38L1025.5 1093.38L1022.5 1093.38ZM1022.5 1105.37L1022.5 1111.37L1025.5 1111.37L1025.5 1105.37L1022.5 1105.37ZM1022.5 1117.36L1022.5 1123.36L1025.5 1123.36L1025.5 1117.36L1022.5 1117.36ZM1022.5 1129.36L1022.5 1135.35L1025.5 1135.35L1025.5 1129.36L1022.5 1129.36ZM1022.5 1141.35L1022.5 1147.34L1025.5 1147.34L1025.5 1141.35L1022.5 1141.35ZM1022.5 1153.34L1022.5 1159.34L1025.5 1159.34L1025.5 1153.34L1022.5 1153.34ZM1022.5 1165.33L1022.5 1171.33L1025.5 1171.33L1025.5 1165.33L1022.5 1165.33ZM1022.5 1177.32L1022.5 1183.32L1025.5 1183.32L1025.5 1177.32L1022.5 1177.32ZM1022.5 1189.32L1022.5 1195.31L1025.5 1195.31L1025.5 1189.32L1022.5 1189.32ZM1022.5 1201.31L1022.5 1207.31L1025.5 1207.31L1025.5 1201.31L1022.5 1201.31ZM1022.5 1213.3L1022.5 1219.3L1025.5 1219.3L1025.5 1213.3L1022.5 1213.3ZM1022.5 1225.29L1022.5 1231.29L1025.5 1231.29L1025.5 1225.29L1022.5 1225.29ZM1022.5 1237.29L1022.5 1243.28L1025.5 1243.28L1025.5 1237.29L1022.5 1237.29ZM1022.5 1249.28L1022.5 1255.27L1025.5 1255.27L1025.5 1249.28L1022.5 1249.28ZM1022.5 1261.27L1022.5 1267.27L1025.5 1267.27L1025.5 1261.27L1022.5 1261.27ZM1022.5 1273.26L1022.5 1279.26L1025.5 1279.26L1025.5 1273.26L1022.5 1273.26ZM1022.5 1285.25L1022.5 1291.25L1025.5 1291.25L1025.5 1285.25L1022.5 1285.25ZM1022.5 1297.25L1022.5 1303.24L1025.5 1303.24L1025.5 1297.25L1022.5 1297.25ZM1022.5 1309.24L1022.5 1315.24L1025.5 1315.24L1025.5 1309.24L1022.5 1309.24ZM1022.5 1321.23L1022.5 1327.23L1025.5 1327.23L1025.5 1321.23L1022.5 1321.23ZM1022.5 1333.22L1022.5 1339.22L1025.5 1339.22L1025.5 1333.22L1022.5 1333.22ZM1022.5 1345.22L1022.5 1351.21L1025.5 1351.21L1025.5 1345.22L1022.5 1345.22ZM1022.5 1357.21L1022.5 1363.2L1025.5 1363.2L1025.5 1357.21L1022.5 1357.21ZM1022.5 1369.2L1022.5 1375.2L1025.5 1375.2L1025.5 1369.2L1022.5 1369.2ZM1022.5 1381.19L1022.5 1387.19L1025.5 1387.19L1025.5 1381.19L1022.5 1381.19ZM1022.5 1393.18L1022.5 1399.18L1025.5 1399.18L1025.5 1393.18L1022.5 1393.18ZM1022.5 1405.18L1022.5 1411.17L1025.5 1411.17L1025.5 1405.18L1022.5 1405.18ZM1022.5 1417.17L1022.5 1423.16L1025.5 1423.16L1025.5 1417.17L1022.5 1417.17ZM1022.5 1429.16L1022.5 1435.16L1025.5 1435.16L1025.5 1429.16L1022.5 1429.16ZM1022.5 1441.15L1022.5 1447.15L1025.5 1447.15L1025.5 1441.15L1022.5 1441.15ZM1022.5 1453.15L1022.5 1459.14L1025.5 1459.14L1025.5 1453.15L1022.5 1453.15ZM1022.5 1465.14L1022.5 1471.13L1025.5 1471.13L1025.5 1465.14L1022.5 1465.14ZM1022.5 1477.13L1022.5 1483.13L1025.5 1483.13L1025.5 1477.13L1022.5 1477.13ZM1022.5 1489.12L1022.5 1495.12L1025.5 1495.12L1025.5 1489.12L1022.5 1489.12ZM1022.5 1501.11L1022.5 1507.11L1025.5 1507.11L1025.5 1501.11L1022.5 1501.11ZM1022.5 1513.11L1022.5 1519.1L1025.5 1519.1L1025.5 1513.11L1022.5 1513.11ZM1022.5 1525.1L1022.5 1531.09L1025.5 1531.09L1025.5 1525.1L1022.5 1525.1ZM1022.5 1537.09L1022.5 1543.09L1025.5 1543.09L1025.5 1537.09L1022.5 1537.09ZM1022.5 1549.08L1022.5 1555.08L1025.5 1555.08L1025.5 1549.08L1022.5 1549.08ZM1022.5 1561.07L1022.5 1567.07L1025.5 1567.07L1025.5 1561.07L1022.5 1561.07ZM1022.5 1573.07L1022.5 1579.06L1025.5 1579.06L1025.5 1573.07L1022.5 1573.07ZM1022.5 1585.06L1022.5 1591.06L1025.5 1591.06L1025.5 1585.06L1022.5 1585.06ZM1022.5 1597.05L1022.5 1603.05L1025.5 1603.05L1025.5 1597.05L1022.5 1597.05ZM1022.5 1609.04L1022.5 1615.04L1025.5 1615.04L1025.5 1609.04L1022.5 1609.04ZM1022.5 1621.04L1022.5 1627.03L1025.5 1627.03L1025.5 1621.04L1022.5 1621.04ZM1022.5 1633.03L1022.5 1639.02L1025.5 1639.02L1025.5 1633.03L1022.5 1633.03ZM1022.5 1645.02L1022.5 1651.02L1025.5 1651.02L1025.5 1645.02L1022.5 1645.02ZM1022.5 1657.01L1022.5 1663.01L1025.5 1663.01L1025.5 1657.01L1022.5 1657.01ZM1022.5 1669L1022.5 1675L1025.5 1675L1025.5 1669L1022.5 1669Z" fill="#636871"/>
<path d="M1440 2402L1448.66 2387L1431.34 2387L1440 2402ZM1438.5 137L1438.5 139.996L1441.5 139.996L1441.5 137L1438.5 137ZM1438.5 145.988L1438.5 151.98L1441.5 151.98L1441.5 145.988L1438.5 145.988ZM1438.5 157.972L1438.5 163.964L1441.5 163.964L1441.5 157.972L1438.5 157.972ZM1438.5 169.956L1438.5 175.948L1441.5 175.948L1441.5 169.956L1438.5 169.956ZM1438.5 181.94L1438.5 187.933L1441.5 187.933L1441.5 181.94L1438.5 181.94ZM1438.5 193.925L1438.5 199.917L1441.5 199.917L1441.5 193.925L1438.5 193.925ZM1438.5 205.909L1438.5 211.901L1441.5 211.901L1441.5 205.909L1438.5 205.909ZM1438.5 217.893L1438.5 223.885L1441.5 223.885L1441.5 217.893L1438.5 217.893ZM1438.5 229.877L1438.5 235.869L1441.5 235.869L1441.5 229.877L1438.5 229.877ZM1438.5 241.861L1438.5 247.853L1441.5 247.853L1441.5 241.861L1438.5 241.861ZM1438.5 253.845L1438.5 259.837L1441.5 259.837L1441.5 253.845L1438.5 253.845ZM1438.5 265.829L1438.5 271.821L1441.5 271.821L1441.5 265.829L1438.5 265.829ZM1438.5 277.814L1438.5 283.806L1441.5 283.806L1441.5 277.814L1438.5 277.814ZM1438.5 289.798L1438.5 295.79L1441.5 295.79L1441.5 289.798L1438.5 289.798ZM1438.5 301.782L1438.5 307.774L1441.5 307.774L1441.5 301.782L1438.5 301.782ZM1438.5 313.766L1438.5 319.758L1441.5 319.758L1441.5 313.766L1438.5 313.766ZM1438.5 325.75L1438.5 331.742L1441.5 331.742L1441.5 325.75L1438.5 325.75ZM1438.5 337.734L1438.5 343.726L1441.5 343.726L1441.5 337.734L1438.5 337.734ZM1438.5 349.718L1438.5 355.71L1441.5 355.71L1441.5 349.718L1438.5 349.718ZM1438.5 361.702L1438.5 367.695L1441.5 367.695L1441.5 361.702L1438.5 361.702ZM1438.5 373.687L1438.5 379.679L1441.5 379.679L1441.5 373.687L1438.5 373.687ZM1438.5 385.671L1438.5 391.663L1441.5 391.663L1441.5 385.671L1438.5 385.671ZM1438.5 397.655L1438.5 403.647L1441.5 403.647L1441.5 397.655L1438.5 397.655ZM1438.5 409.639L1438.5 415.631L1441.5 415.631L1441.5 409.639L1438.5 409.639ZM1438.5 421.623L1438.5 427.615L1441.5 427.615L1441.5 421.623L1438.5 421.623ZM1438.5 433.607L1438.5 439.599L1441.5 439.599L1441.5 433.607L1438.5 433.607ZM1438.5 445.591L1438.5 451.583L1441.5 451.583L1441.5 445.591L1438.5 445.591ZM1438.5 457.575L1438.5 463.568L1441.5 463.568L1441.5 457.575L1438.5 457.575ZM1438.5 469.56L1438.5 475.552L1441.5 475.552L1441.5 469.56L1438.5 469.56ZM1438.5 481.544L1438.5 487.536L1441.5 487.536L1441.5 481.544L1438.5 481.544ZM1438.5 493.528L1438.5 499.52L1441.5 499.52L1441.5 493.528L1438.5 493.528ZM1438.5 505.512L1438.5 511.504L1441.5 511.504L1441.5 505.512L1438.5 505.512ZM1438.5 517.496L1438.5 523.488L1441.5 523.488L1441.5 517.496L1438.5 517.496ZM1438.5 529.48L1438.5 535.472L1441.5 535.472L1441.5 529.48L1438.5 529.48ZM1438.5 541.464L1438.5 547.456L1441.5 547.456L1441.5 541.464L1438.5 541.464ZM1438.5 553.449L1438.5 559.441L1441.5 559.441L1441.5 553.449L1438.5 553.449ZM1438.5 565.433L1438.5 571.425L1441.5 571.425L1441.5 565.433L1438.5 565.433ZM1438.5 577.417L1438.5 583.409L1441.5 583.409L1441.5 577.417L1438.5 577.417ZM1438.5 589.401L1438.5 595.393L1441.5 595.393L1441.5 589.401L1438.5 589.401ZM1438.5 601.385L1438.5 607.377L1441.5 607.377L1441.5 601.385L1438.5 601.385ZM1438.5 613.369L1438.5 619.361L1441.5 619.361L1441.5 613.369L1438.5 613.369ZM1438.5 625.353L1438.5 631.345L1441.5 631.345L1441.5 625.353L1438.5 625.353ZM1438.5 637.337L1438.5 643.329L1441.5 643.329L1441.5 637.337L1438.5 637.337ZM1438.5 649.322L1438.5 655.314L1441.5 655.314L1441.5 649.322L1438.5 649.322ZM1438.5 661.306L1438.5 667.298L1441.5 667.298L1441.5 661.306L1438.5 661.306ZM1438.5 673.29L1438.5 679.282L1441.5 679.282L1441.5 673.29L1438.5 673.29ZM1438.5 685.274L1438.5 691.266L1441.5 691.266L1441.5 685.274L1438.5 685.274ZM1438.5 697.258L1438.5 703.25L1441.5 703.25L1441.5 697.258L1438.5 697.258ZM1438.5 709.242L1438.5 715.234L1441.5 715.234L1441.5 709.242L1438.5 709.242ZM1438.5 721.226L1438.5 727.218L1441.5 727.218L1441.5 721.226L1438.5 721.226ZM1438.5 733.21L1438.5 739.203L1441.5 739.203L1441.5 733.21L1438.5 733.21ZM1438.5 745.195L1438.5 751.187L1441.5 751.187L1441.5 745.195L1438.5 745.195ZM1438.5 757.179L1438.5 763.171L1441.5 763.171L1441.5 757.179L1438.5 757.179ZM1438.5 769.163L1438.5 775.155L1441.5 775.155L1441.5 769.163L1438.5 769.163ZM1438.5 781.147L1438.5 787.139L1441.5 787.139L1441.5 781.147L1438.5 781.147ZM1438.5 793.131L1438.5 799.123L1441.5 799.123L1441.5 793.131L1438.5 793.131ZM1438.5 805.115L1438.5 811.107L1441.5 811.107L1441.5 805.115L1438.5 805.115ZM1438.5 817.099L1438.5 823.091L1441.5 823.091L1441.5 817.099L1438.5 817.099ZM1438.5 829.083L1438.5 835.076L1441.5 835.076L1441.5 829.083L1438.5 829.083ZM1438.5 841.068L1438.5 847.06L1441.5 847.06L1441.5 841.068L1438.5 841.068ZM1438.5 853.052L1438.5 859.044L1441.5 859.044L1441.5 853.052L1438.5 853.052ZM1438.5 865.036L1438.5 871.028L1441.5 871.028L1441.5 865.036L1438.5 865.036ZM1438.5 877.02L1438.5 883.012L1441.5 883.012L1441.5 877.02L1438.5 877.02ZM1438.5 889.004L1438.5 894.996L1441.5 894.996L1441.5 889.004L1438.5 889.004ZM1438.5 900.988L1438.5 906.98L1441.5 906.98L1441.5 900.988L1438.5 900.988ZM1438.5 912.972L1438.5 918.964L1441.5 918.964L1441.5 912.972L1438.5 912.972ZM1438.5 924.957L1438.5 930.949L1441.5 930.949L1441.5 924.957L1438.5 924.957ZM1438.5 936.941L1438.5 942.933L1441.5 942.933L1441.5 936.941L1438.5 936.941ZM1438.5 948.925L1438.5 954.917L1441.5 954.917L1441.5 948.925L1438.5 948.925ZM1438.5 960.909L1438.5 966.901L1441.5 966.901L1441.5 960.909L1438.5 960.909ZM1438.5 972.893L1438.5 978.885L1441.5 978.885L1441.5 972.893L1438.5 972.893ZM1438.5 984.877L1438.5 990.869L1441.5 990.869L1441.5 984.877L1438.5 984.877ZM1438.5 996.861L1438.5 1002.85L1441.5 1002.85L1441.5 996.861L1438.5 996.861ZM1438.5 1008.85L1438.5 1014.84L1441.5 1014.84L1441.5 1008.85L1438.5 1008.85ZM1438.5 1020.83L1438.5 1026.82L1441.5 1026.82L1441.5 1020.83L1438.5 1020.83ZM1438.5 1032.81L1438.5 1038.81L1441.5 1038.81L1441.5 1032.81L1438.5 1032.81ZM1438.5 1044.8L1438.5 1050.79L1441.5 1050.79L1441.5 1044.8L1438.5 1044.8ZM1438.5 1056.78L1438.5 1062.77L1441.5 1062.77L1441.5 1056.78L1438.5 1056.78ZM1438.5 1068.77L1438.5 1074.76L1441.5 1074.76L1441.5 1068.77L1438.5 1068.77ZM1438.5 1080.75L1438.5 1086.74L1441.5 1086.74L1441.5 1080.75L1438.5 1080.75ZM1438.5 1092.73L1438.5 1098.73L1441.5 1098.73L1441.5 1092.73L1438.5 1092.73ZM1438.5 1104.72L1438.5 1110.71L1441.5 1110.71L1441.5 1104.72L1438.5 1104.72ZM1438.5 1116.7L1438.5 1122.69L1441.5 1122.69L1441.5 1116.7L1438.5 1116.7ZM1438.5 1128.69L1438.5 1134.68L1441.5 1134.68L1441.5 1128.69L1438.5 1128.69ZM1438.5 1140.67L1438.5 1146.66L1441.5 1146.66L1441.5 1140.67L1438.5 1140.67ZM1438.5 1152.66L1438.5 1158.65L1441.5 1158.65L1441.5 1152.66L1438.5 1152.66ZM1438.5 1164.64L1438.5 1170.63L1441.5 1170.63L1441.5 1164.64L1438.5 1164.64ZM1438.5 1176.62L1438.5 1182.62L1441.5 1182.62L1441.5 1176.62L1438.5 1176.62ZM1438.5 1188.61L1438.5 1194.6L1441.5 1194.6L1441.5 1188.61L1438.5 1188.61ZM1438.5 1200.59L1438.5 1206.58L1441.5 1206.58L1441.5 1200.59L1438.5 1200.59ZM1438.5 1212.58L1438.5 1218.57L1441.5 1218.57L1441.5 1212.58L1438.5 1212.58ZM1438.5 1224.56L1438.5 1230.55L1441.5 1230.55L1441.5 1224.56L1438.5 1224.56ZM1438.5 1236.54L1438.5 1242.54L1441.5 1242.54L1441.5 1236.54L1438.5 1236.54ZM1438.5 1248.53L1438.5 1254.52L1441.5 1254.52L1441.5 1248.53L1438.5 1248.53ZM1438.5 1260.51L1438.5 1266.5L1441.5 1266.5L1441.5 1260.51L1438.5 1260.51ZM1438.5 1272.5L1438.5 1278.49L1441.5 1278.49L1441.5 1272.5L1438.5 1272.5ZM1438.5 1284.48L1438.5 1290.47L1441.5 1290.47L1441.5 1284.48L1438.5 1284.48ZM1438.5 1296.46L1438.5 1302.46L1441.5 1302.46L1441.5 1296.46L1438.5 1296.46ZM1438.5 1308.45L1438.5 1314.44L1441.5 1314.44L1441.5 1308.45L1438.5 1308.45ZM1438.5 1320.43L1438.5 1326.42L1441.5 1326.42L1441.5 1320.43L1438.5 1320.43ZM1438.5 1332.42L1438.5 1338.41L1441.5 1338.41L1441.5 1332.42L1438.5 1332.42ZM1438.5 1344.4L1438.5 1350.39L1441.5 1350.39L1441.5 1344.4L1438.5 1344.4ZM1438.5 1356.39L1438.5 1362.38L1441.5 1362.38L1441.5 1356.39L1438.5 1356.39ZM1438.5 1368.37L1438.5 1374.36L1441.5 1374.36L1441.5 1368.37L1438.5 1368.37ZM1438.5 1380.35L1438.5 1386.35L1441.5 1386.35L1441.5 1380.35L1438.5 1380.35ZM1438.5 1392.34L1438.5 1398.33L1441.5 1398.33L1441.5 1392.34L1438.5 1392.34ZM1438.5 1404.32L1438.5 1410.31L1441.5 1410.31L1441.5 1404.32L1438.5 1404.32ZM1438.5 1416.31L1438.5 1422.3L1441.5 1422.3L1441.5 1416.31L1438.5 1416.31ZM1438.5 1428.29L1438.5 1434.28L1441.5 1434.28L1441.5 1428.29L1438.5 1428.29ZM1438.5 1440.27L1438.5 1446.27L1441.5 1446.27L1441.5 1440.27L1438.5 1440.27ZM1438.5 1452.26L1438.5 1458.25L1441.5 1458.25L1441.5 1452.26L1438.5 1452.26ZM1438.5 1464.24L1438.5 1470.23L1441.5 1470.23L1441.5 1464.24L1438.5 1464.24ZM1438.5 1476.23L1438.5 1482.22L1441.5 1482.22L1441.5 1476.23L1438.5 1476.23ZM1438.5 1488.21L1438.5 1494.2L1441.5 1494.2L1441.5 1488.21L1438.5 1488.21ZM1438.5 1500.19L1438.5 1506.19L1441.5 1506.19L1441.5 1500.19L1438.5 1500.19ZM1438.5 1512.18L1438.5 1518.17L1441.5 1518.17L1441.5 1512.18L1438.5 1512.18ZM1438.5 1524.16L1438.5 1530.16L1441.5 1530.16L1441.5 1524.16L1438.5 1524.16ZM1438.5 1536.15L1438.5 1542.14L1441.5 1542.14L1441.5 1536.15L1438.5 1536.15ZM1438.5 1548.13L1438.5 1554.12L1441.5 1554.12L1441.5 1548.13L1438.5 1548.13ZM1438.5 1560.12L1438.5 1566.11L1441.5 1566.11L1441.5 1560.12L1438.5 1560.12ZM1438.5 1572.1L1438.5 1578.09L1441.5 1578.09L1441.5 1572.1L1438.5 1572.1ZM1438.5 1584.08L1438.5 1590.08L1441.5 1590.08L1441.5 1584.08L1438.5 1584.08ZM1438.5 1596.07L1438.5 1602.06L1441.5 1602.06L1441.5 1596.07L1438.5 1596.07ZM1438.5 1608.05L1438.5 1614.04L1441.5 1614.04L1441.5 1608.05L1438.5 1608.05ZM1438.5 1620.04L1438.5 1626.03L1441.5 1626.03L1441.5 1620.04L1438.5 1620.04ZM1438.5 1632.02L1438.5 1638.01L1441.5 1638.01L1441.5 1632.02L1438.5 1632.02ZM1438.5 1644L1438.5 1650L1441.5 1650L1441.5 1644L1438.5 1644ZM1438.5 1655.99L1438.5 1661.98L1441.5 1661.98L1441.5 1655.99L1438.5 1655.99ZM1438.5 1667.97L1438.5 1673.96L1441.5 1673.96L1441.5 1667.97L1438.5 1667.97ZM1438.5 1679.96L1438.5 1685.95L1441.5 1685.95L1441.5 1679.96L1438.5 1679.96ZM1438.5 1691.94L1438.5 1697.93L1441.5 1697.93L1441.5 1691.94L1438.5 1691.94ZM1438.5 1703.93L1438.5 1709.92L1441.5 1709.92L1441.5 1703.93L1438.5 1703.93ZM1438.5 1715.91L1438.5 1721.9L1441.5 1721.9L1441.5 1715.91L1438.5 1715.91ZM1438.5 1727.89L1438.5 1733.89L1441.5 1733.89L1441.5 1727.89L1438.5 1727.89ZM1438.5 1739.88L1438.5 1745.87L1441.5 1745.87L1441.5 1739.88L1438.5 1739.88ZM1438.5 1751.86L1438.5 1757.85L1441.5 1757.85L1441.5 1751.86L1438.5 1751.86ZM1438.5 1763.85L1438.5 1769.84L1441.5 1769.84L1441.5 1763.85L1438.5 1763.85ZM1438.5 1775.83L1438.5 1781.82L1441.5 1781.82L1441.5 1775.83L1438.5 1775.83ZM1438.5 1787.81L1438.5 1793.81L1441.5 1793.81L1441.5 1787.81L1438.5 1787.81ZM1438.5 1799.8L1438.5 1805.79L1441.5 1805.79L1441.5 1799.8L1438.5 1799.8ZM1438.5 1811.78L1438.5 1817.77L1441.5 1817.77L1441.5 1811.78L1438.5 1811.78ZM1438.5 1823.77L1438.5 1829.76L1441.5 1829.76L1441.5 1823.77L1438.5 1823.77ZM1438.5 1835.75L1438.5 1841.74L1441.5 1841.74L1441.5 1835.75L1438.5 1835.75ZM1438.5 1847.73L1438.5 1853.73L1441.5 1853.73L1441.5 1847.73L1438.5 1847.73ZM1438.5 1859.72L1438.5 1865.71L1441.5 1865.71L1441.5 1859.72L1438.5 1859.72ZM1438.5 1871.7L1438.5 1877.69L1441.5 1877.69L1441.5 1871.7L1438.5 1871.7ZM1438.5 1883.69L1438.5 1889.68L1441.5 1889.68L1441.5 1883.69L1438.5 1883.69ZM1438.5 1895.67L1438.5 1901.66L1441.5 1901.66L1441.5 1895.67L1438.5 1895.67ZM1438.5 1907.66L1438.5 1913.65L1441.5 1913.65L1441.5 1907.66L1438.5 1907.66ZM1438.5 1919.64L1438.5 1925.63L1441.5 1925.63L1441.5 1919.64L1438.5 1919.64ZM1438.5 1931.62L1438.5 1937.62L1441.5 1937.62L1441.5 1931.62L1438.5 1931.62ZM1438.5 1943.61L1438.5 1949.6L1441.5 1949.6L1441.5 1943.61L1438.5 1943.61ZM1438.5 1955.59L1438.5 1961.58L1441.5 1961.58L1441.5 1955.59L1438.5 1955.59ZM1438.5 1967.58L1438.5 1973.57L1441.5 1973.57L1441.5 1967.58L1438.5 1967.58ZM1438.5 1979.56L1438.5 1985.55L1441.5 1985.55L1441.5 1979.56L1438.5 1979.56ZM1438.5 1991.54L1438.5 1997.54L1441.5 1997.54L1441.5 1991.54L1438.5 1991.54ZM1438.5 2003.53L1438.5 2009.52L1441.5 2009.52L1441.5 2003.53L1438.5 2003.53ZM1438.5 2015.51L1438.5 2021.5L1441.5 2021.5L1441.5 2015.51L1438.5 2015.51ZM1438.5 2027.5L1438.5 2033.49L1441.5 2033.49L1441.5 2027.5L1438.5 2027.5ZM1438.5 2039.48L1438.5 2045.47L1441.5 2045.47L1441.5 2039.48L1438.5 2039.48ZM1438.5 2051.46L1438.5 2057.46L1441.5 2057.46L1441.5 2051.46L1438.5 2051.46ZM1438.5 2063.45L1438.5 2069.44L1441.5 2069.44L1441.5 2063.45L1438.5 2063.45ZM1438.5 2075.43L1438.5 2081.43L1441.5 2081.43L1441.5 2075.43L1438.5 2075.43ZM1438.5 2087.42L1438.5 2093.41L1441.5 2093.41L1441.5 2087.42L1438.5 2087.42ZM1438.5 2099.4L1438.5 2105.39L1441.5 2105.39L1441.5 2099.4L1438.5 2099.4ZM1438.5 2111.39L1438.5 2117.38L1441.5 2117.38L1441.5 2111.39L1438.5 2111.39ZM1438.5 2123.37L1438.5 2129.36L1441.5 2129.36L1441.5 2123.37L1438.5 2123.37ZM1438.5 2135.35L1438.5 2141.35L1441.5 2141.35L1441.5 2135.35L1438.5 2135.35ZM1438.5 2147.34L1438.5 2153.33L1441.5 2153.33L1441.5 2147.34L1438.5 2147.34ZM1438.5 2159.32L1438.5 2165.31L1441.5 2165.31L1441.5 2159.32L1438.5 2159.32ZM1438.5 2171.31L1438.5 2177.3L1441.5 2177.3L1441.5 2171.31L1438.5 2171.31ZM1438.5 2183.29L1438.5 2189.28L1441.5 2189.28L1441.5 2183.29L1438.5 2183.29ZM1438.5 2195.27L1438.5 2201.27L1441.5 2201.27L1441.5 2195.27L1438.5 2195.27ZM1438.5 2207.26L1438.5 2213.25L1441.5 2213.25L1441.5 2207.26L1438.5 2207.26ZM1438.5 2219.24L1438.5 2225.23L1441.5 2225.23L1441.5 2219.24L1438.5 2219.24ZM1438.5 2231.23L1438.5 2237.22L1441.5 2237.22L1441.5 2231.23L1438.5 2231.23ZM1438.5 2243.21L1438.5 2249.2L1441.5 2249.2L1441.5 2243.21L1438.5 2243.21ZM1438.5 2255.19L1438.5 2261.19L1441.5 2261.19L1441.5 2255.19L1438.5 2255.19ZM1438.5 2267.18L1438.5 2273.17L1441.5 2273.17L1441.5 2267.18L1438.5 2267.18ZM1438.5 2279.16L1438.5 2285.15L1441.5 2285.15L1441.5 2279.16L1438.5 2279.16ZM1438.5 2291.15L1438.5 2297.14L1441.5 2297.14L1441.5 2291.15L1438.5 2291.15ZM1438.5 2303.13L1438.5 2309.12L1441.5 2309.12L1441.5 2303.13L1438.5 2303.13ZM1438.5 2315.11L1438.5 2321.1L1441.5 2321.1L1441.5 2315.11L1438.5 2315.11ZM1438.5 2327.1L1438.5 2333.09L1441.5 2333.09L1441.5 2327.1L1438.5 2327.1ZM1438.5 2339.08L1438.5 2345.07L1441.5 2345.07L1441.5 2339.08L1438.5 2339.08ZM1438.5 2351.06L1438.5 2357.06L1441.5 2357.06L1441.5 2351.06L1438.5 2351.06ZM1438.5 2363.05L1438.5 2369.04L1441.5 2369.04L1441.5 2363.05L1438.5 2363.05ZM1438.5 2375.03L1438.5 2381.02L1441.5 2381.02L1441.5 2375.03L1438.5 2375.03ZM1438.5 2387.02L1438.5 2393.01L1441.5 2393.01L1441.5 2387.02L1438.5 2387.02Z" fill="#636871"/>
<rect width="360" height="640" transform="translate(7 250)" fill="white"/>
<rect x="23" y="250" width="41.3333" height="639" fill="#D32F2F" fill-opacity="0.1"/>
<rect x="80.3335" y="250" width="41.3333" height="639" fill="#D32F2F" fill-opacity="0.1"/>
<rect x="137.667" y="250" width="41.3333" height="639" fill="#D32F2F" fill-opacity="0.1"/>
<rect x="195" y="250" width="41.3333" height="639" fill="#D32F2F" fill-opacity="0.1"/>
<rect x="252.333" y="250" width="41.3333" height="639" fill="#D32F2F" fill-opacity="0.1"/>
<rect x="309.667" y="250" width="41.3333" height="639" fill="#D32F2F" fill-opacity="0.1"/>
<rect width="768" height="640" transform="translate(7 985)" fill="white"/>
<rect x="23" y="985" width="109.333" height="639" fill="#D32F2F" fill-opacity="0.1"/>
<rect x="148.333" y="985" width="109.333" height="639" fill="#D32F2F" fill-opacity="0.1"/>
<rect x="273.667" y="985" width="109.333" height="639" fill="#D32F2F" fill-opacity="0.1"/>
<rect x="399" y="985" width="109.333" height="639" fill="#D32F2F" fill-opacity="0.1"/>
<rect x="524.333" y="985" width="109.333" height="639" fill="#D32F2F" fill-opacity="0.1"/>
<rect x="649.667" y="985" width="109.333" height="639" fill="#D32F2F" fill-opacity="0.1"/>
<rect width="1024" height="640" transform="translate(7 1720)" fill="white"/>
<rect x="23" y="1720" width="68" height="639" fill="#D32F2F" fill-opacity="0.1"/>
<rect x="107" y="1720" width="68" height="639" fill="#D32F2F" fill-opacity="0.1"/>
<rect x="191" y="1720" width="68" height="639" fill="#D32F2F" fill-opacity="0.1"/>
<rect x="275" y="1720" width="68" height="639" fill="#D32F2F" fill-opacity="0.1"/>
<rect x="359" y="1720" width="68" height="639" fill="#D32F2F" fill-opacity="0.1"/>
<rect x="443" y="1720" width="68" height="639" fill="#D32F2F" fill-opacity="0.1"/>
<rect x="527" y="1720" width="68" height="639" fill="#D32F2F" fill-opacity="0.1"/>
<rect x="611" y="1720" width="68" height="639" fill="#D32F2F" fill-opacity="0.1"/>
<rect x="695" y="1720" width="68" height="639" fill="#D32F2F" fill-opacity="0.1"/>
<rect x="779" y="1720" width="68" height="639" fill="#D32F2F" fill-opacity="0.1"/>
<rect x="863" y="1720" width="68" height="639" fill="#D32F2F" fill-opacity="0.1"/>
<rect x="947" y="1720" width="68" height="639" fill="#D32F2F" fill-opacity="0.1"/>
<g clip-path="url(#clip0_26_4277)">
<rect width="1440" height="640" transform="translate(5 2455)" fill="white"/>
<rect x="21" y="2454.77" width="102.667" height="639" fill="#D32F2F" fill-opacity="0.1"/>
<rect x="139.667" y="2454.77" width="102.667" height="639" fill="#D32F2F" fill-opacity="0.1"/>
<rect x="258.333" y="2454.77" width="102.667" height="639" fill="#D32F2F" fill-opacity="0.1"/>
<rect x="377" y="2454.77" width="102.667" height="639" fill="#D32F2F" fill-opacity="0.1"/>
<rect x="495.667" y="2454.77" width="102.667" height="639" fill="#D32F2F" fill-opacity="0.1"/>
<rect x="614.333" y="2454.77" width="102.667" height="639" fill="#D32F2F" fill-opacity="0.1"/>
<rect x="733" y="2454.77" width="102.667" height="639" fill="#D32F2F" fill-opacity="0.1"/>
<rect x="851.667" y="2454.77" width="102.667" height="639" fill="#D32F2F" fill-opacity="0.1"/>
<rect x="970.333" y="2454.77" width="102.667" height="639" fill="#D32F2F" fill-opacity="0.1"/>
<rect x="1089" y="2454.77" width="102.667" height="639" fill="#D32F2F" fill-opacity="0.1"/>
<rect x="1207.67" y="2454.77" width="102.667" height="639" fill="#D32F2F" fill-opacity="0.1"/>
<rect x="1326.33" y="2454.77" width="102.667" height="639" fill="#D32F2F" fill-opacity="0.1"/>
</g>
<defs>
<clipPath id="clip0_26_4277">
<rect width="1440" height="640" fill="white" transform="translate(5 2455)"/>
</clipPath>
</defs>
</svg>
