<svg width="1783" height="732" viewBox="0 0 1783 732" fill="none" xmlns="http://www.w3.org/2000/svg">
<rect width="1783" height="602" fill="white"/>
<rect width="1783" height="90" fill="#636871"/>
<path d="M19.3867 52H22.3359V45.8867C22.3359 44.3633 23.332 43.3281 24.8555 43.3281C26.0469 43.3281 26.6914 43.9336 26.6914 45.5742V52H29.6602V45.4375C29.6602 42.3906 28.3711 41.0039 25.8516 41.0039C24.3477 41.0039 23.0781 41.6289 22.3555 42.7617L22.3359 37.625H19.3867V52ZM37.8438 52.2148C39.4844 52.2148 41.1641 51.707 42.1602 50.8281L41.3008 48.875C40.4023 49.6367 39.1523 49.9688 37.9609 49.9688C35.9102 49.9688 34.8555 49.1094 34.6797 47.2344H42.2969V46.4727C42.2969 43.1133 40.4023 41.0039 37.2969 41.0039C34.0352 41.0039 31.7891 43.3086 31.7891 46.6289C31.7891 50.1641 34.1328 52.2148 37.8438 52.2148ZM34.6797 45.6719C34.875 43.9336 35.832 43.0547 37.375 43.0547C38.8398 43.0547 39.6797 43.8945 39.7773 45.6719H34.6797ZM47.9219 52.2148C49.4258 52.2148 50.5 51.5117 50.9883 50.3984V52H53.7617V45.3594C53.7617 42.332 52.1406 41.0039 49.0156 41.0039C47.3945 41.0039 45.4023 41.5312 44.2695 42.3125L45.0898 44.3438C46.2812 43.6016 47.6094 43.2305 48.8789 43.2305C50.3242 43.2305 50.9492 43.7188 50.9492 45.0273V45.6328H50.0703C45.3242 45.6328 43.8594 46.5898 43.8594 48.7383C43.8594 50.6914 45.4805 52.2148 47.9219 52.2148ZM46.7305 48.6602C46.7305 47.6641 47.4727 47.1758 50.0898 47.1758H50.9492V47.8203C50.9492 49.2852 49.8945 50.1641 48.5469 50.1641C47.3945 50.1641 46.7305 49.5781 46.7305 48.6602ZM60.6367 52.2148C62.1602 52.2148 63.4883 51.5508 64.1133 50.418V52H67.0234V37.625H64.0547V42.7227C63.3906 41.6289 62.1016 41.0039 60.6367 41.0039C57.7852 41.0039 55.8906 43.0742 55.8906 46.6094C55.8906 50.125 57.8047 52.2148 60.6367 52.2148ZM58.8789 46.5898C58.8789 44.3047 59.9141 43.25 61.5156 43.25C63.0977 43.25 64.1133 44.3047 64.1133 46.5898C64.1133 48.875 63.0977 49.9492 61.5156 49.9492C59.9141 49.9492 58.8789 48.875 58.8789 46.5898ZM75.2461 52.2148C76.8867 52.2148 78.5664 51.707 79.5625 50.8281L78.7031 48.875C77.8047 49.6367 76.5547 49.9688 75.3633 49.9688C73.3125 49.9688 72.2578 49.1094 72.082 47.2344H79.6992V46.4727C79.6992 43.1133 77.8047 41.0039 74.6992 41.0039C71.4375 41.0039 69.1914 43.3086 69.1914 46.6289C69.1914 50.1641 71.5352 52.2148 75.2461 52.2148ZM72.082 45.6719C72.2773 43.9336 73.2344 43.0547 74.7773 43.0547C76.2422 43.0547 77.082 43.8945 77.1797 45.6719H72.082ZM81.75 52H84.7578V46.1602C84.7578 44.5977 85.6172 43.7773 87.4531 43.6211L89.0742 43.4453L88.8789 40.9453L88.0195 41.0234C86.3398 41.1406 85.1875 41.8047 84.6406 43.0547V41.2188H81.75V52Z" fill="white"/>
<rect width="1783" height="512" transform="translate(0 90)" fill="#E8E9FF"/>
<rect width="675" height="479" transform="translate(208.5 106)" fill="#0091EA"/>
<path d="M482.257 144.254C484.085 144.254 485.938 143.67 487.132 142.477L486.065 140.42C485.05 141.41 483.729 141.867 482.511 141.867C479.921 141.867 478.347 140.166 478.347 136.967C478.347 133.717 479.921 132.092 482.511 132.092C483.78 132.092 485.05 132.6 486.065 133.564L487.132 131.482C485.964 130.365 484.187 129.73 482.257 129.73C478.093 129.73 475.249 132.27 475.249 136.941C475.249 141.588 478.042 144.254 482.257 144.254ZM495.638 144.254C499.878 144.254 502.569 141.537 502.569 136.992C502.569 132.422 499.878 129.73 495.638 129.73C491.397 129.73 488.681 132.422 488.681 136.992C488.681 141.537 491.397 144.254 495.638 144.254ZM491.728 136.992C491.728 133.666 493.276 132.066 495.638 132.066C498.024 132.066 499.548 133.666 499.548 136.992C499.548 140.293 498.024 141.918 495.638 141.918C493.276 141.918 491.728 140.293 491.728 136.992ZM505.794 144H508.815V135.977C508.815 133.666 510.288 132.117 512.573 132.117C514.478 132.117 515.417 133.057 515.417 135.494V144H518.438V135.342C518.438 131.432 516.737 129.73 513.462 129.73C511.405 129.73 509.729 130.594 508.765 132.168V129.984H505.794V144ZM528.341 144.254C529.356 144.254 530.448 144 531.083 143.67L530.626 141.436C530.042 141.613 529.458 141.766 528.823 141.766C526.97 141.766 526.157 140.801 526.157 138.896V132.244H530.474V129.984H526.157V126.43H523.136V129.984H520.394V132.244H523.136V139.125C523.136 142.477 524.888 144.254 528.341 144.254ZM537.456 144.279C539.462 144.279 540.935 143.314 541.62 141.791V144H544.438V135.088C544.438 131.305 542.458 129.73 538.751 129.73C536.694 129.73 534.308 130.365 532.86 131.381L533.749 133.514C535.272 132.523 536.948 132.041 538.624 132.041C540.63 132.041 541.569 132.803 541.569 134.809V135.824H540.401C534.181 135.824 532.327 137.018 532.327 139.836C532.327 142.35 534.384 144.279 537.456 144.279ZM535.272 139.76C535.272 138.186 536.339 137.525 540.427 137.525H541.569V138.516C541.569 140.725 540.021 142.096 538.04 142.096C536.313 142.096 535.272 141.182 535.272 139.76ZM548.399 127.344H551.421V124.195H548.399V127.344ZM548.399 144H551.421V129.984H548.399V144ZM555.382 144H558.403V135.977C558.403 133.666 559.876 132.117 562.161 132.117C564.065 132.117 565.005 133.057 565.005 135.494V144H568.026V135.342C568.026 131.432 566.325 129.73 563.05 129.73C560.993 129.73 559.317 130.594 558.353 132.168V129.984H555.382V144ZM578.665 144.254C580.772 144.254 582.905 143.594 584.175 142.375L583.21 140.369C581.991 141.461 580.392 141.918 578.767 141.918C575.897 141.918 574.272 140.547 574.095 137.602H584.353V136.688C584.353 132.346 581.991 129.73 578.081 129.73C573.993 129.73 571.149 132.625 571.149 137.018C571.149 141.639 574.069 144.254 578.665 144.254ZM574.12 135.9C574.374 133.285 575.847 131.889 578.157 131.889C580.392 131.889 581.636 133.184 581.763 135.9H574.12ZM587.349 144H590.396V136.053C590.396 133.869 591.69 132.6 594.229 132.371L595.981 132.193L595.778 129.629L594.813 129.73C592.579 129.883 591.03 130.721 590.294 132.371V129.984H587.349V144ZM604.056 144H616.421V141.537H607.813L612.638 136.357C614.847 134.047 615.685 132.27 615.685 130.086C615.685 127.039 613.399 125.084 609.769 125.084C607.483 125.084 605.021 125.973 603.548 127.293L604.513 129.527C606.265 128.207 607.991 127.496 609.667 127.496C611.647 127.496 612.765 128.461 612.765 130.289C612.765 131.711 612.003 133.107 610.454 134.809L604.056 141.766V144Z" fill="white"/>
<rect x="239.5" y="163" width="613" height="406" fill="#00ADEF"/>
<path d="M507.406 377.254C511.494 377.254 514.059 375.121 514.059 371.973C514.059 369.434 512.484 367.961 509.107 367.174L506.416 366.59C504.258 366.107 503.344 365.143 503.344 363.492C503.344 361.41 504.994 360.064 507.635 360.064C509.666 360.064 511.316 360.725 512.789 362.07L513.576 360.293C512.154 358.871 510.021 358.059 507.635 358.059C503.699 358.059 501.033 360.293 501.033 363.619C501.033 366.285 502.607 367.859 505.756 368.57L508.447 369.18C510.809 369.713 511.773 370.551 511.773 372.1C511.773 374.029 510.352 375.248 507.406 375.248C504.969 375.248 503.141 374.562 501.439 373.242L500.652 375.096C502.303 376.441 504.664 377.254 507.406 377.254ZM523.605 377.254C525.688 377.254 527.795 376.568 529.014 375.273L528.201 373.725C526.932 374.918 525.332 375.4 523.682 375.4C520.584 375.4 518.807 373.801 518.654 370.449H529.191V369.586C529.191 365.27 526.932 362.73 523.148 362.73C519.162 362.73 516.395 365.574 516.395 370.043C516.395 374.639 519.188 377.254 523.605 377.254ZM518.68 368.977C518.959 366.082 520.609 364.457 523.199 364.457C525.688 364.457 527.084 365.955 527.211 368.977H518.68ZM538.383 377.254C540.186 377.254 541.963 376.619 543.156 375.375L542.268 373.775C541.201 374.893 539.83 375.375 538.535 375.375C535.742 375.375 534.016 373.471 534.016 369.941C534.016 366.387 535.742 364.584 538.535 364.584C539.906 364.584 541.201 365.143 542.268 366.209L543.156 364.584C542.014 363.416 540.287 362.73 538.357 362.73C534.396 362.73 531.654 365.244 531.654 369.916C531.654 374.562 534.32 377.254 538.383 377.254ZM551.332 377.254C552.271 377.254 553.338 377 553.871 376.695L553.465 374.969C552.932 375.146 552.322 375.324 551.662 375.324C549.656 375.324 548.768 374.232 548.768 372.1V364.736H553.186V362.984H548.768V359.404H546.482V362.984H543.715V364.736H546.482V372.328C546.482 375.527 548.158 377.254 551.332 377.254ZM555.826 360.039H558.111V357.322H555.826V360.039ZM555.826 377H558.111V362.984H555.826V377ZM568.268 377.254C572.33 377.254 574.92 374.562 574.92 369.967C574.92 365.396 572.33 362.73 568.268 362.73C564.205 362.73 561.59 365.396 561.59 369.967C561.59 374.562 564.205 377.254 568.268 377.254ZM563.926 369.967C563.926 366.361 565.627 364.584 568.268 364.584C570.908 364.584 572.609 366.361 572.609 369.967C572.609 373.572 570.908 375.4 568.268 375.4C565.627 375.4 563.926 373.572 563.926 369.967ZM578.449 377H580.734V368.926C580.734 366.336 582.385 364.609 584.975 364.609C587.133 364.609 588.199 365.676 588.199 368.367V377H590.484V368.24C590.484 364.381 588.732 362.73 585.508 362.73C583.324 362.73 581.648 363.67 580.709 365.346V362.984H578.449V377Z" fill="white"/>
<rect width="675" height="480" transform="translate(899.5 106)" fill="#0091EA"/>
<path d="M1174.54 144.254C1176.34 144.254 1178.12 143.619 1179.31 142.375L1178.42 140.775C1177.36 141.893 1175.99 142.375 1174.69 142.375C1171.9 142.375 1170.17 140.471 1170.17 136.941C1170.17 133.387 1171.9 131.584 1174.69 131.584C1176.06 131.584 1177.36 132.143 1178.42 133.209L1179.31 131.584C1178.17 130.416 1176.44 129.73 1174.51 129.73C1170.55 129.73 1167.81 132.244 1167.81 136.916C1167.81 141.562 1170.48 144.254 1174.54 144.254ZM1187.79 144.254C1191.86 144.254 1194.45 141.562 1194.45 136.967C1194.45 132.396 1191.86 129.73 1187.79 129.73C1183.73 129.73 1181.12 132.396 1181.12 136.967C1181.12 141.562 1183.73 144.254 1187.79 144.254ZM1183.45 136.967C1183.45 133.361 1185.15 131.584 1187.79 131.584C1190.43 131.584 1192.13 133.361 1192.13 136.967C1192.13 140.572 1190.43 142.4 1187.79 142.4C1185.15 142.4 1183.45 140.572 1183.45 136.967ZM1197.97 144H1200.26V135.926C1200.26 133.336 1201.91 131.609 1204.5 131.609C1206.66 131.609 1207.72 132.676 1207.72 135.367V144H1210.01V135.24C1210.01 131.381 1208.26 129.73 1205.03 129.73C1202.85 129.73 1201.17 130.67 1200.23 132.346V129.984H1197.97V144ZM1219.81 144.254C1220.75 144.254 1221.82 144 1222.35 143.695L1221.94 141.969C1221.41 142.146 1220.8 142.324 1220.14 142.324C1218.13 142.324 1217.25 141.232 1217.25 139.1V131.736H1221.66V129.984H1217.25V126.404H1214.96V129.984H1212.19V131.736H1214.96V139.328C1214.96 142.527 1216.64 144.254 1219.81 144.254ZM1228.7 144.254C1230.75 144.254 1232.28 143.264 1233.01 141.715V144H1235.2V134.885C1235.2 131.203 1233.29 129.73 1229.89 129.73C1227.91 129.73 1225.68 130.365 1224.25 131.381L1225.02 133.057C1226.49 132.041 1228.11 131.559 1229.84 131.559C1231.95 131.559 1232.99 132.447 1232.99 134.707V135.9H1231.79C1225.52 135.9 1223.7 137.068 1223.7 139.887C1223.7 142.4 1225.75 144.254 1228.7 144.254ZM1225.98 139.836C1225.98 138.059 1227.12 137.348 1231.82 137.348H1232.99V138.465C1232.99 140.979 1231.29 142.527 1229.1 142.527C1227.2 142.527 1225.98 141.461 1225.98 139.836ZM1239.51 127.039H1241.8V124.322H1239.51V127.039ZM1239.51 144H1241.8V129.984H1239.51V144ZM1246.14 144H1248.43V135.926C1248.43 133.336 1250.08 131.609 1252.67 131.609C1254.82 131.609 1255.89 132.676 1255.89 135.367V144H1258.18V135.24C1258.18 131.381 1256.42 129.73 1253.2 129.73C1251.02 129.73 1249.34 130.67 1248.4 132.346V129.984H1246.14V144ZM1268.81 144.254C1270.9 144.254 1273 143.568 1274.22 142.273L1273.41 140.725C1272.14 141.918 1270.54 142.4 1268.89 142.4C1265.79 142.4 1264.02 140.801 1263.86 137.449H1274.4V136.586C1274.4 132.27 1272.14 129.73 1268.36 129.73C1264.37 129.73 1261.6 132.574 1261.6 137.043C1261.6 141.639 1264.4 144.254 1268.81 144.254ZM1263.89 135.977C1264.17 133.082 1265.82 131.457 1268.41 131.457C1270.9 131.457 1272.29 132.955 1272.42 135.977H1263.89ZM1277.73 144H1280.06V135.773C1280.06 133.412 1281.46 132.016 1284.15 131.762L1285.6 131.609L1285.42 129.654L1284.58 129.705C1282.3 129.883 1280.75 130.721 1279.96 132.396V129.984H1277.73V144ZM1295.02 144H1305.53V142.07H1301.39V125.312H1299.77L1294.79 128.461L1295.86 130.162L1299.11 128.131V142.07H1295.02V144Z" fill="white"/>
<rect x="930.5" y="166" width="613" height="193" fill="#00ADEF"/>
<path d="M1198.41 272.254C1202.49 272.254 1205.06 270.121 1205.06 266.973C1205.06 264.434 1203.48 262.961 1200.11 262.174L1197.42 261.59C1195.26 261.107 1194.34 260.143 1194.34 258.492C1194.34 256.41 1195.99 255.064 1198.63 255.064C1200.67 255.064 1202.32 255.725 1203.79 257.07L1204.58 255.293C1203.15 253.871 1201.02 253.059 1198.63 253.059C1194.7 253.059 1192.03 255.293 1192.03 258.619C1192.03 261.285 1193.61 262.859 1196.76 263.57L1199.45 264.18C1201.81 264.713 1202.77 265.551 1202.77 267.1C1202.77 269.029 1201.35 270.248 1198.41 270.248C1195.97 270.248 1194.14 269.562 1192.44 268.242L1191.65 270.096C1193.3 271.441 1195.66 272.254 1198.41 272.254ZM1214.61 272.254C1216.69 272.254 1218.79 271.568 1220.01 270.273L1219.2 268.725C1217.93 269.918 1216.33 270.4 1214.68 270.4C1211.58 270.4 1209.81 268.801 1209.65 265.449H1220.19V264.586C1220.19 260.27 1217.93 257.73 1214.15 257.73C1210.16 257.73 1207.39 260.574 1207.39 265.043C1207.39 269.639 1210.19 272.254 1214.61 272.254ZM1209.68 263.977C1209.96 261.082 1211.61 259.457 1214.2 259.457C1216.69 259.457 1218.08 260.955 1218.21 263.977H1209.68ZM1229.38 272.254C1231.19 272.254 1232.96 271.619 1234.16 270.375L1233.27 268.775C1232.2 269.893 1230.83 270.375 1229.54 270.375C1226.74 270.375 1225.02 268.471 1225.02 264.941C1225.02 261.387 1226.74 259.584 1229.54 259.584C1230.91 259.584 1232.2 260.143 1233.27 261.209L1234.16 259.584C1233.01 258.416 1231.29 257.73 1229.36 257.73C1225.4 257.73 1222.65 260.244 1222.65 264.916C1222.65 269.562 1225.32 272.254 1229.38 272.254ZM1242.33 272.254C1243.27 272.254 1244.34 272 1244.87 271.695L1244.46 269.969C1243.93 270.146 1243.32 270.324 1242.66 270.324C1240.66 270.324 1239.77 269.232 1239.77 267.1V259.736H1244.19V257.984H1239.77V254.404H1237.48V257.984H1234.71V259.736H1237.48V267.328C1237.48 270.527 1239.16 272.254 1242.33 272.254ZM1246.83 255.039H1249.11V252.322H1246.83V255.039ZM1246.83 272H1249.11V257.984H1246.83V272ZM1259.27 272.254C1263.33 272.254 1265.92 269.562 1265.92 264.967C1265.92 260.396 1263.33 257.73 1259.27 257.73C1255.21 257.73 1252.59 260.396 1252.59 264.967C1252.59 269.562 1255.21 272.254 1259.27 272.254ZM1254.93 264.967C1254.93 261.361 1256.63 259.584 1259.27 259.584C1261.91 259.584 1263.61 261.361 1263.61 264.967C1263.61 268.572 1261.91 270.4 1259.27 270.4C1256.63 270.4 1254.93 268.572 1254.93 264.967ZM1269.45 272H1271.73V263.926C1271.73 261.336 1273.38 259.609 1275.97 259.609C1278.13 259.609 1279.2 260.676 1279.2 263.367V272H1281.48V263.24C1281.48 259.381 1279.73 257.73 1276.51 257.73C1274.32 257.73 1272.65 258.67 1271.71 260.346V257.984H1269.45V272Z" fill="white"/>
<rect x="930.5" y="377" width="613" height="193" fill="#00ADEF"/>
<path d="M1197.91 482.254C1202 482.254 1204.56 480.121 1204.56 476.973C1204.56 474.434 1202.99 472.961 1199.61 472.174L1196.92 471.59C1194.76 471.107 1193.85 470.143 1193.85 468.492C1193.85 466.41 1195.5 465.064 1198.14 465.064C1200.17 465.064 1201.82 465.725 1203.29 467.07L1204.08 465.293C1202.66 463.871 1200.53 463.059 1198.14 463.059C1194.2 463.059 1191.54 465.293 1191.54 468.619C1191.54 471.285 1193.11 472.859 1196.26 473.57L1198.95 474.18C1201.31 474.713 1202.28 475.551 1202.28 477.1C1202.28 479.029 1200.86 480.248 1197.91 480.248C1195.47 480.248 1193.64 479.562 1191.94 478.242L1191.16 480.096C1192.81 481.441 1195.17 482.254 1197.91 482.254ZM1214.11 482.254C1216.19 482.254 1218.3 481.568 1219.52 480.273L1218.71 478.725C1217.44 479.918 1215.84 480.4 1214.19 480.4C1211.09 480.4 1209.31 478.801 1209.16 475.449H1219.7V474.586C1219.7 470.27 1217.44 467.73 1213.65 467.73C1209.67 467.73 1206.9 470.574 1206.9 475.043C1206.9 479.639 1209.69 482.254 1214.11 482.254ZM1209.18 473.977C1209.46 471.082 1211.11 469.457 1213.7 469.457C1216.19 469.457 1217.59 470.955 1217.71 473.977H1209.18ZM1228.89 482.254C1230.69 482.254 1232.47 481.619 1233.66 480.375L1232.77 478.775C1231.71 479.893 1230.33 480.375 1229.04 480.375C1226.25 480.375 1224.52 478.471 1224.52 474.941C1224.52 471.387 1226.25 469.584 1229.04 469.584C1230.41 469.584 1231.71 470.143 1232.77 471.209L1233.66 469.584C1232.52 468.416 1230.79 467.73 1228.86 467.73C1224.9 467.73 1222.16 470.244 1222.16 474.916C1222.16 479.562 1224.82 482.254 1228.89 482.254ZM1241.84 482.254C1242.78 482.254 1243.84 482 1244.38 481.695L1243.97 479.969C1243.44 480.146 1242.83 480.324 1242.17 480.324C1240.16 480.324 1239.27 479.232 1239.27 477.1V469.736H1243.69V467.984H1239.27V464.404H1236.99V467.984H1234.22V469.736H1236.99V477.328C1236.99 480.527 1238.66 482.254 1241.84 482.254ZM1246.33 465.039H1248.62V462.322H1246.33V465.039ZM1246.33 482H1248.62V467.984H1246.33V482ZM1258.77 482.254C1262.83 482.254 1265.42 479.562 1265.42 474.967C1265.42 470.396 1262.83 467.73 1258.77 467.73C1254.71 467.73 1252.09 470.396 1252.09 474.967C1252.09 479.562 1254.71 482.254 1258.77 482.254ZM1254.43 474.967C1254.43 471.361 1256.13 469.584 1258.77 469.584C1261.41 469.584 1263.11 471.361 1263.11 474.967C1263.11 478.572 1261.41 480.4 1258.77 480.4C1256.13 480.4 1254.43 478.572 1254.43 474.967ZM1268.95 482H1271.24V473.926C1271.24 471.336 1272.89 469.609 1275.48 469.609C1277.64 469.609 1278.7 470.676 1278.7 473.367V482H1280.99V473.24C1280.99 469.381 1279.24 467.73 1276.01 467.73C1273.83 467.73 1272.15 468.67 1271.21 470.346V467.984H1268.95V482Z" fill="white"/>
<path d="M215 626V665H1569V626" stroke="black"/>
<path d="M811.328 692.484C809.141 692.484 807.531 693.766 807.531 695.578C807.531 697.391 809.141 698.672 811.328 698.672C813.516 698.672 815.125 697.391 815.125 695.578C815.125 693.766 813.516 692.484 811.328 692.484ZM806.688 699.531L806.922 701.219C807.938 701.219 809.109 701.203 810.344 701.156V705.938H812.438V701.031C813.609 700.922 814.812 700.781 815.984 700.547L815.859 699.031C812.781 699.5 809.203 699.531 806.688 699.531ZM809.531 695.578C809.531 694.688 810.281 694.172 811.328 694.172C812.375 694.172 813.141 694.688 813.141 695.578C813.141 696.484 812.375 696.969 811.328 696.969C810.281 696.969 809.531 696.484 809.531 695.578ZM816.672 706.375H818.75V691.906H816.672V706.375ZM833.031 691.906H830.938V706.375H833.031V691.906ZM821.062 702.109L822.188 703.719C823.844 703 825.016 701.516 825.641 699.766C826.297 701.406 827.438 702.797 829.078 703.469L830.172 701.875C827.797 700.859 826.656 698.5 826.656 696.422V695.906H829.594V694.266H826.656V692.234H824.562V694.266H821.562V695.906H824.562V696.422C824.562 698.609 823.438 701.062 821.062 702.109ZM839.188 697.359H841.672V694.891H839.188V697.359ZM839.188 703.609H841.672V701.141H839.188V703.609ZM852.297 695.328C853.453 695.328 854.359 695.75 855.281 696.5L856.016 694.641C855.172 693.828 853.766 693.328 852.297 693.328C849.016 693.328 846.906 695.625 846.906 699.234C846.906 702.859 849.016 705.172 852.297 705.172C853.766 705.172 855.172 704.672 856.016 703.859L855.281 702C854.359 702.734 853.453 703.172 852.297 703.172C850.438 703.172 849.391 701.734 849.391 699.234C849.391 696.734 850.438 695.328 852.297 695.328ZM862.078 705.172C863.391 705.172 864.734 704.766 865.531 704.062L864.844 702.5C864.125 703.109 863.125 703.375 862.172 703.375C860.531 703.375 859.688 702.688 859.547 701.188H865.641V700.578C865.641 697.891 864.125 696.203 861.641 696.203C859.031 696.203 857.234 698.047 857.234 700.703C857.234 703.531 859.109 705.172 862.078 705.172ZM859.547 699.938C859.703 698.547 860.469 697.844 861.703 697.844C862.875 697.844 863.547 698.516 863.625 699.938H859.547ZM867.281 705H869.641V700.109C869.641 698.891 870.438 698.062 871.656 698.062C872.609 698.062 873.125 698.547 873.125 699.859V705H875.5V699.75C875.5 697.312 874.469 696.203 872.453 696.203C871.219 696.203 870.203 696.719 869.609 697.656V696.375H867.281V705ZM881.672 705.172C882.328 705.172 883.047 705.016 883.5 704.781L883.172 703.047C882.797 703.156 882.438 703.25 882.094 703.25C881.047 703.25 880.594 702.734 880.594 701.719V698.141H883.172V696.375H880.594V694.203H878.219V696.375H876.547V698.141H878.219V701.828C878.219 704.047 879.359 705.172 881.672 705.172ZM888.938 705.172C890.25 705.172 891.594 704.766 892.391 704.062L891.703 702.5C890.984 703.109 889.984 703.375 889.031 703.375C887.391 703.375 886.547 702.688 886.406 701.188H892.5V700.578C892.5 697.891 890.984 696.203 888.5 696.203C885.891 696.203 884.094 698.047 884.094 700.703C884.094 703.531 885.969 705.172 888.938 705.172ZM886.406 699.938C886.562 698.547 887.328 697.844 888.562 697.844C889.734 697.844 890.406 698.516 890.484 699.938H886.406ZM894.141 705H896.547V700.328C896.547 699.078 897.234 698.422 898.703 698.297L900 698.156L899.844 696.156L899.156 696.219C897.812 696.312 896.891 696.844 896.453 697.844V696.375H894.141V705ZM818.781 715.906H816.703V720.391H812.812V722.062H816.703V730.422H818.781V715.906ZM807.375 727.031H808.609C810.734 727.031 812.938 726.891 815.266 726.422L815.062 724.719C813.109 725.109 811.234 725.25 809.438 725.297V717.453H807.375V727.031ZM833.016 715.891H830.938V730.406H833.016V715.891ZM821.719 727.031H828.844V717.047H826.781V720.578H823.797V717.047H821.719V727.031ZM823.797 725.375V722.188H826.781V725.375H823.797ZM839.188 721.359H841.672V718.891H839.188V721.359ZM839.188 727.609H841.672V725.141H839.188V727.609ZM847.25 729H849.406V721.812L852.25 727.25H853.578L856.438 721.766V729H858.609V717.5H856.625L852.953 724.656L849.266 717.5H847.25V729ZM863.719 729.172C864.922 729.172 865.781 728.609 866.172 727.719V729H868.391V723.688C868.391 721.266 867.094 720.203 864.594 720.203C863.297 720.203 861.703 720.625 860.797 721.25L861.453 722.875C862.406 722.281 863.469 721.984 864.484 721.984C865.641 721.984 866.141 722.375 866.141 723.422V723.906H865.438C861.641 723.906 860.469 724.672 860.469 726.391C860.469 727.953 861.766 729.172 863.719 729.172ZM862.766 726.328C862.766 725.531 863.359 725.141 865.453 725.141H866.141V725.656C866.141 726.828 865.297 727.531 864.219 727.531C863.297 727.531 862.766 727.062 862.766 726.328ZM869.328 729H872.094L874.312 726.156L876.5 729H879.312L875.703 724.547L879.078 720.375H876.328L874.328 722.984L872.344 720.375H869.547L872.922 724.547L869.328 729ZM885.625 729H887.734L889.562 723.234L891.391 729H893.422L896.203 720.375H893.781L892.188 725.516L890.609 720.375H888.594L886.938 725.75L885.266 720.375H882.844L885.625 729ZM897.359 718.969H899.719V716.734H897.359V718.969ZM897.359 729H899.719V720.375H897.359V729ZM905.234 729.172C906.453 729.172 907.516 728.641 908.016 727.734V729H910.344V717.5H907.969V721.578C907.438 720.703 906.406 720.203 905.234 720.203C902.953 720.203 901.438 721.859 901.438 724.688C901.438 727.5 902.969 729.172 905.234 729.172ZM903.828 724.672C903.828 722.844 904.656 722 905.938 722C907.203 722 908.016 722.844 908.016 724.672C908.016 726.5 907.203 727.359 905.938 727.359C904.656 727.359 903.828 726.5 903.828 724.672ZM916.547 729.172C917.203 729.172 917.922 729.016 918.375 728.781L918.047 727.047C917.672 727.156 917.312 727.25 916.969 727.25C915.922 727.25 915.469 726.734 915.469 725.719V722.141H918.047V720.375H915.469V718.203H913.094V720.375H911.422V722.141H913.094V725.828C913.094 728.047 914.234 729.172 916.547 729.172ZM919.438 729H921.797V724.109C921.797 722.891 922.594 722.062 923.812 722.062C924.766 722.062 925.281 722.547 925.281 723.859V729H927.656V723.75C927.656 721.312 926.625 720.203 924.609 720.203C923.406 720.203 922.391 720.703 921.812 721.609L921.797 717.5H919.438V729ZM934.125 729H941.469V727.078H938.984V717.5H937.312L933.766 719.594L934.641 721.312L936.625 720.156V727.078H934.125V729ZM946.781 729.125C949.359 729.125 951.016 727.891 951.016 725.875C951.016 724.469 950.25 723.469 948.891 723.094C950.047 722.672 950.719 721.734 950.719 720.422C950.719 718.578 949.219 717.359 946.891 717.359C945.391 717.359 943.859 717.828 942.938 718.656L943.656 720.359C944.703 719.625 945.781 719.203 946.734 719.203C947.859 719.203 948.469 719.766 948.469 720.719C948.469 721.75 947.797 722.266 946.406 722.266H945.078V724.094H946.672C948.125 724.094 948.75 724.578 948.75 725.656C948.75 726.766 948.109 727.266 946.688 727.266C945.625 727.266 944.531 726.875 943.5 726.125L942.766 727.828C943.672 728.672 945.219 729.125 946.781 729.125ZM957.234 729.141C959.484 729.141 961.141 727.5 961.141 725.266C961.141 723.109 959.688 721.562 957.656 721.562C956.453 721.562 955.422 722.125 954.938 723.031C955.016 720.531 955.891 719.203 957.484 719.203C958.328 719.203 959.297 719.531 960.359 720.359L961.141 718.656C960.172 717.797 958.781 717.359 957.391 717.359C954.422 717.359 952.609 719.625 952.609 723.438C952.609 727.094 954.281 729.141 957.234 729.141ZM955.266 725.359C955.266 724.188 956 723.391 957.094 723.391C958.188 723.391 958.906 724.188 958.906 725.359C958.906 726.547 958.203 727.297 957.078 727.297C956.016 727.297 955.266 726.531 955.266 725.359ZM967.031 729.141C969.281 729.141 970.938 727.5 970.938 725.266C970.938 723.109 969.484 721.562 967.453 721.562C966.25 721.562 965.219 722.125 964.734 723.031C964.812 720.531 965.688 719.203 967.281 719.203C968.125 719.203 969.094 719.531 970.156 720.359L970.938 718.656C969.969 717.797 968.578 717.359 967.188 717.359C964.219 717.359 962.406 719.625 962.406 723.438C962.406 727.094 964.078 729.141 967.031 729.141ZM965.062 725.359C965.062 724.188 965.797 723.391 966.891 723.391C967.984 723.391 968.703 724.188 968.703 725.359C968.703 726.547 968 727.297 966.875 727.297C965.812 727.297 965.062 726.531 965.062 725.359ZM972.656 731.938H975.016V727.797C975.516 728.672 976.531 729.172 977.734 729.172C980.047 729.172 981.562 727.5 981.562 724.688C981.562 721.859 980.047 720.203 977.734 720.203C976.516 720.203 975.484 720.719 975 721.594V720.375H972.656V731.938ZM975 724.688C975 722.844 975.781 722.016 977.062 722.016C978.344 722.016 979.172 722.875 979.172 724.688C979.172 726.516 978.344 727.375 977.062 727.375C975.781 727.375 975 726.516 975 724.688ZM982.062 729H984.828L987.047 726.156L989.234 729H992.047L988.438 724.547L991.812 720.375H989.062L987.062 722.984L985.078 720.375H982.281L985.656 724.547L982.062 729Z" fill="#111827"/>
</svg>
