<svg width="566" height="374" viewBox="0 0 566 374" fill="none" xmlns="http://www.w3.org/2000/svg">
<rect y="54" width="566" height="320" fill="#F9FAFB"/>
<path d="M497.141 133H504.969V131.078H500.062L502.734 128.25C504.062 126.922 504.562 125.859 504.562 124.484C504.562 122.594 503.062 121.359 500.719 121.359C499.25 121.359 497.688 121.859 496.781 122.656L497.5 124.359C498.578 123.625 499.641 123.203 500.594 123.203C501.672 123.203 502.266 123.688 502.266 124.672C502.266 125.438 501.844 126.234 500.984 127.125L497.141 131.266V133ZM511.328 133H513.625V130.812H515.203V129.031H513.625V121.5H511.734L506.453 129.109V130.812H511.328V133ZM508.609 129.031L511.328 125.094V129.031H508.609ZM516.719 135.938H519.078V131.797C519.578 132.672 520.594 133.172 521.797 133.172C524.109 133.172 525.625 131.5 525.625 128.688C525.625 125.859 524.109 124.203 521.797 124.203C520.578 124.203 519.547 124.719 519.062 125.594V124.375H516.719V135.938ZM519.062 128.688C519.062 126.844 519.844 126.016 521.125 126.016C522.406 126.016 523.234 126.875 523.234 128.688C523.234 130.516 522.406 131.375 521.125 131.375C519.844 131.375 519.062 130.516 519.062 128.688ZM526.125 133H528.891L531.109 130.156L533.297 133H536.109L532.5 128.547L535.875 124.375H533.125L531.125 126.984L529.141 124.375H526.344L529.719 128.547L526.125 133Z" fill="#111827"/>
<path d="M500.625 178.125C503.203 178.125 504.859 176.891 504.859 174.875C504.859 173.469 504.094 172.469 502.734 172.094C503.891 171.672 504.562 170.734 504.562 169.422C504.562 167.578 503.062 166.359 500.734 166.359C499.234 166.359 497.703 166.828 496.781 167.656L497.5 169.359C498.547 168.625 499.625 168.203 500.578 168.203C501.703 168.203 502.312 168.766 502.312 169.719C502.312 170.75 501.641 171.266 500.25 171.266H498.922V173.094H500.516C501.969 173.094 502.594 173.578 502.594 174.656C502.594 175.766 501.953 176.266 500.531 176.266C499.469 176.266 498.375 175.875 497.344 175.125L496.609 176.828C497.516 177.672 499.062 178.125 500.625 178.125ZM506.938 178H514.766V176.078H509.859L512.531 173.25C513.859 171.922 514.359 170.859 514.359 169.484C514.359 167.594 512.859 166.359 510.516 166.359C509.047 166.359 507.484 166.859 506.578 167.656L507.297 169.359C508.375 168.625 509.438 168.203 510.391 168.203C511.469 168.203 512.062 168.688 512.062 169.672C512.062 170.438 511.641 171.234 510.781 172.125L506.938 176.266V178ZM516.719 180.938H519.078V176.797C519.578 177.672 520.594 178.172 521.797 178.172C524.109 178.172 525.625 176.5 525.625 173.688C525.625 170.859 524.109 169.203 521.797 169.203C520.578 169.203 519.547 169.719 519.062 170.594V169.375H516.719V180.938ZM519.062 173.688C519.062 171.844 519.844 171.016 521.125 171.016C522.406 171.016 523.234 171.875 523.234 173.688C523.234 175.516 522.406 176.375 521.125 176.375C519.844 176.375 519.062 175.516 519.062 173.688ZM526.125 178H528.891L531.109 175.156L533.297 178H536.109L532.5 173.547L535.875 169.375H533.125L531.125 171.984L529.141 169.375H526.344L529.719 173.547L526.125 178Z" fill="#111827"/>
<path d="M501.516 232H503.812V229.812H505.391V228.031H503.812V220.5H501.922L496.641 228.109V229.812H501.516V232ZM498.797 228.031L501.516 224.094V228.031H498.797ZM510.688 232.141C513.453 232.141 514.953 230.062 514.953 226.234C514.953 222.484 513.453 220.391 510.688 220.391C507.969 220.391 506.438 222.484 506.438 226.234C506.438 230.062 507.969 232.141 510.688 232.141ZM508.734 226.234C508.734 223.438 509.344 222.203 510.688 222.203C512.047 222.203 512.656 223.422 512.656 226.234C512.656 229.078 512.047 230.328 510.688 230.328C509.344 230.328 508.734 229.078 508.734 226.234ZM516.703 234.938H519.062V230.797C519.562 231.672 520.578 232.172 521.781 232.172C524.094 232.172 525.609 230.5 525.609 227.688C525.609 224.859 524.094 223.203 521.781 223.203C520.562 223.203 519.531 223.719 519.047 224.594V223.375H516.703V234.938ZM519.047 227.688C519.047 225.844 519.828 225.016 521.109 225.016C522.391 225.016 523.219 225.875 523.219 227.688C523.219 229.516 522.391 230.375 521.109 230.375C519.828 230.375 519.047 229.516 519.047 227.688ZM526.109 232H528.875L531.094 229.156L533.281 232H536.094L532.484 227.547L535.859 223.375H533.109L531.109 225.984L529.125 223.375H526.328L529.703 227.547L526.109 232Z" fill="#111827"/>
<path d="M501.516 292H503.812V289.812H505.391V288.031H503.812V280.5H501.922L496.641 288.109V289.812H501.516V292ZM498.797 288.031L501.516 284.094V288.031H498.797ZM510.688 292.125C513.422 292.125 515.062 290.906 515.062 288.875C515.062 287.469 514.312 286.453 512.984 286.078C514.078 285.703 514.766 284.75 514.766 283.469C514.766 281.531 513.219 280.359 510.688 280.359C508.156 280.359 506.609 281.531 506.609 283.469C506.609 284.703 507.266 285.656 508.391 286.078C507.078 286.438 506.328 287.469 506.328 288.875C506.328 290.906 507.969 292.125 510.688 292.125ZM508.531 288.688C508.531 287.625 509.234 287.109 510.688 287.109C512.156 287.109 512.859 287.625 512.859 288.688C512.859 289.75 512.156 290.312 510.688 290.312C509.234 290.312 508.531 289.75 508.531 288.688ZM508.797 283.703C508.797 282.688 509.438 282.172 510.688 282.172C511.938 282.172 512.547 282.688 512.547 283.703C512.547 284.75 511.938 285.266 510.688 285.266C509.469 285.266 508.797 284.75 508.797 283.703ZM516.703 294.938H519.062V290.797C519.562 291.672 520.578 292.172 521.781 292.172C524.094 292.172 525.609 290.5 525.609 287.688C525.609 284.859 524.094 283.203 521.781 283.203C520.562 283.203 519.531 283.719 519.047 284.594V283.375H516.703V294.938ZM519.047 287.688C519.047 285.844 519.828 285.016 521.109 285.016C522.391 285.016 523.219 285.875 523.219 287.688C523.219 289.516 522.391 290.375 521.109 290.375C519.828 290.375 519.047 289.516 519.047 287.688ZM526.109 292H528.875L531.094 289.156L533.281 292H536.094L532.484 287.547L535.859 283.375H533.109L531.109 285.984L529.125 283.375H526.328L529.703 287.547L526.109 292Z" fill="#111827"/>
<rect x="128" y="118" width="296" height="24" fill="#FF1392" fill-opacity="0.1"/>
<rect x="128" y="158" width="296" height="32" fill="#FF1392" fill-opacity="0.1"/>
<rect x="128" y="206" width="296" height="40" fill="#FF1392" fill-opacity="0.1"/>
<rect x="128" y="262" width="296" height="48" fill="#FF1392" fill-opacity="0.1"/>
<path d="M83 118.5H483" stroke="#D32F2F"/>
<path d="M83 158H483" stroke="#D32F2F"/>
<path d="M83 206H483" stroke="#D32F2F"/>
<path d="M83 262H483" stroke="#D32F2F"/>
<path d="M83 142H483" stroke="#D32F2F"/>
<path d="M83 190H483" stroke="#D32F2F"/>
<path d="M83 246H483" stroke="#D32F2F"/>
<path d="M83 310H483" stroke="#D32F2F"/>
<path d="M4.89062 12.125C7.625 12.125 9.26562 10.9062 9.26562 8.875C9.26562 7.46875 8.51562 6.45312 7.1875 6.07812C8.28125 5.70312 8.96875 4.75 8.96875 3.46875C8.96875 1.53125 7.42188 0.359375 4.89062 0.359375C2.35938 0.359375 0.8125 1.53125 0.8125 3.46875C0.8125 4.70312 1.46875 5.65625 2.59375 6.07812C1.28125 6.4375 0.53125 7.46875 0.53125 8.875C0.53125 10.9062 2.17188 12.125 4.89062 12.125ZM2.73438 8.6875C2.73438 7.625 3.4375 7.10938 4.89062 7.10938C6.35938 7.10938 7.0625 7.625 7.0625 8.6875C7.0625 9.75 6.35938 10.3125 4.89062 10.3125C3.4375 10.3125 2.73438 9.75 2.73438 8.6875ZM3 3.70312C3 2.6875 3.64062 2.17188 4.89062 2.17188C6.14062 2.17188 6.75 2.6875 6.75 3.70312C6.75 4.75 6.14062 5.26562 4.89062 5.26562C3.67188 5.26562 3 4.75 3 3.70312ZM10.9062 14.9375H13.2656V10.7969C13.7656 11.6719 14.7812 12.1719 15.9844 12.1719C18.2969 12.1719 19.8125 10.5 19.8125 7.6875C19.8125 4.85938 18.2969 3.20312 15.9844 3.20312C14.7656 3.20312 13.7344 3.71875 13.25 4.59375V3.375H10.9062V14.9375ZM13.25 7.6875C13.25 5.84375 14.0312 5.01562 15.3125 5.01562C16.5938 5.01562 17.4219 5.875 17.4219 7.6875C17.4219 9.51562 16.5938 10.375 15.3125 10.375C14.0312 10.375 13.25 9.51562 13.25 7.6875ZM20.3125 12H23.0781L25.2969 9.15625L27.4844 12H30.2969L26.6875 7.54688L30.0625 3.375H27.3125L25.3125 5.98438L23.3281 3.375H20.5312L23.9062 7.54688L20.3125 12ZM6.20312 24.5H1.125V25.8281H4.60938V28.3906H1.15625V33.8594H2.125C3.92188 33.8594 5.51562 33.7969 7.4375 33.4531L7.3125 32.125C5.67188 32.4062 4.25 32.4844 2.75 32.5V29.6875H6.20312V24.5ZM6.82812 29.3594H8.4375V36.5625H9.96875V23.3125H8.4375V28.0156H6.82812V29.3594ZM11.3281 37.2812H12.8906V23H11.3281V37.2812ZM26.8438 23H25.2031V37.3125H26.8438V23ZM15.5625 29.0781C15.5625 32.1719 17.1094 34.125 19.25 34.125C21.375 34.125 22.9219 32.1719 22.9219 29.0781C22.9219 26.0156 21.375 24.0469 19.25 24.0469C17.1094 24.0469 15.5625 26.0156 15.5625 29.0781ZM17.1406 29.0781C17.1406 26.8594 18 25.5312 19.25 25.5312C20.5 25.5312 21.3438 26.8594 21.3438 29.0781C21.3438 31.3125 20.5 32.6562 19.25 32.6562C18 32.6562 17.1406 31.3125 17.1406 29.0781ZM33.2812 24.0469C31.1406 24.0469 29.6094 26.0156 29.6094 29.0781C29.6094 32.1719 31.1406 34.125 33.2812 34.125C35.4062 34.125 36.9375 32.1719 36.9375 29.0781C36.9375 26.0156 35.4062 24.0469 33.2812 24.0469ZM31.1875 29.0781C31.1875 26.8594 32.0312 25.5312 33.2812 25.5312C34.5156 25.5312 35.3594 26.8594 35.3594 29.0781C35.3594 31.3125 34.5156 32.6562 33.2812 32.6562C32.0312 32.6562 31.1875 31.3125 31.1875 29.0781ZM38.8906 37.2969H40.5312V29.9375H42.75V28.5625H40.5312V23.0156H38.8906V37.2969ZM56.7812 29.4219H43.8438V30.75H49.4531V32.2031H51.0781V30.75H56.7812V29.4219ZM44.7344 36L45.2656 37.2344C47.5781 37 49.3906 36.1562 50.2656 34.9219C51.125 36.1719 52.9531 36.9844 55.2656 37.2344L55.7969 36C52.9531 35.7344 51.1094 34.5781 51.1094 33.1875V32.8281H49.4219V33.1875C49.4219 34.5156 47.5469 35.7188 44.7344 36ZM45.2031 25.8438C45.2031 27.5156 47.1562 28.5 50.2969 28.5C53.4219 28.5 55.375 27.5156 55.375 25.8438C55.375 24.1719 53.4219 23.1875 50.2969 23.1875C47.1562 23.1875 45.2031 24.1719 45.2031 25.8438ZM46.8906 25.8438C46.8906 24.9375 48.1562 24.4375 50.2969 24.4375C52.4375 24.4375 53.6875 24.9375 53.6875 25.8438C53.6875 26.75 52.4375 27.25 50.2969 27.25C48.1562 27.25 46.8906 26.75 46.8906 25.8438ZM58.0156 38.9375H59.2656L60.6719 34.2656H58.7812L58.0156 38.9375ZM77.8594 23.0156H76.2969V28.625H74.7812V23.2969H73.2344V36.5781H74.7812V29.9688H76.2969V37.2969H77.8594V23.0156ZM65.5312 32.5469L65.7031 33.9062C67.5156 33.9062 70.4531 33.8438 72.6562 33.3906L72.5469 32.2031C72.1562 32.25 71.7344 32.2969 71.2969 32.3438V26.0312H72.3594V24.7188H65.7969V26.0312H66.8594V32.5312L65.5312 32.5469ZM68.3594 32.5V26.0312H69.7969V32.4531C69.3125 32.4688 68.8281 32.4844 68.3594 32.5ZM91.8281 23H90.1719V31.6719H91.8281V23ZM80.8906 30.5312H82.0938C85.2656 30.5312 87.0469 30.4531 89.0625 30.0469L88.8906 28.7188C87.0312 29.1094 85.3594 29.1875 82.5156 29.2031V25.4375H87.625V24.0938H80.8906V30.5312ZM82.2031 34.5156C82.2031 36.2812 84.0625 37.2969 87.0312 37.2969C90.0156 37.2969 91.875 36.2812 91.875 34.5156C91.875 32.7812 90.0156 31.75 87.0312 31.75C84.0625 31.75 82.2031 32.7812 82.2031 34.5156ZM83.8438 34.5156C83.8438 33.5625 85.0156 33.0469 87.0312 33.0469C89.0625 33.0469 90.2344 33.5625 90.2344 34.5156C90.2344 35.4688 89.0625 36.0156 87.0312 36.0156C85.0156 36.0156 83.8438 35.4688 83.8438 34.5156ZM110.953 29.6875H98.0469V31.0312H110.953V29.6875ZM99.5469 34.6875C99.5469 36.3438 101.391 37.2812 104.453 37.2812C107.531 37.2812 109.375 36.3438 109.375 34.6875C109.375 33.0312 107.531 32.0781 104.453 32.0781C101.391 32.0781 99.5469 33.0312 99.5469 34.6875ZM99.6406 28.5H109.453V27.1875H101.266V24.8281H109.375V23.4844H99.6406V28.5ZM101.203 34.6875C101.203 33.8125 102.375 33.3438 104.453 33.3438C106.547 33.3438 107.719 33.8125 107.719 34.6875C107.719 35.5469 106.547 36.0156 104.453 36.0156C102.375 36.0156 101.203 35.5469 101.203 34.6875ZM124.594 23H123.031V37.2812H124.594V23ZM112.547 29.1875C112.547 32.3281 113.75 34.25 115.609 34.25C117.359 34.25 118.531 32.5625 118.672 29.7656H120.156V36.6094H121.703V23.2656H120.156V28.4219H118.656C118.484 25.7344 117.328 24.1094 115.609 24.1094C113.75 24.1094 112.547 26.0469 112.547 29.1875ZM114.062 29.1875C114.062 26.9219 114.656 25.6562 115.609 25.6562C116.594 25.6562 117.188 26.9219 117.188 29.1875C117.188 31.4375 116.594 32.7188 115.609 32.7188C114.656 32.7188 114.062 31.4375 114.062 29.1875ZM135.391 26.5156V24.1875H133.75V26.5156C133.75 29.1562 132.375 31.8906 130.156 32.9688L131.141 34.2969C132.766 33.4688 133.953 31.8125 134.594 29.8281C135.203 31.6875 136.344 33.2344 137.859 34.0312L138.875 32.7188C136.719 31.6562 135.391 29.0625 135.391 26.5156ZM139.812 37.2969H141.453V30.0312H143.672V28.6562H141.453V23.0156H139.812V37.2969ZM157.672 29.9375H154.594V28.0781C155.688 27.6094 156.297 26.8906 156.297 25.9375C156.297 24.25 154.344 23.25 151.219 23.25C148.094 23.25 146.125 24.25 146.125 25.9375C146.125 26.875 146.734 27.6094 147.812 28.0625V29.9375H144.766V31.25H157.672V29.9375ZM146.281 34.7188C146.281 36.3594 148.125 37.2812 151.188 37.2812C154.266 37.2812 156.109 36.3594 156.109 34.7188C156.109 33.0781 154.266 32.1719 151.188 32.1719C148.125 32.1719 146.281 33.0781 146.281 34.7188ZM147.812 25.9375C147.812 25.0156 149.078 24.5156 151.219 24.5156C153.344 24.5156 154.609 25.0156 154.609 25.9375C154.609 26.8594 153.344 27.375 151.219 27.375C149.078 27.375 147.812 26.8594 147.812 25.9375ZM147.938 34.7188C147.938 33.875 149.109 33.4062 151.188 33.4062C153.281 33.4062 154.453 33.875 154.453 34.7188C154.453 35.5781 153.281 36.0312 151.188 36.0312C149.109 36.0312 147.938 35.5781 147.938 34.7188ZM149.453 29.9375V28.5C149.984 28.5781 150.578 28.625 151.219 28.625C151.844 28.625 152.422 28.5781 152.953 28.5V29.9375H149.453ZM167.578 28.9844H161.844V25.6406H167.5V24.3125H160.203V30.3281H163.016V32.9531C161.688 32.9844 160.375 32.9844 159.203 32.9844L159.422 34.3438C162.109 34.3594 165.422 34.2969 168.516 33.8281L168.391 32.6094C167.188 32.75 165.922 32.8438 164.656 32.8906V30.3281H167.578V28.9844ZM169.25 37.3125H170.891V23H169.25V37.3125ZM184.984 27.0938H176.828V23.5156H175.188V28.4219H184.984V27.0938ZM173.516 31.4531H186.453V30.1406H173.516V31.4531ZM175.078 36.9688H185.062V35.625H176.719V32.75H175.078V36.9688ZM202.75 24.4219H192.875V25.75H201.125V25.9844C201.125 27.8281 201.125 29.9062 200.578 32.75L202.219 32.9062C202.75 29.875 202.75 27.875 202.75 25.9844V24.4219ZM191.5 35.2969H204.406V33.9531H191.5V35.2969ZM217.656 23H216.016V37.3125H217.656V23ZM206.641 25.6094H211.641V28.25H206.672V33.9219H207.891C210.406 33.9219 212.547 33.8281 215 33.4062L214.844 32.0781C212.562 32.4531 210.594 32.5469 208.328 32.5625V29.5625H213.312V24.2812H206.641V25.6094ZM231.734 29.7344H223.469V25.5938H231.609V24.2656H221.828V31.0625H231.734V29.7344ZM220.25 35.4531H233.188V34.1094H220.25V35.4531Z" fill="#111827"/>
</svg>
