<svg width="566" height="374" viewBox="0 0 566 374" fill="none" xmlns="http://www.w3.org/2000/svg">
<rect y="54" width="566" height="320" fill="#F9FAFB"/>
<path d="M497.766 133H505.109V131.078H502.625V121.5H500.953L497.406 123.594L498.281 125.312L500.266 124.156V131.078H497.766V133ZM506.938 133H514.766V131.078H509.859L512.531 128.25C513.859 126.922 514.359 125.859 514.359 124.484C514.359 122.594 512.859 121.359 510.516 121.359C509.047 121.359 507.484 121.859 506.578 122.656L507.297 124.359C508.375 123.625 509.438 123.203 510.391 123.203C511.469 123.203 512.062 123.688 512.062 124.672C512.062 125.438 511.641 126.234 510.781 127.125L506.938 131.266V133ZM516.719 135.938H519.078V131.797C519.578 132.672 520.594 133.172 521.797 133.172C524.109 133.172 525.625 131.5 525.625 128.688C525.625 125.859 524.109 124.203 521.797 124.203C520.578 124.203 519.547 124.719 519.062 125.594V124.375H516.719V135.938ZM519.062 128.688C519.062 126.844 519.844 126.016 521.125 126.016C522.406 126.016 523.234 126.875 523.234 128.688C523.234 130.516 522.406 131.375 521.125 131.375C519.844 131.375 519.062 130.516 519.062 128.688ZM526.125 133H528.891L531.109 130.156L533.297 133H536.109L532.5 128.547L535.875 124.375H533.125L531.125 126.984L529.141 124.375H526.344L529.719 128.547L526.125 133Z" fill="#111827"/>
<path d="M497.141 178H504.969V176.078H500.062L502.734 173.25C504.062 171.922 504.562 170.859 504.562 169.484C504.562 167.594 503.062 166.359 500.719 166.359C499.25 166.359 497.688 166.859 496.781 167.656L497.5 169.359C498.578 168.625 499.641 168.203 500.594 168.203C501.672 168.203 502.266 168.688 502.266 169.672C502.266 170.438 501.844 171.234 500.984 172.125L497.141 176.266V178ZM510.703 178.141C513.469 178.141 514.969 176.062 514.969 172.234C514.969 168.484 513.469 166.391 510.703 166.391C507.984 166.391 506.453 168.484 506.453 172.234C506.453 176.062 507.984 178.141 510.703 178.141ZM508.75 172.234C508.75 169.438 509.359 168.203 510.703 168.203C512.062 168.203 512.672 169.422 512.672 172.234C512.672 175.078 512.062 176.328 510.703 176.328C509.359 176.328 508.75 175.078 508.75 172.234ZM516.719 180.938H519.078V176.797C519.578 177.672 520.594 178.172 521.797 178.172C524.109 178.172 525.625 176.5 525.625 173.688C525.625 170.859 524.109 169.203 521.797 169.203C520.578 169.203 519.547 169.719 519.062 170.594V169.375H516.719V180.938ZM519.062 173.688C519.062 171.844 519.844 171.016 521.125 171.016C522.406 171.016 523.234 171.875 523.234 173.688C523.234 175.516 522.406 176.375 521.125 176.375C519.844 176.375 519.062 175.516 519.062 173.688ZM526.125 178H528.891L531.109 175.156L533.297 178H536.109L532.5 173.547L535.875 169.375H533.125L531.125 171.984L529.141 169.375H526.344L529.719 173.547L526.125 178Z" fill="#111827"/>
<path d="M497.141 232H504.969V230.078H500.062L502.734 227.25C504.062 225.922 504.562 224.859 504.562 223.484C504.562 221.594 503.062 220.359 500.719 220.359C499.25 220.359 497.688 220.859 496.781 221.656L497.5 223.359C498.578 222.625 499.641 222.203 500.594 222.203C501.672 222.203 502.266 222.688 502.266 223.672C502.266 224.438 501.844 225.234 500.984 226.125L497.141 230.266V232ZM510.703 232.125C513.438 232.125 515.078 230.906 515.078 228.875C515.078 227.469 514.328 226.453 513 226.078C514.094 225.703 514.781 224.75 514.781 223.469C514.781 221.531 513.234 220.359 510.703 220.359C508.172 220.359 506.625 221.531 506.625 223.469C506.625 224.703 507.281 225.656 508.406 226.078C507.094 226.438 506.344 227.469 506.344 228.875C506.344 230.906 507.984 232.125 510.703 232.125ZM508.547 228.688C508.547 227.625 509.25 227.109 510.703 227.109C512.172 227.109 512.875 227.625 512.875 228.688C512.875 229.75 512.172 230.312 510.703 230.312C509.25 230.312 508.547 229.75 508.547 228.688ZM508.812 223.703C508.812 222.688 509.453 222.172 510.703 222.172C511.953 222.172 512.562 222.688 512.562 223.703C512.562 224.75 511.953 225.266 510.703 225.266C509.484 225.266 508.812 224.75 508.812 223.703ZM516.719 234.938H519.078V230.797C519.578 231.672 520.594 232.172 521.797 232.172C524.109 232.172 525.625 230.5 525.625 227.688C525.625 224.859 524.109 223.203 521.797 223.203C520.578 223.203 519.547 223.719 519.062 224.594V223.375H516.719V234.938ZM519.062 227.688C519.062 225.844 519.844 225.016 521.125 225.016C522.406 225.016 523.234 225.875 523.234 227.688C523.234 229.516 522.406 230.375 521.125 230.375C519.844 230.375 519.062 229.516 519.062 227.688ZM526.125 232H528.891L531.109 229.156L533.297 232H536.109L532.5 227.547L535.875 223.375H533.125L531.125 225.984L529.141 223.375H526.344L529.719 227.547L526.125 232Z" fill="#111827"/>
<path d="M500.844 292.125C503.5 292.125 505.203 290.594 505.203 288.266C505.203 286.078 503.734 284.609 501.562 284.609C500.844 284.609 500.234 284.672 499.719 284.812L499.938 282.312H504.656V280.5H497.891L497.328 286.797H498.719C499.297 286.547 500.141 286.391 500.922 286.391C502.188 286.391 502.969 287.156 502.969 288.359C502.969 289.594 502.25 290.266 500.859 290.266C499.781 290.266 498.75 289.891 497.703 289.125L496.938 290.828C497.844 291.641 499.391 292.125 500.844 292.125ZM506.938 292H514.766V290.078H509.859L512.531 287.25C513.859 285.922 514.359 284.859 514.359 283.484C514.359 281.594 512.859 280.359 510.516 280.359C509.047 280.359 507.484 280.859 506.578 281.656L507.297 283.359C508.375 282.625 509.438 282.203 510.391 282.203C511.469 282.203 512.062 282.688 512.062 283.672C512.062 284.438 511.641 285.234 510.781 286.125L506.938 290.266V292ZM516.719 294.938H519.078V290.797C519.578 291.672 520.594 292.172 521.797 292.172C524.109 292.172 525.625 290.5 525.625 287.688C525.625 284.859 524.109 283.203 521.797 283.203C520.578 283.203 519.547 283.719 519.062 284.594V283.375H516.719V294.938ZM519.062 287.688C519.062 285.844 519.844 285.016 521.125 285.016C522.406 285.016 523.234 285.875 523.234 287.688C523.234 289.516 522.406 290.375 521.125 290.375C519.844 290.375 519.062 289.516 519.062 287.688ZM526.125 292H528.891L531.109 289.156L533.297 292H536.109L532.5 287.547L535.875 283.375H533.125L531.125 285.984L529.141 283.375H526.344L529.719 287.547L526.125 292Z" fill="#111827"/>
<rect x="128" y="118" width="296" height="12" fill="#FF1392" fill-opacity="0.1"/>
<rect x="128" y="158" width="296" height="20" fill="#FF1392" fill-opacity="0.1"/>
<rect x="128" y="206" width="296" height="28" fill="#FF1392" fill-opacity="0.1"/>
<rect x="128" y="262" width="296" height="52" fill="#FF1392" fill-opacity="0.1"/>
<path d="M83 118.5H483" stroke="#D32F2F"/>
<path d="M83 158H483" stroke="#D32F2F"/>
<path d="M83 206H483" stroke="#D32F2F"/>
<path d="M83 262H483" stroke="#D32F2F"/>
<path d="M83 130H483" stroke="#D32F2F"/>
<path d="M83 178H483" stroke="#D32F2F"/>
<path d="M83 234H483" stroke="#D32F2F"/>
<path d="M83 314H483" stroke="#D32F2F"/>
<path d="M5.51562 12H7.8125V9.8125H9.39062V8.03125H7.8125V0.5H5.92188L0.640625 8.10938V9.8125H5.51562V12ZM2.79688 8.03125L5.51562 4.09375V8.03125H2.79688ZM10.9062 14.9375H13.2656V10.7969C13.7656 11.6719 14.7812 12.1719 15.9844 12.1719C18.2969 12.1719 19.8125 10.5 19.8125 7.6875C19.8125 4.85938 18.2969 3.20312 15.9844 3.20312C14.7656 3.20312 13.7344 3.71875 13.25 4.59375V3.375H10.9062V14.9375ZM13.25 7.6875C13.25 5.84375 14.0312 5.01562 15.3125 5.01562C16.5938 5.01562 17.4219 5.875 17.4219 7.6875C17.4219 9.51562 16.5938 10.375 15.3125 10.375C14.0312 10.375 13.25 9.51562 13.25 7.6875ZM20.3125 12H23.0781L25.2969 9.15625L27.4844 12H30.2969L26.6875 7.54688L30.0625 3.375H27.3125L25.3125 5.98438L23.3281 3.375H20.5312L23.9062 7.54688L20.3125 12ZM5.73438 25.5V25.25H8.71875V23.9375H1.04688V25.25H4.07812V25.5156C4.07812 27.4375 2.84375 29.2812 0.578125 30.0469L1.4375 31.3281C3.10938 30.75 4.3125 29.5625 4.9375 28.0625C5.5625 29.4375 6.70312 30.5312 8.28125 31.0625L9.125 29.7812C6.92188 29.0469 5.73438 27.2969 5.73438 25.5ZM2.46875 33.6406H10.2188V37.2969H11.8594V32.3125H2.46875V33.6406ZM10.2188 31.6094H11.8594V27.9844H13.875V26.625H11.8594V23.0156H10.2188V31.6094ZM28 30.4219H15.0938V31.7344H28V30.4219ZM16.4531 26.3438C16.4531 28.1562 18.4531 29.25 21.5469 29.25C24.625 29.25 26.625 28.1562 26.625 26.3438C26.625 24.5625 24.625 23.4688 21.5469 23.4688C18.4531 23.4688 16.4531 24.5625 16.4531 26.3438ZM16.7031 37H26.5625V35.6719H18.3438V32.8594H16.7031V37ZM18.1406 26.3438C18.1406 25.3438 19.4375 24.7812 21.5469 24.7812C23.6406 24.7812 24.9375 25.3438 24.9375 26.3438C24.9375 27.3594 23.6406 27.9219 21.5469 27.9219C19.4375 27.9219 18.1406 27.3594 18.1406 26.3438ZM46.0156 34.1875H42.9688V30.4844C44.0938 29.8438 44.7812 28.8281 44.7812 27.5625C44.7812 25.2812 42.5781 23.8125 39.5312 23.8125C36.4844 23.8125 34.2656 25.2812 34.2656 27.5625C34.2656 28.8281 34.9531 29.8438 36.0938 30.5V34.1875H33.0781V35.5469H46.0156V34.1875ZM35.875 27.5625C35.875 26.0469 37.375 25.1094 39.5312 25.1094C41.6875 25.1094 43.1719 26.0469 43.1719 27.5625C43.1719 29.0625 41.6875 30.0156 39.5312 30.0156C37.375 30.0156 35.875 29.0625 35.875 27.5625ZM37.7344 34.1875V31.1094C38.2812 31.2344 38.8906 31.2969 39.5312 31.2969C40.1719 31.2969 40.7812 31.2344 41.3281 31.1094V34.1875H37.7344ZM60.3906 34.1719H54.6719V30.8281H53.0312V34.1719H47.4531V35.5156H60.3906V34.1719ZM47.875 29.7656L48.5625 31.1406C50.9062 30.6719 52.9219 29.25 53.8594 27.3438C54.7969 29.25 56.8125 30.6719 59.1562 31.1406L59.8594 29.7656C57 29.2812 54.7188 27.1719 54.7188 24.9531V23.8906H52.9844V24.9531C52.9844 27.1406 50.7188 29.2812 47.875 29.7656ZM74.0156 23H72.4531V37.2812H74.0156V23ZM61.9688 29.1875C61.9688 32.3281 63.1719 34.25 65.0312 34.25C66.7812 34.25 67.9531 32.5625 68.0938 29.7656H69.5781V36.6094H71.125V23.2656H69.5781V28.4219H68.0781C67.9062 25.7344 66.75 24.1094 65.0312 24.1094C63.1719 24.1094 61.9688 26.0469 61.9688 29.1875ZM63.4844 29.1875C63.4844 26.9219 64.0781 25.6562 65.0312 25.6562C66.0156 25.6562 66.6094 26.9219 66.6094 29.1875C66.6094 31.4375 66.0156 32.7188 65.0312 32.7188C64.0781 32.7188 63.4844 31.4375 63.4844 29.1875ZM84.8125 26.5156V24.1875H83.1719V26.5156C83.1719 29.1562 81.7969 31.8906 79.5781 32.9688L80.5625 34.2969C82.1875 33.4688 83.375 31.8125 84.0156 29.8281C84.625 31.6875 85.7656 33.2344 87.2812 34.0312L88.2969 32.7188C86.1406 31.6562 84.8125 29.0625 84.8125 26.5156ZM89.2344 37.2969H90.875V30.0312H93.0938V28.6562H90.875V23.0156H89.2344V37.2969ZM107.094 29.9375H104.016V28.0781C105.109 27.6094 105.719 26.8906 105.719 25.9375C105.719 24.25 103.766 23.25 100.641 23.25C97.5156 23.25 95.5469 24.25 95.5469 25.9375C95.5469 26.875 96.1562 27.6094 97.2344 28.0625V29.9375H94.1875V31.25H107.094V29.9375ZM95.7031 34.7188C95.7031 36.3594 97.5469 37.2812 100.609 37.2812C103.688 37.2812 105.531 36.3594 105.531 34.7188C105.531 33.0781 103.688 32.1719 100.609 32.1719C97.5469 32.1719 95.7031 33.0781 95.7031 34.7188ZM97.2344 25.9375C97.2344 25.0156 98.5 24.5156 100.641 24.5156C102.766 24.5156 104.031 25.0156 104.031 25.9375C104.031 26.8594 102.766 27.375 100.641 27.375C98.5 27.375 97.2344 26.8594 97.2344 25.9375ZM97.3594 34.7188C97.3594 33.875 98.5312 33.4062 100.609 33.4062C102.703 33.4062 103.875 33.875 103.875 34.7188C103.875 35.5781 102.703 36.0312 100.609 36.0312C98.5312 36.0312 97.3594 35.5781 97.3594 34.7188ZM98.875 29.9375V28.5C99.4062 28.5781 100 28.625 100.641 28.625C101.266 28.625 101.844 28.5781 102.375 28.5V29.9375H98.875ZM117 28.9844H111.266V25.6406H116.922V24.3125H109.625V30.3281H112.438V32.9531C111.109 32.9844 109.797 32.9844 108.625 32.9844L108.844 34.3438C111.531 34.3594 114.844 34.2969 117.938 33.8281L117.812 32.6094C116.609 32.75 115.344 32.8438 114.078 32.8906V30.3281H117V28.9844ZM118.672 37.3125H120.312V23H118.672V37.3125ZM134.406 27.0938H126.25V23.5156H124.609V28.4219H134.406V27.0938ZM122.938 31.4531H135.875V30.1406H122.938V31.4531ZM124.5 36.9688H134.484V35.625H126.141V32.75H124.5V36.9688ZM152.172 24.4219H142.297V25.75H150.547V25.9844C150.547 27.8281 150.547 29.9062 150 32.75L151.641 32.9062C152.172 29.875 152.172 27.875 152.172 25.9844V24.4219ZM140.922 35.2969H153.828V33.9531H140.922V35.2969ZM167.078 23H165.438V37.3125H167.078V23ZM156.062 25.6094H161.062V28.25H156.094V33.9219H157.312C159.828 33.9219 161.969 33.8281 164.422 33.4062L164.266 32.0781C161.984 32.4531 160.016 32.5469 157.75 32.5625V29.5625H162.734V24.2812H156.062V25.6094ZM181.156 29.7344H172.891V25.5938H181.031V24.2656H171.25V31.0625H181.156V29.7344ZM169.672 35.4531H182.609V34.1094H169.672V35.4531Z" fill="#111827"/>
</svg>
