<svg width="812" height="184" viewBox="0 0 812 184" fill="none" xmlns="http://www.w3.org/2000/svg">
  <rect x="60" width="752" height="184" rx="5" fill="white"/>
  <rect x="80" y="68" width="16" height="16" fill="#FF1392" fill-opacity="0.1"/>
  <rect x="112" y="144" width="20" height="20" fill="#FF1392" fill-opacity="0.1"/>
  <rect x="148" y="60" width="24" height="24" fill="#FF1392" fill-opacity="0.1"/>
  <rect x="188" y="136" width="28" height="28" fill="#FF1392" fill-opacity="0.1"/>
  <rect x="232" y="52" width="32" height="32" fill="#FF1392" fill-opacity="0.1"/>
  <rect x="280" y="128" width="36" height="36" fill="#FF1392" fill-opacity="0.1"/>
  <rect x="332" y="44" width="40" height="40" fill="#FF1392" fill-opacity="0.1"/>
  <rect x="388" y="120" width="44" height="44" fill="#FF1392" fill-opacity="0.1"/>
  <rect x="448" y="36" width="48" height="48" fill="#FF1392" fill-opacity="0.1"/>
  <rect x="512" y="112" width="52" height="52" fill="#FF1392" fill-opacity="0.1"/>
  <rect x="580" y="28" width="56" height="56" fill="#FF1392" fill-opacity="0.1"/>
  <rect x="652" y="104" width="60" height="60" fill="#FF1392" fill-opacity="0.1"/>
  <rect x="728" y="20" width="64" height="64" fill="#FF1392" fill-opacity="0.1"/>
  <path d="M7.33594 64.1875C11.4375 64.1875 13.8984 62.3594 13.8984 59.3125C13.8984 57.2031 12.7734 55.6797 10.7812 55.1172C12.4219 54.5547 13.4531 53.125 13.4531 51.2031C13.4531 48.2969 11.1328 46.5391 7.33594 46.5391C3.53906 46.5391 1.21875 48.2969 1.21875 51.2031C1.21875 53.0547 2.20312 54.4844 3.89062 55.1172C1.92188 55.6562 0.796875 57.2031 0.796875 59.3125C0.796875 62.3594 3.25781 64.1875 7.33594 64.1875ZM4.10156 59.0312C4.10156 57.4375 5.15625 56.6641 7.33594 56.6641C9.53906 56.6641 10.5938 57.4375 10.5938 59.0312C10.5938 60.625 9.53906 61.4688 7.33594 61.4688C5.15625 61.4688 4.10156 60.625 4.10156 59.0312ZM4.5 51.5547C4.5 50.0312 5.46094 49.2578 7.33594 49.2578C9.21094 49.2578 10.125 50.0312 10.125 51.5547C10.125 53.125 9.21094 53.8984 7.33594 53.8984C5.50781 53.8984 4.5 53.125 4.5 51.5547ZM16.3594 68.4062H19.8984V62.1953C20.6484 63.5078 22.1719 64.2578 23.9766 64.2578C27.4453 64.2578 29.7188 61.75 29.7188 57.5312C29.7188 53.2891 27.4453 50.8047 23.9766 50.8047C22.1484 50.8047 20.6016 51.5781 19.875 52.8906V51.0625H16.3594V68.4062ZM19.875 57.5312C19.875 54.7656 21.0469 53.5234 22.9688 53.5234C24.8906 53.5234 26.1328 54.8125 26.1328 57.5312C26.1328 60.2734 24.8906 61.5625 22.9688 61.5625C21.0469 61.5625 19.875 60.2734 19.875 57.5312ZM30.4688 64H34.6172L37.9453 59.7344L41.2266 64H45.4453L40.0312 57.3203L45.0938 51.0625H40.9688L37.9688 54.9766L34.9922 51.0625H30.7969L35.8594 57.3203L30.4688 64Z" fill="#111827"/>
  <path d="M8.27344 148H11.7188V144.719H14.0859V142.047H11.7188V130.75H8.88281L0.960938 142.164V144.719H8.27344V148ZM4.19531 142.047L8.27344 136.141V142.047H4.19531ZM16.3594 152.406H19.8984V146.195C20.6484 147.508 22.1719 148.258 23.9766 148.258C27.4453 148.258 29.7188 145.75 29.7188 141.531C29.7188 137.289 27.4453 134.805 23.9766 134.805C22.1484 134.805 20.6016 135.578 19.875 136.891V135.062H16.3594V152.406ZM19.875 141.531C19.875 138.766 21.0469 137.523 22.9688 137.523C24.8906 137.523 26.1328 138.812 26.1328 141.531C26.1328 144.273 24.8906 145.562 22.9688 145.562C21.0469 145.562 19.875 144.273 19.875 141.531ZM30.4688 148H34.6172L37.9453 143.734L41.2266 148H45.4453L40.0312 141.32L45.0938 135.062H40.9688L37.9688 138.977L34.9922 135.062H30.7969L35.8594 141.32L30.4688 148Z" fill="#111827"/>
</svg>
