<svg width="502" height="440" viewBox="0 0 502 440" fill="none" xmlns="http://www.w3.org/2000/svg">
<g clip-path="url(#clip0_26_4277)">
<rect width="360" height="385" transform="translate(0 55)" fill="white"/>
<rect width="328" height="148" transform="translate(16 79)" fill="#E8E9FF"/>
<path d="M19.5156 120H31.2344C41.6875 120 47.4531 113.906 47.4531 102.703C47.4531 91.5469 41.6875 85.5 31.2344 85.5H19.5156V120ZM25.1875 115.219V90.2812H30.8125C38.0781 90.2812 41.5469 94.2188 41.5469 102.703C41.5469 111.234 38.125 115.219 30.8125 115.219H25.1875ZM53.6875 89.25H59.2656V83.4375H53.6875V89.25ZM53.6875 120H59.2656V94.125H53.6875V120ZM75.8125 120.469C82.1406 120.469 86.4531 117.422 86.4531 112.547C86.4531 108.797 84.0156 106.594 79.4219 105.656L74.4062 104.766C71.9688 104.25 70.9375 103.125 70.9375 101.484C70.9375 99.1875 72.7188 97.6875 76.3281 97.6875C79.1875 97.6875 82 98.625 84.1562 100.406L85.8906 96.75C83.7812 94.7344 80.3594 93.6562 76.375 93.6562C69.8125 93.6562 65.7812 97.125 65.7812 101.719C65.7812 105.328 68.0781 107.766 72.5781 108.609L77.6406 109.547C80.1719 110.109 81.25 111.094 81.25 112.828C81.25 115.125 79.375 116.484 75.9531 116.484C72.5781 116.484 69.25 115.453 66.7656 113.672L65.125 117.375C67.4219 119.344 71.3125 120.469 75.8125 120.469ZM92.2188 128.812H97.7969V116.016C99.3438 118.828 102.438 120.469 106.281 120.469C113.172 120.469 117.719 115.5 117.719 107.062C117.719 98.5312 113.172 93.6562 106.281 93.6562C102.391 93.6562 99.2031 95.3438 97.7031 98.25V94.125H92.2188V128.812ZM97.7031 107.062C97.7031 100.922 100.516 97.9688 104.875 97.9688C109.234 97.9688 112.094 100.969 112.094 107.062C112.094 113.156 109.234 116.156 104.875 116.156C100.516 116.156 97.7031 113.156 97.7031 107.062ZM123.625 120H129.156V83.4375H123.625V120ZM144.859 120.516C148.562 120.516 151.281 118.734 152.547 115.922V120H157.75V103.547C157.75 96.5625 154.094 93.6562 147.25 93.6562C143.453 93.6562 139.047 94.8281 136.375 96.7031L138.016 100.641C140.828 98.8125 143.922 97.9219 147.016 97.9219C150.719 97.9219 152.453 99.3281 152.453 103.031V104.906H150.297C138.812 104.906 135.391 107.109 135.391 112.312C135.391 116.953 139.188 120.516 144.859 120.516ZM140.828 112.172C140.828 109.266 142.797 108.047 150.344 108.047H152.453V109.875C152.453 113.953 149.594 116.484 145.938 116.484C142.75 116.484 140.828 114.797 140.828 112.172ZM183.344 94.125L175.141 113.062L166.984 94.125H161.453L172.375 119.438L171.953 120.375C170.688 123.328 169.75 124.875 166.797 125.109L164.359 125.344L164.781 129.422L167.125 129.281C173.969 128.859 175.234 125.766 177.859 119.672L188.922 94.125H183.344ZM211.469 120H217V90.1406H228.391V85.5H200.031V90.1406H211.469V120ZM244.75 120.469C248.641 120.469 252.578 119.25 254.922 117L253.141 113.297C250.891 115.312 247.938 116.156 244.938 116.156C239.641 116.156 236.641 113.625 236.312 108.188H255.25V106.5C255.25 98.4844 250.891 93.6562 243.672 93.6562C236.125 93.6562 230.875 99 230.875 107.109C230.875 115.641 236.266 120.469 244.75 120.469ZM236.359 105.047C236.828 100.219 239.547 97.6406 243.812 97.6406C247.938 97.6406 250.234 100.031 250.469 105.047H236.359ZM257.312 120H263.828L271.281 110.484L278.688 120H285.344L274.562 106.641L284.641 94.125H278.172L271.328 102.938L264.578 94.125H257.969L268 106.641L257.312 120ZM300.156 120.469C302.031 120.469 304.047 120 305.219 119.391L304.375 115.266C303.297 115.594 302.219 115.875 301.047 115.875C297.625 115.875 296.125 114.094 296.125 110.578V98.2969H304.094V94.125H296.125V87.5625H290.547V94.125H285.484V98.2969H290.547V111C290.547 117.188 293.781 120.469 300.156 120.469ZM21.8594 168H42.4375V163.453H34.8906V133.5H30.9531L21.1094 139.547L23.4062 143.625L29.3594 140.016V163.453H21.8594V168Z" fill="#111827"/>
<rect x="16" y="175" width="328" height="16" fill="#FF1392" fill-opacity="0.1"/>
<path d="M17.4648 208H22.3477C26.7031 208 29.1055 205.461 29.1055 200.793C29.1055 196.145 26.7031 193.625 22.3477 193.625H17.4648V208ZM19.8281 206.008V195.617H22.1719C25.1992 195.617 26.6445 197.258 26.6445 200.793C26.6445 204.348 25.2188 206.008 22.1719 206.008H19.8281ZM31.7031 195.188H34.0273V192.766H31.7031V195.188ZM31.7031 208H34.0273V197.219H31.7031V208ZM40.9219 208.195C43.5586 208.195 45.3555 206.926 45.3555 204.895C45.3555 203.332 44.3398 202.414 42.4258 202.023L40.3359 201.652C39.3203 201.438 38.8906 200.969 38.8906 200.285C38.8906 199.328 39.6328 198.703 41.1367 198.703C42.3281 198.703 43.5 199.094 44.3984 199.836L45.1211 198.312C44.2422 197.473 42.8164 197.023 41.1562 197.023C38.4219 197.023 36.7422 198.469 36.7422 200.383C36.7422 201.887 37.6992 202.902 39.5742 203.254L41.6836 203.645C42.7383 203.879 43.1875 204.289 43.1875 205.012C43.1875 205.969 42.4062 206.535 40.9805 206.535C39.5742 206.535 38.1875 206.105 37.1523 205.363L36.4688 206.906C37.4258 207.727 39.0469 208.195 40.9219 208.195ZM47.7578 211.672H50.082V206.34C50.7266 207.512 52.0156 208.195 53.6172 208.195C56.4883 208.195 58.3828 206.125 58.3828 202.609C58.3828 199.055 56.4883 197.023 53.6172 197.023C51.9961 197.023 50.668 197.727 50.043 198.938V197.219H47.7578V211.672ZM50.043 202.609C50.043 200.051 51.2148 198.82 53.0312 198.82C54.8477 198.82 56.0391 200.07 56.0391 202.609C56.0391 205.148 54.8477 206.398 53.0312 206.398C51.2148 206.398 50.043 205.148 50.043 202.609ZM60.8438 208H63.1484V192.766H60.8438V208ZM69.6914 208.215C71.2344 208.215 72.3672 207.473 72.8945 206.301V208H75.0625V201.145C75.0625 198.234 73.5391 197.023 70.6875 197.023C69.1055 197.023 67.2695 197.512 66.1562 198.293L66.8398 199.934C68.0117 199.172 69.3008 198.801 70.5898 198.801C72.1328 198.801 72.8555 199.387 72.8555 200.93V201.711H71.957C67.1719 201.711 65.7461 202.629 65.7461 204.797C65.7461 206.73 67.3281 208.215 69.6914 208.215ZM68.0117 204.738C68.0117 203.527 68.832 203.02 71.9766 203.02H72.8555V203.781C72.8555 205.48 71.6641 206.535 70.1406 206.535C68.8125 206.535 68.0117 205.832 68.0117 204.738ZM85.7266 197.219L82.3086 205.109L78.9102 197.219H76.6055L81.1562 207.766L80.9805 208.156C80.4531 209.387 80.0625 210.031 78.832 210.129L77.8164 210.227L77.9922 211.926L78.9688 211.867C81.8203 211.691 82.3477 210.402 83.4414 207.863L88.0508 197.219H85.7266ZM97.4453 208H99.75V195.559H104.496V193.625H92.6797V195.559H97.4453V208ZM111.312 208.195C112.934 208.195 114.574 207.688 115.551 206.75L114.809 205.207C113.871 206.047 112.641 206.398 111.391 206.398C109.184 206.398 107.934 205.344 107.797 203.078H115.688V202.375C115.688 199.035 113.871 197.023 110.863 197.023C107.719 197.023 105.531 199.25 105.531 202.629C105.531 206.184 107.777 208.195 111.312 208.195ZM107.816 201.77C108.012 199.758 109.145 198.684 110.922 198.684C112.641 198.684 113.598 199.68 113.695 201.77H107.816ZM116.547 208H119.262L122.367 204.035L125.453 208H128.227L123.734 202.434L127.934 197.219H125.238L122.387 200.891L119.574 197.219H116.82L121 202.434L116.547 208ZM134.398 208.195C135.18 208.195 136.02 208 136.508 207.746L136.156 206.027C135.707 206.164 135.258 206.281 134.77 206.281C133.344 206.281 132.719 205.539 132.719 204.074V198.957H136.039V197.219H132.719V194.484H130.395V197.219H128.285V198.957H130.395V204.25C130.395 206.828 131.742 208.195 134.398 208.195Z" fill="#111827"/>
<rect x="16" y="211" width="328" height="16" fill="#FF1392" fill-opacity="0.1"/>
<rect x="16" y="227" width="41.3333" height="32" rx="8" fill="#2E3092"/>
<path d="M35.0945 236.625H33.6589V241.15H31.0476V237.609H29.6394V240.754H26.6316V237.609H25.196V246.086H31.0476V242.312H33.6589V249.148H35.0945V236.625ZM26.6316 244.924V241.889H29.6394V244.924H26.6316ZM48.575 243.475H37.282V244.623H48.575V243.475ZM38.6902 248.875H47.4128V247.713H40.1257V245.402H38.6902V248.875ZM38.7312 242.504H47.3171V241.396H40.1667V240.303H46.9207V239.236H40.1667V238.17H47.2351V237.062H38.7312V242.504Z" fill="white"/>
<rect x="73.3333" y="227" width="41.3333" height="32" rx="8" fill="#2E3092"/>
<path d="M92.4277 236.625H90.9922V241.15H88.3809V237.609H86.9727V240.754H83.9648V237.609H82.5293V246.086H88.3809V242.312H90.9922V249.148H92.4277V236.625ZM83.9648 244.924V241.889H86.9727V244.924H83.9648ZM105.908 243.475H94.6152V244.623H105.908V243.475ZM96.0234 248.875H104.746V247.713H97.459V245.402H96.0234V248.875ZM96.0645 242.504H104.65V241.396H97.5V240.303H104.254V239.236H97.5V238.17H104.568V237.062H96.0645V242.504Z" fill="white"/>
<rect x="130.667" y="227" width="41.3333" height="32" rx="8" fill="#2E3092"/>
<path d="M149.761 236.625H148.326V241.15H145.714V237.609H144.306V240.754H141.298V237.609H139.863V246.086H145.714V242.312H148.326V249.148H149.761V236.625ZM141.298 244.924V241.889H144.306V244.924H141.298ZM163.242 243.475H151.949V244.623H163.242V243.475ZM153.357 248.875H162.08V247.713H154.792V245.402H153.357V248.875ZM153.398 242.504H161.984V241.396H154.833V240.303H161.587V239.236H154.833V238.17H161.902V237.062H153.398V242.504Z" fill="white"/>
<rect x="188" y="227" width="41.3333" height="32" rx="8" fill="#2E3092"/>
<path d="M207.094 236.625H205.659V241.15H203.048V237.609H201.639V240.754H198.632V237.609H197.196V246.086H203.048V242.312H205.659V249.148H207.094V236.625ZM198.632 244.924V241.889H201.639V244.924H198.632ZM220.575 243.475H209.282V244.623H220.575V243.475ZM210.69 248.875H219.413V247.713H212.126V245.402H210.69V248.875ZM210.731 242.504H219.317V241.396H212.167V240.303H218.921V239.236H212.167V238.17H219.235V237.062H210.731V242.504Z" fill="white"/>
<rect x="245.333" y="227" width="41.3333" height="32" rx="8" fill="#2E3092"/>
<path d="M264.428 236.625H262.992V241.15H260.381V237.609H258.973V240.754H255.965V237.609H254.529V246.086H260.381V242.312H262.992V249.148H264.428V236.625ZM255.965 244.924V241.889H258.973V244.924H255.965ZM277.908 243.475H266.615V244.623H277.908V243.475ZM268.023 248.875H276.746V247.713H269.459V245.402H268.023V248.875ZM268.064 242.504H276.65V241.396H269.5V240.303H276.254V239.236H269.5V238.17H276.568V237.062H268.064V242.504Z" fill="white"/>
<rect x="302.667" y="227" width="41.3333" height="32" rx="8" fill="#2E3092"/>
<path d="M321.761 236.625H320.326V241.15H317.714V237.609H316.306V240.754H313.298V237.609H311.863V246.086H317.714V242.312H320.326V249.148H321.761V236.625ZM313.298 244.924V241.889H316.306V244.924H313.298ZM335.242 243.475H323.949V244.623H335.242V243.475ZM325.357 248.875H334.08V247.713H326.792V245.402H325.357V248.875ZM325.398 242.504H333.984V241.396H326.833V240.303H333.587V239.236H326.833V238.17H333.902V237.062H325.398V242.504Z" fill="white"/>
<rect x="16" y="259" width="328" height="44" fill="#FF1392" fill-opacity="0.1"/>
<rect width="328" height="148" transform="translate(16 327)" fill="#E8E9FF"/>
<path d="M19.5156 368H31.2344C41.6875 368 47.4531 361.906 47.4531 350.703C47.4531 339.547 41.6875 333.5 31.2344 333.5H19.5156V368ZM25.1875 363.219V338.281H30.8125C38.0781 338.281 41.5469 342.219 41.5469 350.703C41.5469 359.234 38.125 363.219 30.8125 363.219H25.1875ZM53.6875 337.25H59.2656V331.438H53.6875V337.25ZM53.6875 368H59.2656V342.125H53.6875V368ZM75.8125 368.469C82.1406 368.469 86.4531 365.422 86.4531 360.547C86.4531 356.797 84.0156 354.594 79.4219 353.656L74.4062 352.766C71.9688 352.25 70.9375 351.125 70.9375 349.484C70.9375 347.188 72.7188 345.688 76.3281 345.688C79.1875 345.688 82 346.625 84.1562 348.406L85.8906 344.75C83.7812 342.734 80.3594 341.656 76.375 341.656C69.8125 341.656 65.7812 345.125 65.7812 349.719C65.7812 353.328 68.0781 355.766 72.5781 356.609L77.6406 357.547C80.1719 358.109 81.25 359.094 81.25 360.828C81.25 363.125 79.375 364.484 75.9531 364.484C72.5781 364.484 69.25 363.453 66.7656 361.672L65.125 365.375C67.4219 367.344 71.3125 368.469 75.8125 368.469ZM92.2188 376.812H97.7969V364.016C99.3438 366.828 102.438 368.469 106.281 368.469C113.172 368.469 117.719 363.5 117.719 355.062C117.719 346.531 113.172 341.656 106.281 341.656C102.391 341.656 99.2031 343.344 97.7031 346.25V342.125H92.2188V376.812ZM97.7031 355.062C97.7031 348.922 100.516 345.969 104.875 345.969C109.234 345.969 112.094 348.969 112.094 355.062C112.094 361.156 109.234 364.156 104.875 364.156C100.516 364.156 97.7031 361.156 97.7031 355.062ZM123.625 368H129.156V331.438H123.625V368ZM144.859 368.516C148.562 368.516 151.281 366.734 152.547 363.922V368H157.75V351.547C157.75 344.562 154.094 341.656 147.25 341.656C143.453 341.656 139.047 342.828 136.375 344.703L138.016 348.641C140.828 346.812 143.922 345.922 147.016 345.922C150.719 345.922 152.453 347.328 152.453 351.031V352.906H150.297C138.812 352.906 135.391 355.109 135.391 360.312C135.391 364.953 139.188 368.516 144.859 368.516ZM140.828 360.172C140.828 357.266 142.797 356.047 150.344 356.047H152.453V357.875C152.453 361.953 149.594 364.484 145.938 364.484C142.75 364.484 140.828 362.797 140.828 360.172ZM183.344 342.125L175.141 361.062L166.984 342.125H161.453L172.375 367.438L171.953 368.375C170.688 371.328 169.75 372.875 166.797 373.109L164.359 373.344L164.781 377.422L167.125 377.281C173.969 376.859 175.234 373.766 177.859 367.672L188.922 342.125H183.344ZM211.469 368H217V338.141H228.391V333.5H200.031V338.141H211.469V368ZM244.75 368.469C248.641 368.469 252.578 367.25 254.922 365L253.141 361.297C250.891 363.312 247.938 364.156 244.938 364.156C239.641 364.156 236.641 361.625 236.312 356.188H255.25V354.5C255.25 346.484 250.891 341.656 243.672 341.656C236.125 341.656 230.875 347 230.875 355.109C230.875 363.641 236.266 368.469 244.75 368.469ZM236.359 353.047C236.828 348.219 239.547 345.641 243.812 345.641C247.938 345.641 250.234 348.031 250.469 353.047H236.359ZM257.312 368H263.828L271.281 358.484L278.688 368H285.344L274.562 354.641L284.641 342.125H278.172L271.328 350.938L264.578 342.125H257.969L268 354.641L257.312 368ZM300.156 368.469C302.031 368.469 304.047 368 305.219 367.391L304.375 363.266C303.297 363.594 302.219 363.875 301.047 363.875C297.625 363.875 296.125 362.094 296.125 358.578V346.297H304.094V342.125H296.125V335.562H290.547V342.125H285.484V346.297H290.547V359C290.547 365.188 293.781 368.469 300.156 368.469ZM19.7969 416H42.625V411.453H26.7344L35.6406 401.891C39.7188 397.625 41.2656 394.344 41.2656 390.312C41.2656 384.688 37.0469 381.078 30.3438 381.078C26.125 381.078 21.5781 382.719 18.8594 385.156L20.6406 389.281C23.875 386.844 27.0625 385.531 30.1562 385.531C33.8125 385.531 35.875 387.312 35.875 390.688C35.875 393.312 34.4688 395.891 31.6094 399.031L19.7969 411.875V416Z" fill="#111827"/>
<rect x="16" y="423" width="328" height="16" fill="#FF1392" fill-opacity="0.1"/>
</g>
<path d="M462.766 181H470.109V179.078H467.625V169.5H465.953L462.406 171.594L463.281 173.312L465.266 172.156V179.078H462.766V181ZM476.078 181.141C478.328 181.141 479.984 179.5 479.984 177.266C479.984 175.109 478.531 173.562 476.5 173.562C475.297 173.562 474.266 174.125 473.781 175.031C473.859 172.531 474.734 171.203 476.328 171.203C477.172 171.203 478.141 171.531 479.203 172.359L479.984 170.656C479.016 169.797 477.625 169.359 476.234 169.359C473.266 169.359 471.453 171.625 471.453 175.438C471.453 179.094 473.125 181.141 476.078 181.141ZM474.109 177.359C474.109 176.188 474.844 175.391 475.938 175.391C477.031 175.391 477.75 176.188 477.75 177.359C477.75 178.547 477.047 179.297 475.922 179.297C474.859 179.297 474.109 178.531 474.109 177.359ZM481.703 183.938H484.062V179.797C484.562 180.672 485.578 181.172 486.781 181.172C489.094 181.172 490.609 179.5 490.609 176.688C490.609 173.859 489.094 172.203 486.781 172.203C485.562 172.203 484.531 172.719 484.047 173.594V172.375H481.703V183.938ZM484.047 176.688C484.047 174.844 484.828 174.016 486.109 174.016C487.391 174.016 488.219 174.875 488.219 176.688C488.219 178.516 487.391 179.375 486.109 179.375C484.828 179.375 484.047 178.516 484.047 176.688ZM491.109 181H493.875L496.094 178.156L498.281 181H501.094L497.484 176.547L500.859 172.375H498.109L496.109 174.984L494.125 172.375H491.328L494.703 176.547L491.109 181Z" fill="#111827"/>
<path d="M462.141 319H469.969V317.078H465.062L467.734 314.25C469.062 312.922 469.562 311.859 469.562 310.484C469.562 308.594 468.062 307.359 465.719 307.359C464.25 307.359 462.688 307.859 461.781 308.656L462.5 310.359C463.578 309.625 464.641 309.203 465.594 309.203C466.672 309.203 467.266 309.688 467.266 310.672C467.266 311.438 466.844 312.234 465.984 313.125L462.141 317.266V319ZM476.328 319H478.625V316.812H480.203V315.031H478.625V307.5H476.734L471.453 315.109V316.812H476.328V319ZM473.609 315.031L476.328 311.094V315.031H473.609ZM481.719 321.938H484.078V317.797C484.578 318.672 485.594 319.172 486.797 319.172C489.109 319.172 490.625 317.5 490.625 314.688C490.625 311.859 489.109 310.203 486.797 310.203C485.578 310.203 484.547 310.719 484.062 311.594V310.375H481.719V321.938ZM484.062 314.688C484.062 312.844 484.844 312.016 486.125 312.016C487.406 312.016 488.234 312.875 488.234 314.688C488.234 316.516 487.406 317.375 486.125 317.375C484.844 317.375 484.062 316.516 484.062 314.688ZM491.125 319H493.891L496.109 316.156L498.297 319H501.109L497.5 314.547L500.875 310.375H498.125L496.125 312.984L494.141 310.375H491.344L494.719 314.547L491.125 319Z" fill="#111827"/>
<path d="M462.141 77H469.969V75.0781H465.062L467.734 72.25C469.062 70.9219 469.562 69.8594 469.562 68.4844C469.562 66.5938 468.062 65.3594 465.719 65.3594C464.25 65.3594 462.688 65.8594 461.781 66.6562L462.5 68.3594C463.578 67.625 464.641 67.2031 465.594 67.2031C466.672 67.2031 467.266 67.6875 467.266 68.6719C467.266 69.4375 466.844 70.2344 465.984 71.125L462.141 75.2656V77ZM476.328 77H478.625V74.8125H480.203V73.0312H478.625V65.5H476.734L471.453 73.1094V74.8125H476.328V77ZM473.609 73.0312L476.328 69.0938V73.0312H473.609ZM481.719 79.9375H484.078V75.7969C484.578 76.6719 485.594 77.1719 486.797 77.1719C489.109 77.1719 490.625 75.5 490.625 72.6875C490.625 69.8594 489.109 68.2031 486.797 68.2031C485.578 68.2031 484.547 68.7188 484.062 69.5938V68.375H481.719V79.9375ZM484.062 72.6875C484.062 70.8438 484.844 70.0156 486.125 70.0156C487.406 70.0156 488.234 70.875 488.234 72.6875C488.234 74.5156 487.406 75.375 486.125 75.375C484.844 75.375 484.062 74.5156 484.062 72.6875ZM491.125 77H493.891L496.109 74.1562L498.297 77H501.109L497.5 72.5469L500.875 68.375H498.125L496.125 70.9844L494.141 68.375H491.344L494.719 72.5469L491.125 77Z" fill="#111827"/>
<path d="M281.766 12H289.109V10.0781H286.625V0.5H284.953L281.406 2.59375L282.281 4.3125L284.266 3.15625V10.0781H281.766V12ZM295.078 12.1406C297.328 12.1406 298.984 10.5 298.984 8.26562C298.984 6.10938 297.531 4.5625 295.5 4.5625C294.297 4.5625 293.266 5.125 292.781 6.03125C292.859 3.53125 293.734 2.20312 295.328 2.20312C296.172 2.20312 297.141 2.53125 298.203 3.35938L298.984 1.65625C298.016 0.796875 296.625 0.359375 295.234 0.359375C292.266 0.359375 290.453 2.625 290.453 6.4375C290.453 10.0938 292.125 12.1406 295.078 12.1406ZM293.109 8.35938C293.109 7.1875 293.844 6.39062 294.938 6.39062C296.031 6.39062 296.75 7.1875 296.75 8.35938C296.75 9.54688 296.047 10.2969 294.922 10.2969C293.859 10.2969 293.109 9.53125 293.109 8.35938ZM300.703 14.9375H303.062V10.7969C303.562 11.6719 304.578 12.1719 305.781 12.1719C308.094 12.1719 309.609 10.5 309.609 7.6875C309.609 4.85938 308.094 3.20312 305.781 3.20312C304.562 3.20312 303.531 3.71875 303.047 4.59375V3.375H300.703V14.9375ZM303.047 7.6875C303.047 5.84375 303.828 5.01562 305.109 5.01562C306.391 5.01562 307.219 5.875 307.219 7.6875C307.219 9.51562 306.391 10.375 305.109 10.375C303.828 10.375 303.047 9.51562 303.047 7.6875ZM310.109 12H312.875L315.094 9.15625L317.281 12H320.094L316.484 7.54688L319.859 3.375H317.109L315.109 5.98438L313.125 3.375H310.328L313.703 7.54688L310.109 12Z" fill="#111827"/>
<path d="M367 175L382 183.66V166.34L367 175ZM444 173.5H440.792V176.5H444V173.5ZM434.375 173.5H427.958V176.5H434.375V173.5ZM421.542 173.5H415.125V176.5H421.542V173.5ZM408.708 173.5H402.292V176.5H408.708V173.5ZM395.875 173.5H389.458V176.5H395.875V173.5ZM383.042 173.5H376.625V176.5H383.042V173.5Z" fill="#636871"/>
<path d="M367 313L382 321.66V304.34L367 313ZM444 311.5H440.792V314.5H444V311.5ZM434.375 311.5H427.958V314.5H434.375V311.5ZM421.542 311.5H415.125V314.5H421.542V311.5ZM408.708 311.5H402.292V314.5H408.708V311.5ZM395.875 311.5H389.458V314.5H395.875V311.5ZM383.042 311.5H376.625V314.5H383.042V311.5Z" fill="#636871"/>
<path d="M367 71L382 79.6603V62.3397L367 71ZM444 69.5H440.792V72.5H444V69.5ZM434.375 69.5H427.958V72.5H434.375V69.5ZM421.542 69.5H415.125V72.5H421.542V69.5ZM408.708 69.5H402.292V72.5H408.708V69.5ZM395.875 69.5H389.458V72.5H395.875V69.5ZM383.042 69.5H376.625V72.5H383.042V69.5Z" fill="#636871"/>
<path d="M296 55L304.66 40L287.34 40L296 55ZM294.5 23L294.5 25.6667L297.5 25.6667L297.5 23L294.5 23ZM294.5 31L294.5 36.3333L297.5 36.3333L297.5 31L294.5 31ZM294.5 41.6667L294.5 47L297.5 47L297.5 41.6667L294.5 41.6667Z" fill="#636871"/>
<path d="M304 55L304 440" stroke="#D32F2F"/>
<path d="M288 55L288 440" stroke="#D32F2F"/>
<defs>
<clipPath id="clip0_26_4277">
<rect width="360" height="385" fill="white" transform="translate(0 55)"/>
</clipPath>
</defs>
</svg>
